<svg id="图层_1" data-name="图层 1" xmlns="http://www.w3.org/2000/svg" xmlns:xlink="http://www.w3.org/1999/xlink" viewBox="0 0 750 600"><defs><clipPath id="clip-path"><rect x="-841" y="-665" width="750" height="400" style="fill:none"/></clipPath><clipPath id="clip-path-2"><rect width="750" height="600" style="fill:none"/></clipPath><clipPath id="clip-path-3"><rect x="-1" y="782" width="750" height="600" style="fill:none"/></clipPath></defs><title>activity_banner</title><rect width="750" height="600" style="fill:#beeae9"/><g style="clip-path:url(#clip-path-2)"><g style="opacity:0.30000000000000004"><polygon points="0.3 994.2 3.4 995.9 750.3 590.8 747.2 589.1 0.3 994.2" style="fill:#93d1ce"/><polygon points="0.3 965 3.4 966.7 750.3 561.6 747.2 560 0.3 965" style="fill:#93d1ce"/><polygon points="0.3 935.9 3.4 937.6 750.3 532.5 747.2 530.8 0.3 935.9" style="fill:#93d1ce"/><polygon points="0.3 906.7 3.4 908.4 750.3 503.3 747.2 501.6 0.3 906.7" style="fill:#93d1ce"/><polygon points="0.3 877.5 3.4 879.2 750.3 474.1 747.2 472.4 0.3 877.5" style="fill:#93d1ce"/><polygon points="0.3 848.3 3.4 850 750.3 444.9 747.2 443.2 0.3 848.3" style="fill:#93d1ce"/><polygon points="0.3 819.1 3.4 820.8 750.3 415.7 747.2 414.1 0.3 819.1" style="fill:#93d1ce"/><polygon points="0.3 790 3.4 791.7 750.3 386.6 747.2 384.9 0.3 790" style="fill:#93d1ce"/><polygon points="0.3 760.8 3.4 762.5 750.3 357.4 747.2 355.7 0.3 760.8" style="fill:#93d1ce"/><polygon points="0.3 731.6 3.4 733.3 750.3 328.2 747.2 326.5 0.3 731.6" style="fill:#93d1ce"/><polygon points="0.3 702.4 3.4 704.1 750.3 299 747.2 297.3 0.3 702.4" style="fill:#93d1ce"/><polygon points="0.3 673.2 3.4 674.9 750.3 269.8 747.2 268.2 0.3 673.2" style="fill:#93d1ce"/><polygon points="0.3 644.1 3.4 645.8 750.3 240.7 747.2 239 0.3 644.1" style="fill:#93d1ce"/><polygon points="0.3 614.9 3.4 616.6 750.3 211.5 747.2 209.8 0.3 614.9" style="fill:#93d1ce"/><polygon points="0.3 585.7 3.4 587.4 750.3 182.3 747.2 180.6 0.3 585.7" style="fill:#93d1ce"/><polygon points="0.3 556.5 3.4 558.2 750.3 153.1 747.2 151.4 0.3 556.5" style="fill:#93d1ce"/><polygon points="0.3 527.3 3.4 529 750.3 123.9 747.2 122.3 0.3 527.3" style="fill:#93d1ce"/><polygon points="0.3 498.2 3.4 499.9 750.3 94.8 747.2 93.1 0.3 498.2" style="fill:#93d1ce"/><polygon points="0.3 469 3.4 470.7 750.3 65.6 747.2 63.9 0.3 469" style="fill:#93d1ce"/><polygon points="0.3 439.8 3.4 441.5 750.3 36.4 747.2 34.7 0.3 439.8" style="fill:#93d1ce"/><polygon points="0.3 410.6 3.4 412.3 750.3 7.2 747.2 5.5 0.3 410.6" style="fill:#93d1ce"/><polygon points="0.3 381.4 3.4 383.1 750.3 -22 747.2 -23.6 0.3 381.4" style="fill:#93d1ce"/><polygon points="0.3 352.3 3.4 354 750.3 -51.1 747.2 -52.8 0.3 352.3" style="fill:#93d1ce"/><polygon points="0.3 323.1 3.4 324.8 750.3 -80.3 747.2 -82 0.3 323.1" style="fill:#93d1ce"/><polygon points="0.3 293.9 3.4 295.6 750.3 -109.5 747.2 -111.2 0.3 293.9" style="fill:#93d1ce"/><polygon points="0.3 264.7 3.4 266.4 750.3 -138.7 747.2 -140.4 0.3 264.7" style="fill:#93d1ce"/><polygon points="0.3 235.5 3.4 237.2 750.3 -167.9 747.2 -169.5 0.3 235.5" style="fill:#93d1ce"/><polygon points="0.3 206.4 3.4 208.1 750.3 -197 747.2 -198.7 0.3 206.4" style="fill:#93d1ce"/><polygon points="0.3 177.2 3.4 178.9 750.3 -226.2 747.2 -227.9 0.3 177.2" style="fill:#93d1ce"/><polygon points="0.3 148 3.4 149.7 750.3 -255.4 747.2 -257.1 0.3 148" style="fill:#93d1ce"/><polygon points="0.3 118.8 3.4 120.5 750.3 -284.6 747.2 -286.3 0.3 118.8" style="fill:#93d1ce"/><polygon points="0.3 89.6 3.4 91.3 750.3 -313.8 747.2 -315.4 0.3 89.6" style="fill:#93d1ce"/><polygon points="0.3 60.5 3.4 62.2 750.3 -342.9 747.2 -344.6 0.3 60.5" style="fill:#93d1ce"/><polygon points="0.3 31.3 3.4 33 750.3 -372.1 747.2 -373.8 0.3 31.3" style="fill:#93d1ce"/><polygon points="0.3 2.1 3.4 3.8 750.3 -401.3 747.2 -403 0.3 2.1" style="fill:#93d1ce"/></g><path d="M453.4,434.8c-1.8-1.8-4.7-2.3-7.1-3.4,3.9-2.1,5.6-5.8,5.7-10.7,3.9,5.3,8.1,6.9,12.7,5.2s7.3-5.8,6.6-10.1a12.6,12.6,0,0,0-3.5-7c-1.9-1.8-4.9-2.2-7.2-3.2,4.6-3.2,6.5-7,5.4-11.7s-5.1-7.6-11-8.3c5.4-3,5.9-7.4,6.1-11.9a3.6,3.6,0,0,1-.2-1c-2.4-3.9-5.3-7.1-11.3-7,5.1-3.6,6.9-7.8,5.3-12.8s-5.5-7.2-10.8-7.3c5.4-4.6,6.9-8.7,5.1-13.3a9.7,9.7,0,0,0-9.8-6.3c-6.4.5-9.2,4.7-9.9,10l-9.7-5.4c4.6-4.4,5.8-8.5,3.8-13.1a10,10,0,0,0-10.1-5.8c-5,.5-7.8,3.7-9.7,11.2-2.7-4.5-6.7-6.6-11.8-5.3s-7.5,5.2-8.2,11.1c-3-5.3-7.5-5.8-12.1-5.9h-.1c-4.1,2.5-7.6,5.4-7.5,11.7-3.5-4.8-7.4-6.7-12.2-5.3s-7.7,5.9-7.8,11.7c-3.7-5.5-8.2-7.3-12.9-5.4a10.2,10.2,0,0,0-6.6,10.4c.4,5.4,3.9,8.4,11.1,9.5a11.7,11.7,0,0,0-6.2,11.2c-4-5.5-8.4-7.1-13.1-5.2a10.4,10.4,0,0,0-6.3,10.6c.5,5.4,3.9,8.1,11.5,9.3-4.8,2.6-7.2,6.4-6.1,11.7s5,8.1,11.1,8.4c-4.8,3.2-7,7.2-5.6,12.3s5.2,7.6,11.2,7.7c-5.2,3.4-7.3,7.7-5.5,13s5.7,7.2,11.2,6.9c-6,5.1-7.5,9.2-5.3,14a9.6,9.6,0,0,0,10.4,5.7c5.1-.7,7.9-4.2,8.9-10.8,1.5,1.3,2.9,3.2,4.7,4.2s4.1,1.2,6.2,1.8c-4.9,3.4-6.7,7.6-5.3,12.2s5.3,7.5,9.6,6.9a13.1,13.1,0,0,0,7.3-3.7c1.8-1.9,2.3-5.1,3.3-7.5,2.8,4.4,6,6.4,10.4,5.6,6.1-.9,8.8-5.1,9.4-11.4,2.8,4.6,6.5,6.6,11.3,5.6s8.3-5.3,8.7-11.4c3.1,4.8,7.1,6.9,12.2,5.3s7.6-5.9,7.5-11.6c4.4,5.6,8.3,7.2,13,5.4s7.1-5.5,6.5-9.8A12.4,12.4,0,0,0,453.4,434.8Zm-99.8-85.2-4.8,8.5-9.2-4.3c3.2-2,5.2-5.4,5-10.7C347,347.1,349.7,349.5,353.6,349.6Zm-19.7,35.3c-2.2-3.2-5.7-4.5-10.5-4.2,4.4-2.7,6.8-6,6.7-10.2l8.6,5.9Zm31.5-45.2,7.5,4.8-4.1,7.3-8-3.9C362.2,345.3,363.9,342.3,365.4,339.7Zm-7.9,30.9c-1.2,2-2.5,4.4-3.8,6.7l-7.3-3.4,4.4-7.8Zm-18,33.6-8.3-4.1,5.1-8.2,7.4,4.7Zm53.8-65.8-4.9,7.6-7.1-4c1.3-2.7,2.8-5.6,4.1-8.1Zm-31,52.6-3.4,6.1-6.5-3.2,3.8-6.7Zm5-23.4,3.8-6.8,5.7,3.9-3.3,5.9Zm-30.8,52.6,5.3-7.9,7.3,4.2c-1.3,2.7-2.8,5.6-4.2,8.4Zm77.8-88.1-5.5,8.5-7.7-4.3c1.4-2.8,2.9-6,4.4-9.2A10.3,10.3,0,0,0,414.3,332.1Zm-26.2,29.3,3-6.2,6.4,3.6-3.7,5.8ZM381,385.3l-2.6,4.7-4.7-2.4,2.9-5.2Zm-19.2,22.6,6,3.4c-1.1,2.4-2.1,4.4-3.2,6.6l-6.8-3.8Zm-22.4,33.2c4.5-2.5,7-5.5,7.1-9.4l9.1,5.1a12,12,0,0,0-4.5,10C348.5,442.7,345,440.8,339.4,441.1Zm79.1-88.2-4.4,6.7-6.5-3.7c1.1-2.3,2.4-4.8,3.5-7.2ZM382,403.4l5,2.8-2.7,4.8-5-2.8C380.1,406.7,381,405,382,403.4Zm15-26.7,4.9,2.7-2.7,4.3-4.3-2.5Zm-34.4,57.8,4.7-7.1,6.8,3.8-3.6,7.7Zm77.3-88.2c-2,3-3.9,6-5.6,8.7l-7.7-4.3,4.4-9C433.1,344.4,436.1,346.6,439.9,346.3ZM414,375.9l2.9-6.2,6.5,3.6-3.8,5.8Zm-6.3,23.9-2.9,5.2-4.6-2.6,2.6-4.7Zm-20.2,22.6,6,3.4-3.1,6.6-6.8-3.8Zm-20.8,32.9c2-2.9,4.1-5.9,6-8.9l8.5,4.8c-3,2.3-4.8,5.7-4.2,10.9C374.1,457.5,370.9,454.9,366.7,455.3Zm77.9-88.1-4.9,7.5-7.1-3.9c1.4-2.7,2.7-5.4,4-8.1Zm-30.4,52.6-3.8,6.7-6.1-3.9c1.2-1.9,2.3-4,3.5-6Zm5.2-23.4c1-1.9,2.1-3.9,3.3-5.9l6.2,2.9-3.8,6.7Zm-31.3,52.2,4.7-7.6,7.4,4.2-4.1,8.6ZM442,383.4l8,3.8-4.6,8.3-7.4-4.8Zm-7,30-4.4,7.9-6.7-4.5,3.8-6.8Zm-18.9,34.5-7.7-5.1,4.5-7.3,8,3.9Zm31.5-45.4c2.2,3,5.5,4.5,10.5,4-4.7,2.9-6.9,6.2-6.8,10.2l-8.4-5.8Zm-19.9,35.2,4.8-8.6,9.3,4.4c-3.1,2-5.3,5.4-4.9,11.1C434.4,440.2,431.6,437.8,427.7,437.7Z" style="fill:#d2f7f5"/><path d="M476.4,362.4a9.2,9.2,0,0,0-10.8-.5c-4,2.5-5.4,6.2-4.7,10.8a3.6,3.6,0,0,0,.2,1c2.2,4.8,5.9,7.2,10.4,6.6a10,10,0,0,0,8.7-7.9C480.9,368.3,479.8,364.8,476.4,362.4Z" style="fill:#d2f7f5"/><path d="M366.5,303.8a10.1,10.1,0,0,0-7,12.1c1.3,5.4,6.3,8.3,12.1,7h.1c5.6-1.9,8.4-7.2,6.8-12.5A9.7,9.7,0,0,0,366.5,303.8Z" style="fill:#d2f7f5"/><path d="M394,299a9.9,9.9,0,1,0,3.6,13.2A9.7,9.7,0,0,0,394,299Z" style="fill:#d2f7f5"/><path d="M480.9,381.9a9.9,9.9,0,1,0,3.6,13.3A9.8,9.8,0,0,0,480.9,381.9Z" style="fill:#d2f7f5"/><path d="M354,310.5a9.8,9.8,0,0,0-13.4,4,9.7,9.7,0,1,0,13.4-4Z" style="fill:#d2f7f5"/><path d="M437.1,459.5a9.8,9.8,0,0,0-13.2,3.8,9.7,9.7,0,1,0,16.8,9.7A9.8,9.8,0,0,0,437.1,459.5Z" style="fill:#d2f7f5"/><path d="M310.3,388.1a9.9,9.9,0,0,0-13.2,3.8,9.7,9.7,0,1,0,16.8,9.7A9.9,9.9,0,0,0,310.3,388.1Z" style="fill:#d2f7f5"/><path d="M397.4,471.2a9.9,9.9,0,0,0-10,17.1,9.9,9.9,0,0,0,10-17.1Z" style="fill:#d2f7f5"/><path d="M439.2,307.4a9.9,9.9,0,1,0,3.5,13.5A9.8,9.8,0,0,0,439.2,307.4Z" style="fill:#d2f7f5"/><path d="M321.2,428.3a9.9,9.9,0,0,0-13.4,4,9.8,9.8,0,0,0,3.7,13.2,9.9,9.9,0,0,0,9.7-17.2Z" style="fill:#d2f7f5"/><path d="M315.7,408.2a9.9,9.9,0,1,0,3.7,13.4A9.7,9.7,0,0,0,315.7,408.2Z" style="fill:#d2f7f5"/><path d="M417.4,465.4a9.8,9.8,0,0,0-13.5,3.7,9.7,9.7,0,1,0,17,9.5A9.8,9.8,0,0,0,417.4,465.4Z" style="fill:#d2f7f5"/><path d="M470.1,341.8a9.9,9.9,0,1,0,3.5,13.3A9.7,9.7,0,0,0,470.1,341.8Z" style="fill:#d2f7f5"/><path d="M471.7,427.9a9.7,9.7,0,0,0-13.4,4,9.7,9.7,0,1,0,17,9.2A9.7,9.7,0,0,0,471.7,427.9Z" style="fill:#d2f7f5"/><path d="M319.6,342.3a9.9,9.9,0,1,0,3.4,13.3A9.8,9.8,0,0,0,319.6,342.3Z" style="fill:#d2f7f5"/><path d="M456.9,453.7a9.8,9.8,0,1,0,3.8,13.2C463.2,462.2,461.5,456.1,456.9,453.7Z" style="fill:#d2f7f5"/><path d="M413.8,293.2a9.8,9.8,0,1,0,3.5,13.4A9.8,9.8,0,0,0,413.8,293.2Z" style="fill:#d2f7f5"/><path d="M333.9,316.4a9.8,9.8,0,1,0,3.6,13.3A9.9,9.9,0,0,0,333.9,316.4Z" style="fill:#d2f7f5"/><path d="M304.9,368.2a9.9,9.9,0,0,0-13.2,3.9,9.6,9.6,0,1,0,13.2-3.9Z" style="fill:#d2f7f5"/><path d="M352,462.7a9.9,9.9,0,1,0,3.5,13.3A9.9,9.9,0,0,0,352,462.7Z" style="fill:#d2f7f5"/><path d="M486.3,402.1a10,10,0,0,0-13.3,3.7,9.6,9.6,0,1,0,13.3-3.7Z" style="fill:#d2f7f5"/><path d="M464.5,321.7a9.8,9.8,0,1,0,3.6,13.3A9.9,9.9,0,0,0,464.5,321.7Z" style="fill:#d2f7f5"/><path d="M327,448.8c-4.3-2.9-10.5-1.4-13.4,3.1a10,10,0,0,0,2.9,13.3c4.2,2.8,10.4,1.4,13.3-3.2A9.7,9.7,0,0,0,327,448.8Z" style="fill:#d2f7f5"/><path d="M377.4,477.1a9.7,9.7,0,1,0,3.2,13.4A9.8,9.8,0,0,0,377.4,477.1Z" style="fill:#d2f7f5"/><path d="M500.6,376.6a9.4,9.4,0,1,0,3.3,12.6A9.1,9.1,0,0,0,500.6,376.6Z" style="fill:#d2f7f5"/><path d="M442.4,480.1a9.3,9.3,0,1,0,3.3,12.6A9.1,9.1,0,0,0,442.4,480.1Z" style="fill:#d2f7f5"/><path d="M357.1,483.2a9.3,9.3,0,1,0,3.4,12.6A9.1,9.1,0,0,0,357.1,483.2Z" style="fill:#d2f7f5"/><path d="M331.8,468.9a9.4,9.4,0,1,0,3.3,12.7A9.2,9.2,0,0,0,331.8,468.9Z" style="fill:#d2f7f5"/><path d="M368.4,285.1a9.4,9.4,0,0,0-12.9,3.7,9.3,9.3,0,1,0,12.9-3.7Z" style="fill:#d2f7f5"/><path d="M314,322.7a9.4,9.4,0,1,0,3.2,12.7A9.3,9.3,0,0,0,314,322.7Z" style="fill:#d2f7f5"/><path d="M491.3,422.4a9.4,9.4,0,1,0,3.6,12.6A9.2,9.2,0,0,0,491.3,422.4Z" style="fill:#d2f7f5"/><path d="M433.6,287.7a9.5,9.5,0,1,0,3.3,13A9.3,9.3,0,0,0,433.6,287.7Z" style="fill:#d2f7f5"/><path d="M348.4,291a9.4,9.4,0,1,0,3.3,12.6A9,9,0,0,0,348.4,291Z" style="fill:#d2f7f5"/><path d="M459.1,302.1a9.5,9.5,0,0,0-9.6,16.3,9.1,9.1,0,0,0,12.8-3.6A9.2,9.2,0,0,0,459.1,302.1Z" style="fill:#d2f7f5"/><path d="M422.4,485.8a9.2,9.2,0,0,0-12.6,3.7,9.2,9.2,0,1,0,16,9A9.2,9.2,0,0,0,422.4,485.8Z" style="fill:#d2f7f5"/><path d="M495,356.3a9.5,9.5,0,0,0-9.1,16.6,9.5,9.5,0,0,0,9.1-16.6Z" style="fill:#d2f7f5"/><path d="M299.4,348.5a9.2,9.2,0,0,0-12.8,3.7,9.2,9.2,0,1,0,12.8-3.7Z" style="fill:#d2f7f5"/><path d="M489.7,336.4a9.4,9.4,0,1,0,3.4,12.6A9.1,9.1,0,0,0,489.7,336.4Z" style="fill:#d2f7f5"/><path d="M295.5,414.5a9.1,9.1,0,0,0-12.6,3.7,9.2,9.2,0,1,0,12.6-3.7Z" style="fill:#d2f7f5"/><path d="M388.2,279.3a9.4,9.4,0,1,0,3.4,12.7A9.1,9.1,0,0,0,388.2,279.3Z" style="fill:#d2f7f5"/><path d="M476.9,448.3a9.4,9.4,0,1,0,3.4,12.7A9.2,9.2,0,0,0,476.9,448.3Z" style="fill:#d2f7f5"/><path d="M289.9,394.4a9.3,9.3,0,1,0,3.6,12.6A9,9,0,0,0,289.9,394.4Z" style="fill:#d2f7f5"/><path d="M402.4,491.6a9.4,9.4,0,1,0,3.4,12.7A9.2,9.2,0,0,0,402.4,491.6Z" style="fill:#d2f7f5"/><path d="M300.8,434.5a9.3,9.3,0,1,0,3.5,12.7A9.1,9.1,0,0,0,300.8,434.5Z" style="fill:#d2f7f5"/><path d="M408.2,273.7a9.1,9.1,0,0,0-12.5,3.3,9.2,9.2,0,1,0,15.7,9.4A9.2,9.2,0,0,0,408.2,273.7Z" style="fill:#d2f7f5"/><path d="M328.2,296.8a9.2,9.2,0,0,0-9.1,16.1,9.2,9.2,0,0,0,9.1-16.1Z" style="fill:#d2f7f5"/><path d="M506,396.8a9.3,9.3,0,1,0,3.2,12.5A9.1,9.1,0,0,0,506,396.8Z" style="fill:#d2f7f5"/><path d="M484.3,316.4a9.3,9.3,0,1,0,3.2,12.8A9.4,9.4,0,0,0,484.3,316.4Z" style="fill:#d2f7f5"/><path d="M382.3,497.5a9.2,9.2,0,1,0,3.5,12.5A9.3,9.3,0,0,0,382.3,497.5Z" style="fill:#d2f7f5"/><path d="M284.7,374.5a9.3,9.3,0,0,0-12.5,3.5,9.1,9.1,0,1,0,12.5-3.5Z" style="fill:#d2f7f5"/><path d="M462.2,474.3a9.2,9.2,0,0,0-12.4,3.6,9.1,9.1,0,1,0,15.9,8.8A9.2,9.2,0,0,0,462.2,474.3Z" style="fill:#d2f7f5"/><path d="M306.1,454.7a9.2,9.2,0,0,0-12.2,3.6,9,9,0,1,0,15.8,8.8A9.1,9.1,0,0,0,306.1,454.7Z" style="fill:#d2f7f5"/><path d="M294,328.8a9.1,9.1,0,0,0-9.5,15.6c4.1,2.6,9.9,1,12.5-3.3A9.2,9.2,0,0,0,294,328.8Z" style="fill:#d2f7f5"/><path d="M496.7,442.7a9.2,9.2,0,1,0,3.4,12.3A9.2,9.2,0,0,0,496.7,442.7Z" style="fill:#d2f7f5"/><path d="M453.6,282.3a9.2,9.2,0,0,0-12.5,3.3,9,9,0,1,0,15.5,9.2A9.2,9.2,0,0,0,453.6,282.3Z" style="fill:#d2f7f5"/><path d="M478.8,296.6a9,9,0,0,0-12.2,3.3,9.1,9.1,0,0,0,3.2,12.5,9.2,9.2,0,0,0,12.2-3.5A9.1,9.1,0,0,0,478.8,296.6Z" style="fill:#d2f7f5"/><path d="M337.1,489.2a9.1,9.1,0,0,0-9,15.8,9.1,9.1,0,0,0,9-15.8Z" style="fill:#d2f7f5"/><path d="M279,354.5a9,9,0,1,0,3.5,12.2A9.1,9.1,0,0,0,279,354.5Z" style="fill:#d2f7f5"/><path d="M482,468.7a9,9,0,1,0,3.4,12.2A9,9,0,0,0,482,468.7Z" style="fill:#d2f7f5"/><path d="M428.1,268a9.1,9.1,0,1,0,3.2,12.3A9.3,9.3,0,0,0,428.1,268Z" style="fill:#d2f7f5"/><path d="M308.1,302.8a8.9,8.9,0,0,0-12.1,3.6,8.9,8.9,0,1,0,15.6,8.6C313.9,310.6,312.4,305,308.1,302.8Z" style="fill:#d2f7f5"/><path d="M511.1,416.9a9.1,9.1,0,0,0-8.7,15.9,9.1,9.1,0,0,0,8.7-15.9Z" style="fill:#d2f7f5"/><path d="M514.9,351a9,9,0,1,0,3.2,12.3A9,9,0,0,0,514.9,351Z" style="fill:#d2f7f5"/><path d="M362.5,265.4a8.9,8.9,0,0,0-8.7,15.6,8.9,8.9,0,0,0,8.7-15.6Z" style="fill:#d2f7f5"/><path d="M520.1,371.1a8.9,8.9,0,1,0,3.3,12.1A8.7,8.7,0,0,0,520.1,371.1Z" style="fill:#d2f7f5"/><path d="M362.3,503.6a8.9,8.9,0,1,0,3.2,12.2A8.8,8.8,0,0,0,362.3,503.6Z" style="fill:#d2f7f5"/><path d="M311.7,475.2a8.7,8.7,0,0,0-12,3.1,8.8,8.8,0,1,0,15,9.1A8.7,8.7,0,0,0,311.7,475.2Z" style="fill:#d2f7f5"/><path d="M382.6,259.7a8.7,8.7,0,0,0-11.9,3.3,8.6,8.6,0,0,0,3.1,12.1,8.7,8.7,0,0,0,11.9-3.2A8.8,8.8,0,0,0,382.6,259.7Z" style="fill:#d2f7f5"/><path d="M447.7,500.7a8.5,8.5,0,0,0-11.9,3.1,8.6,8.6,0,0,0,2.8,12,8.8,8.8,0,0,0,9.1-15.1Z" style="fill:#d2f7f5"/><path d="M427.8,506.5a8.8,8.8,0,1,0,2.8,12A8.6,8.6,0,0,0,427.8,506.5Z" style="fill:#d2f7f5"/><path d="M342.6,271.3a8.9,8.9,0,1,0,3.2,12.1A8.7,8.7,0,0,0,342.6,271.3Z" style="fill:#d2f7f5"/><path d="M275.7,421a8.8,8.8,0,1,0,2.7,12C280.9,428.7,279.8,423.5,275.7,421Z" style="fill:#d2f7f5"/><path d="M509.4,331a8.9,8.9,0,0,0-8.7,15.5,8.6,8.6,0,0,0,11.8-3.3A8.7,8.7,0,0,0,509.4,331Z" style="fill:#d2f7f5"/><path d="M504,311.1a8.8,8.8,0,1,0,3.2,11.7A8.7,8.7,0,0,0,504,311.1Z" style="fill:#d2f7f5"/><path d="M269.9,400.8a8.5,8.5,0,0,0-11.8,3.3,8.6,8.6,0,0,0,3.1,11.9,8.5,8.5,0,0,0,11.8-3.4A8.4,8.4,0,0,0,269.9,400.8Z" style="fill:#d2f7f5"/><path d="M402.5,254.1a8.4,8.4,0,0,0-11.8,3.3,8.6,8.6,0,1,0,15,8.3A8.5,8.5,0,0,0,402.5,254.1Z" style="fill:#d2f7f5"/><path d="M407.5,512.2a8.8,8.8,0,1,0,3.3,11.8A8.6,8.6,0,0,0,407.5,512.2Z" style="fill:#d2f7f5"/><path d="M280.8,440.9a8.7,8.7,0,0,0-11.9,3.3,8.6,8.6,0,1,0,11.9-3.3Z" style="fill:#d2f7f5"/><path d="M473.1,276.8a8.4,8.4,0,0,0-11.7,3.4,8.5,8.5,0,1,0,14.8,8.4A8.5,8.5,0,0,0,473.1,276.8Z" style="fill:#d2f7f5"/><path d="M322.7,277.3a8.7,8.7,0,1,0,3.1,11.7A8.6,8.6,0,0,0,322.7,277.3Z" style="fill:#d2f7f5"/><path d="M525.5,391.3a8.6,8.6,0,0,0-11.6,3.4,8.5,8.5,0,1,0,14.8,8.4A8.5,8.5,0,0,0,525.5,391.3Z" style="fill:#d2f7f5"/><path d="M447.7,262.5a8.7,8.7,0,0,0-8.6,15.1,8.4,8.4,0,0,0,11.8-3.3A8.5,8.5,0,0,0,447.7,262.5Z" style="fill:#d2f7f5"/><path d="M288.2,309a8.7,8.7,0,1,0,3,11.8A8.6,8.6,0,0,0,288.2,309Z" style="fill:#d2f7f5"/><path d="M516.5,437.4a8.7,8.7,0,1,0,3.1,11.7A8.6,8.6,0,0,0,516.5,437.4Z" style="fill:#d2f7f5"/><path d="M502,463.3a8.5,8.5,0,0,0-11.7,3.1A8.5,8.5,0,1,0,505,475,8.5,8.5,0,0,0,502,463.3Z" style="fill:#d2f7f5"/><path d="M273.7,334.9A8.7,8.7,0,0,0,262,338a8.5,8.5,0,1,0,14.6,8.7A8.7,8.7,0,0,0,273.7,334.9Z" style="fill:#d2f7f5"/><path d="M342.3,509.7a8.6,8.6,0,0,0-8.6,15,8.6,8.6,0,0,0,8.6-15Z" style="fill:#d2f7f5"/><path d="M316.7,495.3a8.6,8.6,0,1,0,3.4,11.7A8.6,8.6,0,0,0,316.7,495.3Z" style="fill:#d2f7f5"/><path d="M387.8,518.2a8.7,8.7,0,1,0,2.8,11.8A8.7,8.7,0,0,0,387.8,518.2Z" style="fill:#d2f7f5"/><path d="M286.1,461.1a8.6,8.6,0,1,0,3.1,11.6A8.5,8.5,0,0,0,286.1,461.1Z" style="fill:#d2f7f5"/><path d="M264.4,380.7a8.7,8.7,0,0,0-11.6,3.4,8.5,8.5,0,1,0,14.8,8.3A8.6,8.6,0,0,0,264.4,380.7Z" style="fill:#d2f7f5"/><path d="M467.5,495a8.5,8.5,0,0,0-11.8,3.3,8.5,8.5,0,1,0,14.8,8.4A8.5,8.5,0,0,0,467.5,495Z" style="fill:#d2f7f5"/><path d="M487.3,489.2a8.8,8.8,0,0,0-11.6,3.4,8.4,8.4,0,1,0,14.7,8A8.5,8.5,0,0,0,487.3,489.2Z" style="fill:#d2f7f5"/><path d="M530.8,411.5a8.6,8.6,0,1,0,3.2,11.7A8.6,8.6,0,0,0,530.8,411.5Z" style="fill:#d2f7f5"/><path d="M422.4,248.4a8.6,8.6,0,0,0-8.7,14.8,8.6,8.6,0,0,0,11.7-3.1A8.7,8.7,0,0,0,422.4,248.4Z" style="fill:#d2f7f5"/><path d="M302.9,283.4a8.6,8.6,0,0,0-9.1,14.5,8.6,8.6,0,0,0,9.1-14.5Z" style="fill:#d2f7f5"/><path d="M498.2,291a8.6,8.6,0,0,0-11.3,3.5,8.5,8.5,0,0,0,3.1,11.6,8.5,8.5,0,0,0,11.6-3.4A8.6,8.6,0,0,0,498.2,291Z" style="fill:#d2f7f5"/><path d="M367.4,524a8.5,8.5,0,0,0-8.1,14.9,8.5,8.5,0,0,0,8.1-14.9Z" style="fill:#d2f7f5"/><path d="M291.4,481.3a8.5,8.5,0,0,0-8.3,14.8,8.6,8.6,0,0,0,11.4-3.4A8.5,8.5,0,0,0,291.4,481.3Z" style="fill:#d2f7f5"/><path d="M258.9,360.8a8.6,8.6,0,0,0-11.4,3.3,8.5,8.5,0,0,0,3,11.5,8.5,8.5,0,0,0,8.4-14.8Z" style="fill:#d2f7f5"/><path d="M376.9,240.1a8.3,8.3,0,0,0-8.2,14.5,8.3,8.3,0,0,0,8.2-14.5Z" style="fill:#d2f7f5"/><path d="M529.2,325.8a8.3,8.3,0,0,0-8.4,14.4,8.3,8.3,0,0,0,8.4-14.4Z" style="fill:#d2f7f5"/><path d="M357,245.9a8.4,8.4,0,1,0,2.9,11.4A8.3,8.3,0,0,0,357,245.9Z" style="fill:#d2f7f5"/><path d="M467.5,257a8.3,8.3,0,0,0-11.2,3.1,8.3,8.3,0,1,0,14.3,8.3A8.4,8.4,0,0,0,467.5,257Z" style="fill:#d2f7f5"/><path d="M337.1,251.8A8.4,8.4,0,1,0,340,263,8.3,8.3,0,0,0,337.1,251.8Z" style="fill:#d2f7f5"/><path d="M540,365.9a8.2,8.2,0,0,0-11.3,3.2,8.3,8.3,0,0,0,2.9,11.2,8.3,8.3,0,0,0,8.4-14.4Z" style="fill:#d2f7f5"/><path d="M534.4,345.7a8.3,8.3,0,1,0,3.2,11.3A8.3,8.3,0,0,0,534.4,345.7Z" style="fill:#d2f7f5"/><path d="M521.8,457.9a8.1,8.1,0,0,0-11.2,2.9,8.1,8.1,0,1,0,14,8.2A8.1,8.1,0,0,0,521.8,457.9Z" style="fill:#d2f7f5"/><path d="M506.9,483.7a7.9,7.9,0,0,0-10.8,3.1c-2.3,4.1-1.1,8.9,2.9,11.1a8.1,8.1,0,0,0,7.9-14.2Z" style="fill:#d2f7f5"/><path d="M442.1,242.9a8.2,8.2,0,1,0,3,11.1A8.1,8.1,0,0,0,442.1,242.9Z" style="fill:#d2f7f5"/><path d="M493,271.5a8.2,8.2,0,1,0,2.7,11.2A8,8,0,0,0,493,271.5Z" style="fill:#d2f7f5"/><path d="M523.7,305.8a8.2,8.2,0,0,0-8.2,14.2,7.9,7.9,0,0,0,11-3.1A8,8,0,0,0,523.7,305.8Z" style="fill:#d2f7f5"/><path d="M432.7,527a8.2,8.2,0,1,0,2.9,11.1A8,8,0,0,0,432.7,527Z" style="fill:#d2f7f5"/><path d="M255.2,427.2a8.2,8.2,0,1,0,2.8,11.1A8.1,8.1,0,0,0,255.2,427.2Z" style="fill:#d2f7f5"/><path d="M321.9,515.8a8.2,8.2,0,1,0,3.1,11A8,8,0,0,0,321.9,515.8Z" style="fill:#d2f7f5"/><path d="M412.8,532.9a8.2,8.2,0,1,0,2.8,11.1A8,8,0,0,0,412.8,532.9Z" style="fill:#d2f7f5"/><path d="M536,431.9a8,8,0,0,0-10.8,3.2c-2.3,4.1-1.1,8.9,2.9,11.1a8.2,8.2,0,0,0,7.9-14.3Z" style="fill:#d2f7f5"/><path d="M260.3,447.1a8.2,8.2,0,0,0-7.7,14.4,7.9,7.9,0,0,0,10.9-3.4A8,8,0,0,0,260.3,447.1Z" style="fill:#d2f7f5"/><path d="M249.6,407a8.2,8.2,0,1,0,3,11.1A8,8,0,0,0,249.6,407Z" style="fill:#d2f7f5"/><path d="M396.6,234.4a8.2,8.2,0,0,0-7.9,14.3,8,8,0,0,0,11-3.3A7.9,7.9,0,0,0,396.6,234.4Z" style="fill:#d2f7f5"/><path d="M268,315.2a8.2,8.2,0,1,0,2.9,11.1A8.1,8.1,0,0,0,268,315.2Z" style="fill:#d2f7f5"/><path d="M452.5,521.2a8.2,8.2,0,0,0-7.9,14.3,8.2,8.2,0,0,0,7.9-14.3Z" style="fill:#d2f7f5"/><path d="M316.8,257.6a8,8,0,0,0-10.8,3.1c-2.3,4.1-1.1,8.9,2.8,11.1a8.1,8.1,0,1,0,8-14.2Z" style="fill:#d2f7f5"/><path d="M545.3,386.1a8.2,8.2,0,1,0,2.9,10.9A7.9,7.9,0,0,0,545.3,386.1Z" style="fill:#d2f7f5"/><path d="M282.4,289.3a8.2,8.2,0,0,0-8.1,14.2,7.8,7.8,0,0,0,11-3.1A7.9,7.9,0,0,0,282.4,289.3Z" style="fill:#d2f7f5"/><path d="M253.3,341.1a8.1,8.1,0,0,0-8.1,14.1,7.9,7.9,0,0,0,11-3C258.5,348.1,257.3,343.3,253.3,341.1Z" style="fill:#d2f7f5"/><path d="M296.7,501.7a8.1,8.1,0,0,0-8.1,14,7.8,7.8,0,0,0,10.8-2.9A7.9,7.9,0,0,0,296.7,501.7Z" style="fill:#d2f7f5"/><path d="M392.8,538.8a7.9,7.9,0,0,0-10.9,2.8,8,8,0,1,0,10.9-2.8Z" style="fill:#d2f7f5"/><path d="M265.8,467.3a8.1,8.1,0,1,0,3,10.8A8,8,0,0,0,265.8,467.3Z" style="fill:#d2f7f5"/><path d="M244.2,387.1a7.9,7.9,0,0,0-10.8,2.9,7.9,7.9,0,1,0,13.6,8.2A7.9,7.9,0,0,0,244.2,387.1Z" style="fill:#d2f7f5"/><path d="M472.7,515.6a8.1,8.1,0,0,0-8.3,13.9,8.1,8.1,0,0,0,8.3-13.9Z" style="fill:#d2f7f5"/><path d="M347.5,530.3a8.1,8.1,0,1,0,2.8,10.9A7.9,7.9,0,0,0,347.5,530.3Z" style="fill:#d2f7f5"/><path d="M518,285.8a8,8,0,1,0,3,10.8A7.8,7.8,0,0,0,518,285.8Z" style="fill:#d2f7f5"/><path d="M296.7,263.5a8,8,0,0,0-7.6,14.1,7.9,7.9,0,0,0,10.7-3.3A8,8,0,0,0,296.7,263.5Z" style="fill:#d2f7f5"/><path d="M550.6,406.3a8,8,0,1,0,2.8,10.9A8,8,0,0,0,550.6,406.3Z" style="fill:#d2f7f5"/><path d="M416.9,228.9a8.1,8.1,0,0,0-8.3,13.8,8.1,8.1,0,0,0,8.3-13.8Z" style="fill:#d2f7f5"/><path d="M492.5,509.9a8,8,0,0,0-8.1,13.7,8,8,0,0,0,8.1-13.7Z" style="fill:#d2f7f5"/><path d="M372.8,544.7a8.1,8.1,0,0,0-10.9,3.1,7.8,7.8,0,1,0,10.9-3.1Z" style="fill:#d2f7f5"/><path d="M271.2,487.6a7.9,7.9,0,0,0-7.7,13.8,7.9,7.9,0,0,0,7.7-13.8Z" style="fill:#d2f7f5"/><path d="M461.9,237.3a7.9,7.9,0,1,0,2.9,10.7A8,8,0,0,0,461.9,237.3Z" style="fill:#d2f7f5"/><path d="M487.3,251.6a8,8,0,0,0-10.7,3,7.8,7.8,0,1,0,10.7-3Z" style="fill:#d2f7f5"/><path d="M238.9,367.2a8,8,0,1,0,2.7,10.7A8,8,0,0,0,238.9,367.2Z" style="fill:#d2f7f5"/><path d="M262.2,295.3a7.9,7.9,0,1,0,3,10.6A8,8,0,0,0,262.2,295.3Z" style="fill:#d2f7f5"/><path d="M247.7,321.2a7.9,7.9,0,0,0-7.6,13.8,7.9,7.9,0,0,0,7.6-13.8Z" style="fill:#d2f7f5"/><path d="M526.7,478.1a7.9,7.9,0,0,0-7.5,13.9,8.1,8.1,0,0,0,10.6-3.3A8,8,0,0,0,526.7,478.1Z" style="fill:#d2f7f5"/><path d="M541.3,452.3a7.9,7.9,0,0,0-10.5,3.1,7.7,7.7,0,1,0,13.5,7.5A7.9,7.9,0,0,0,541.3,452.3Z" style="fill:#d2f7f5"/><path d="M351.3,226.4a7.8,7.8,0,0,0-7.8,13.4,7.8,7.8,0,0,0,7.8-13.4Z" style="fill:#d2f7f5"/><path d="M554.5,340.7a7.8,7.8,0,1,0,2.2,10.8A7.7,7.7,0,0,0,554.5,340.7Z" style="fill:#d2f7f5"/><path d="M548.9,320.5a7.8,7.8,0,0,0-7.8,13.4,7.8,7.8,0,0,0,7.8-13.4Z" style="fill:#d2f7f5"/><path d="M327.2,536.3a7.7,7.7,0,0,0-7.6,13.5,7.8,7.8,0,0,0,10.4-2.9A7.7,7.7,0,0,0,327.2,536.3Z" style="fill:#d2f7f5"/><path d="M331.4,232.3a7.7,7.7,0,1,0,2.6,10.4A7.6,7.6,0,0,0,331.4,232.3Z" style="fill:#d2f7f5"/><path d="M512.6,266.1a7.5,7.5,0,0,0-10.3,2.8,7.5,7.5,0,1,0,10.3-2.8Z" style="fill:#d2f7f5"/><path d="M436.4,223.2a7.6,7.6,0,0,0-10.3,3,7.6,7.6,0,1,0,10.3-3Z" style="fill:#d2f7f5"/><path d="M559.6,360.6a7.7,7.7,0,1,0,2.7,10.4A7.6,7.6,0,0,0,559.6,360.6Z" style="fill:#d2f7f5"/><path d="M301.8,521.9a7.9,7.9,0,0,0-10.4,3.1,7.8,7.8,0,0,0,3,10.6,7.7,7.7,0,0,0,10.3-3.1A7.8,7.8,0,0,0,301.8,521.9Z" style="fill:#d2f7f5"/><path d="M371.1,220.6a7.5,7.5,0,0,0-10.3,3,7.5,7.5,0,1,0,10.3-3Z" style="fill:#d2f7f5"/><path d="M437.9,547.6a7.5,7.5,0,0,0-10.3,2.8,7.5,7.5,0,1,0,12.9,7.6A7.6,7.6,0,0,0,437.9,547.6Z" style="fill:#d2f7f5"/><path d="M276.7,269.7a7.7,7.7,0,0,0-7.6,13.3,7.7,7.7,0,0,0,7.6-13.3Z" style="fill:#d2f7f5"/><path d="M233.1,347.4a7.6,7.6,0,0,0-7.5,13.2,7.5,7.5,0,0,0,10.3-2.9A7.4,7.4,0,0,0,233.1,347.4Z" style="fill:#d2f7f5"/><path d="M555.8,426.6a7.6,7.6,0,0,0-10.3,3,7.5,7.5,0,1,0,13.2,7.3A7.6,7.6,0,0,0,555.8,426.6Z" style="fill:#d2f7f5"/><path d="M512.1,504.3a7.3,7.3,0,0,0-10.2,3,7.5,7.5,0,1,0,10.2-3Z" style="fill:#d2f7f5"/><path d="M234.8,433.4a7.6,7.6,0,0,0-7.4,13.3,7.3,7.3,0,0,0,10.2-3A7.4,7.4,0,0,0,234.8,433.4Z" style="fill:#d2f7f5"/><path d="M391.1,214.9a7.6,7.6,0,0,0-7.7,13.1,7.3,7.3,0,0,0,10.3-2.7A7.5,7.5,0,0,0,391.1,214.9Z" style="fill:#d2f7f5"/><path d="M397.8,559.3a7.4,7.4,0,1,0,2.7,10.1A7.3,7.3,0,0,0,397.8,559.3Z" style="fill:#d2f7f5"/><path d="M223.9,393.4a7.5,7.5,0,1,0,2.8,10A7.3,7.3,0,0,0,223.9,393.4Z" style="fill:#d2f7f5"/><path d="M457.7,541.8a7.6,7.6,0,0,0-7.6,13.1,7.4,7.4,0,0,0,10.3-2.8A7.3,7.3,0,0,0,457.7,541.8Z" style="fill:#d2f7f5"/><path d="M311.2,238.2a7.3,7.3,0,0,0-10,2.6,7.5,7.5,0,0,0,2.4,10.4,7.5,7.5,0,0,0,7.6-13Z" style="fill:#d2f7f5"/><path d="M477.8,536.2a7.5,7.5,0,1,0,2.5,10.1A7.3,7.3,0,0,0,477.8,536.2Z" style="fill:#d2f7f5"/><path d="M564.7,380.7a7.5,7.5,0,1,0,3,10.2A7.4,7.4,0,0,0,564.7,380.7Z" style="fill:#d2f7f5"/><path d="M229.5,413.5a7.3,7.3,0,0,0-10.3,2.8,7.4,7.4,0,1,0,13,7.2A7.3,7.3,0,0,0,229.5,413.5Z" style="fill:#d2f7f5"/><path d="M417.8,553.4a7.3,7.3,0,0,0-10,2.7,7.4,7.4,0,0,0,2.4,10.4,7.6,7.6,0,0,0,7.6-13.1Z" style="fill:#d2f7f5"/><path d="M352.5,550.8a7.5,7.5,0,1,0,2.8,10A7.3,7.3,0,0,0,352.5,550.8Z" style="fill:#d2f7f5"/><path d="M240.2,453.5a7.4,7.4,0,0,0-10.2,3.1,7.4,7.4,0,1,0,12.9,7.2A7.3,7.3,0,0,0,240.2,453.5Z" style="fill:#d2f7f5"/><path d="M543.5,300.7a7.5,7.5,0,1,0,2.4,10.1A7.2,7.2,0,0,0,543.5,300.7Z" style="fill:#d2f7f5"/><path d="M481.7,232a7.3,7.3,0,0,0-10.1,2.8,7.3,7.3,0,1,0,12.7,7.3A7.3,7.3,0,0,0,481.7,232Z" style="fill:#d2f7f5"/><path d="M276.4,508a7.5,7.5,0,0,0-7.6,13,7.4,7.4,0,0,0,10.3-2.8A7.3,7.3,0,0,0,276.4,508Z" style="fill:#d2f7f5"/><path d="M245.6,473.7a7.5,7.5,0,0,0-7.4,13,7.5,7.5,0,0,0,7.4-13Z" style="fill:#d2f7f5"/><path d="M307.1,542.5a7.4,7.4,0,0,0-10,2.9,7.5,7.5,0,0,0,2.8,9.9,7.3,7.3,0,0,0,7.2-12.8Z" style="fill:#d2f7f5"/><path d="M537.8,280.6a7.4,7.4,0,0,0-7.5,12.8,7.5,7.5,0,0,0,10.1-2.7A7.4,7.4,0,0,0,537.8,280.6Z" style="fill:#d2f7f5"/><path d="M411,209.3a7.4,7.4,0,1,0,2.5,10.1A7.3,7.3,0,0,0,411,209.3Z" style="fill:#d2f7f5"/><path d="M507.1,246.3a7.4,7.4,0,1,0,2.4,10.2A7.5,7.5,0,0,0,507.1,246.3Z" style="fill:#d2f7f5"/><path d="M561.2,447a7.4,7.4,0,1,0,2.4,10.2A7.5,7.5,0,0,0,561.2,447Z" style="fill:#d2f7f5"/><path d="M242.4,301.7a7.4,7.4,0,1,0,2.4,10A7.5,7.5,0,0,0,242.4,301.7Z" style="fill:#d2f7f5"/><path d="M546.5,472.7a7.4,7.4,0,1,0,2.8,10.1A7.5,7.5,0,0,0,546.5,472.7Z" style="fill:#d2f7f5"/><path d="M497.5,530.4a7.3,7.3,0,0,0-7.2,12.8,7.4,7.4,0,0,0,9.8-2.7A7.3,7.3,0,0,0,497.5,530.4Z" style="fill:#d2f7f5"/><path d="M456.4,217.8a7.4,7.4,0,1,0,2.5,10A7.6,7.6,0,0,0,456.4,217.8Z" style="fill:#d2f7f5"/><path d="M218.5,373.5a7.4,7.4,0,0,0-10,2.9,7.2,7.2,0,1,0,10-2.9Z" style="fill:#d2f7f5"/><path d="M570.2,401a7.4,7.4,0,0,0-10,3,7.3,7.3,0,1,0,10-3Z" style="fill:#d2f7f5"/><path d="M291.2,244.1a7.4,7.4,0,0,0-7.4,12.8,7.4,7.4,0,0,0,7.4-12.8Z" style="fill:#d2f7f5"/><path d="M256.8,275.9a7.3,7.3,0,0,0-10,2.7,7.2,7.2,0,1,0,10-2.7Z" style="fill:#d2f7f5"/><path d="M532,498.7a7.4,7.4,0,0,0-9.8,2.8,7.2,7.2,0,1,0,9.8-2.8Z" style="fill:#d2f7f5"/><path d="M227.8,327.7a7.4,7.4,0,0,0-9.9,2.4,7.3,7.3,0,0,0,2.3,10.1,7.4,7.4,0,0,0,9.9-2.5A7.5,7.5,0,0,0,227.8,327.7Z" style="fill:#d2f7f5"/><path d="M377.8,565.3c-3.2-2-7.8-.7-9.8,2.6a7.4,7.4,0,0,0,2.6,10.1,7.4,7.4,0,0,0,9.8-2.9A7.3,7.3,0,0,0,377.8,565.3Z" style="fill:#d2f7f5"/><path d="M251,493.9a7.3,7.3,0,0,0-7.2,12.8,7.3,7.3,0,0,0,7.2-12.8Z" style="fill:#d2f7f5"/><path d="M332.4,556.8a7.3,7.3,0,0,0-9.6,2.6,7.4,7.4,0,0,0,2.3,10,7.5,7.5,0,0,0,9.9-2.7A7.3,7.3,0,0,0,332.4,556.8Z" style="fill:#d2f7f5"/><path d="M281.7,528.3a7.3,7.3,0,1,0,2.7,9.6A7.3,7.3,0,0,0,281.7,528.3Z" style="fill:#d2f7f5"/><path d="M532.3,260.8a7.1,7.1,0,1,0,2.5,9.6A7.1,7.1,0,0,0,532.3,260.8Z" style="fill:#d2f7f5"/><path d="M430.7,203.7a7.1,7.1,0,1,0,2.7,9.5A7.1,7.1,0,0,0,430.7,203.7Z" style="fill:#d2f7f5"/><path d="M575.4,421.3a7.1,7.1,0,0,0-6.9,12.3,7.1,7.1,0,0,0,6.9-12.3Z" style="fill:#d2f7f5"/><path d="M517.2,524.8a7.1,7.1,0,1,0,2.7,9.4A6.8,6.8,0,0,0,517.2,524.8Z" style="fill:#d2f7f5"/><path d="M573.7,335.2a7,7,0,0,0-9.4,2.8,6.9,6.9,0,1,0,12.1,6.7A6.9,6.9,0,0,0,573.7,335.2Z" style="fill:#d2f7f5"/><path d="M568.4,315.3a6.9,6.9,0,0,0-9.5,2.6,6.9,6.9,0,1,0,12,6.9A7,7,0,0,0,568.4,315.3Z" style="fill:#d2f7f5"/><path d="M365.5,201.2a7,7,0,0,0-7.1,12.1,7,7,0,0,0,9.5-2.6A6.9,6.9,0,0,0,365.5,201.2Z" style="fill:#d2f7f5"/><path d="M579.1,355.4a7,7,0,1,0,2.6,9.4A6.7,6.7,0,0,0,579.1,355.4Z" style="fill:#d2f7f5"/><path d="M345.6,206.9a7.1,7.1,0,1,0,2.4,9.6A7,7,0,0,0,345.6,206.9Z" style="fill:#d2f7f5"/><path d="M271.1,250.2a7.1,7.1,0,0,0-6.9,12.3,6.9,6.9,0,0,0,9.4-2.8A7,7,0,0,0,271.1,250.2Z" style="fill:#d2f7f5"/><path d="M325.4,212.8a6.6,6.6,0,0,0-9.2,2.5,6.8,6.8,0,1,0,9.2-2.5Z" style="fill:#d2f7f5"/><path d="M212.8,353.7a7,7,0,0,0-6.9,12.1,7,7,0,0,0,6.9-12.1Z" style="fill:#d2f7f5"/><path d="M422.8,574a6.9,6.9,0,0,0-6.5,12.2,6.9,6.9,0,0,0,6.5-12.2Z" style="fill:#d2f7f5"/><path d="M221.9,307.9a6.7,6.7,0,0,0-9.2,2.7,6.6,6.6,0,0,0,2.5,9.2,6.7,6.7,0,0,0,9.2-2.7A6.6,6.6,0,0,0,221.9,307.9Z" style="fill:#d2f7f5"/><path d="M551.8,493.4a6.8,6.8,0,1,0,2.3,9.3A6.6,6.6,0,0,0,551.8,493.4Z" style="fill:#d2f7f5"/><path d="M566.1,467.4a6.7,6.7,0,0,0-9.1,2.9,6.6,6.6,0,0,0,2.6,9.1,6.8,6.8,0,0,0,6.5-12Z" style="fill:#d2f7f5"/><path d="M236.4,282a6.8,6.8,0,1,0,2.5,9.3A6.8,6.8,0,0,0,236.4,282Z" style="fill:#d2f7f5"/><path d="M219.9,459.9a6.9,6.9,0,1,0,2.6,9.2A6.7,6.7,0,0,0,219.9,459.9Z" style="fill:#d2f7f5"/><path d="M501.4,226.7a6.9,6.9,0,0,0-7.1,11.8,6.8,6.8,0,0,0,9.5-2.5A6.7,6.7,0,0,0,501.4,226.7Z" style="fill:#d2f7f5"/><path d="M385.6,195.7a6.6,6.6,0,0,0-9.3,2c-2.1,3.3-1.4,7.4,1.7,9.4a6.7,6.7,0,0,0,9.6-2C389.6,201.7,388.8,197.7,385.6,195.7Z" style="fill:#d2f7f5"/><path d="M305.6,218.8a6.8,6.8,0,0,0-6.9,11.8,6.8,6.8,0,0,0,6.9-11.8Z" style="fill:#d2f7f5"/><path d="M584.5,375.6a6.8,6.8,0,0,0-6.6,12,6.9,6.9,0,0,0,6.6-12Z" style="fill:#d2f7f5"/><path d="M463,562.6a6.9,6.9,0,1,0,2.2,9.3A6.6,6.6,0,0,0,463,562.6Z" style="fill:#d2f7f5"/><path d="M256.2,514.4a6.5,6.5,0,0,0-9.2,2.4,6.8,6.8,0,1,0,9.2-2.4Z" style="fill:#d2f7f5"/><path d="M443.1,568.4a6.9,6.9,0,1,0,2.2,9.3A6.7,6.7,0,0,0,443.1,568.4Z" style="fill:#d2f7f5"/><path d="M214.6,439.9a6.9,6.9,0,0,0-7,11.9,6.6,6.6,0,0,0,9.4-2.6A6.7,6.7,0,0,0,214.6,439.9Z" style="fill:#d2f7f5"/><path d="M209.3,419.9a6.9,6.9,0,0,0-7,11.9,6.6,6.6,0,0,0,9.2-2.6A6.7,6.7,0,0,0,209.3,419.9Z" style="fill:#d2f7f5"/><path d="M562.9,295.3a6.8,6.8,0,0,0-9.4,2.8,6.8,6.8,0,1,0,11.9,6.5A6.7,6.7,0,0,0,562.9,295.3Z" style="fill:#d2f7f5"/><path d="M475.9,212.3a6.9,6.9,0,0,0-6.8,12,6.6,6.6,0,0,0,9.4-2.8A6.8,6.8,0,0,0,475.9,212.3Z" style="fill:#d2f7f5"/><path d="M357.7,571.4a6.7,6.7,0,0,0-9.4,2.7,6.8,6.8,0,0,0,2.4,9.3,6.9,6.9,0,0,0,7-12Z" style="fill:#d2f7f5"/><path d="M402.7,579.9a6.8,6.8,0,1,0,2.6,9.2A6.6,6.6,0,0,0,402.7,579.9Z" style="fill:#d2f7f5"/><path d="M225.3,480.1a6.8,6.8,0,1,0,2.4,9.3A6.7,6.7,0,0,0,225.3,480.1Z" style="fill:#d2f7f5"/><path d="M450.7,198.3a6.8,6.8,0,0,0-7,11.6,6.8,6.8,0,0,0,7-11.6Z" style="fill:#d2f7f5"/><path d="M526.7,241.1a6.7,6.7,0,0,0-6.9,11.6,6.7,6.7,0,0,0,6.9-11.6Z" style="fill:#d2f7f5"/><path d="M482.5,556.6a6.8,6.8,0,1,0,2.7,9.2A6.8,6.8,0,0,0,482.5,556.6Z" style="fill:#d2f7f5"/><path d="M286.7,548.7a6.8,6.8,0,1,0,2.6,9.2A6.6,6.6,0,0,0,286.7,548.7Z" style="fill:#d2f7f5"/><path d="M203.6,399.8a6.8,6.8,0,0,0-6.7,11.8,6.7,6.7,0,0,0,9.2-2.6A6.6,6.6,0,0,0,203.6,399.8Z" style="fill:#d2f7f5"/><path d="M312.2,563a6.8,6.8,0,1,0,2.6,9.1A6.8,6.8,0,0,0,312.2,563Z" style="fill:#d2f7f5"/><path d="M589.9,395.8a6.7,6.7,0,1,0,2.4,9.1A6.8,6.8,0,0,0,589.9,395.8Z" style="fill:#d2f7f5"/><path d="M285.5,224.6a6.7,6.7,0,1,0,2.3,9.1A6.7,6.7,0,0,0,285.5,224.6Z" style="fill:#d2f7f5"/><path d="M557.3,275.3a6.8,6.8,0,1,0,2.5,9.2A6.7,6.7,0,0,0,557.3,275.3Z" style="fill:#d2f7f5"/><path d="M537.3,519.4a6.7,6.7,0,0,0-9.2,2.5,6.6,6.6,0,1,0,9.2-2.5Z" style="fill:#d2f7f5"/><path d="M405.1,189.7a6.8,6.8,0,1,0,2.5,9.2A6.7,6.7,0,0,0,405.1,189.7Z" style="fill:#d2f7f5"/><path d="M251,256.2a6.9,6.9,0,0,0-9.1,2.5,6.6,6.6,0,1,0,9.1-2.5Z" style="fill:#d2f7f5"/><path d="M207.5,334a6.8,6.8,0,0,0-9.3,2.5,6.6,6.6,0,1,0,11.5,6.6A6.8,6.8,0,0,0,207.5,334Z" style="fill:#d2f7f5"/><path d="M580.7,441.6a6.8,6.8,0,1,0,2.5,9.3A6.9,6.9,0,0,0,580.7,441.6Z" style="fill:#d2f7f5"/><path d="M502.6,551.1a6.7,6.7,0,0,0-9,2.6,6.9,6.9,0,0,0,2.5,9,6.7,6.7,0,0,0,6.5-11.6Z" style="fill:#d2f7f5"/><path d="M261.4,534.6a6.7,6.7,0,0,0-6.4,11.7,6.7,6.7,0,0,0,6.4-11.7Z" style="fill:#d2f7f5"/><path d="M337.7,577.5a6.6,6.6,0,1,0,2.1,9.1A6.7,6.7,0,0,0,337.7,577.5Z" style="fill:#d2f7f5"/><path d="M198.2,379.9a6.7,6.7,0,1,0,2.3,9.1A6.8,6.8,0,0,0,198.2,379.9Z" style="fill:#d2f7f5"/><path d="M230.6,500.3a6.6,6.6,0,0,0-6.4,11.5,6.6,6.6,0,0,0,6.4-11.5Z" style="fill:#d2f7f5"/><path d="M382.9,585.9a6.6,6.6,0,0,0-6.6,11.5,6.6,6.6,0,0,0,8.8-2.4A6.7,6.7,0,0,0,382.9,585.9Z" style="fill:#d2f7f5"/><path d="M425,184.2a6.5,6.5,0,0,0-8.7,2.5,6.3,6.3,0,1,0,11,6.3A6.4,6.4,0,0,0,425,184.2Z" style="fill:#d2f7f5"/><path d="M551.9,255.6a6.3,6.3,0,0,0-8.7,2.4,6.3,6.3,0,1,0,10.9,6.3A6.3,6.3,0,0,0,551.9,255.6Z" style="fill:#d2f7f5"/><path d="M235.8,520.7a6.2,6.2,0,1,0,2.4,8.3A5.9,5.9,0,0,0,235.8,520.7Z" style="fill:#d2f7f5"/><path d="M362.8,592.1a6.2,6.2,0,0,0-6.2,10.8,6.2,6.2,0,0,0,6.2-10.8Z" style="fill:#d2f7f5"/><path d="M292.1,569.4a6,6,0,0,0-8.4,2.2,6.1,6.1,0,0,0,2.1,8.5,6.2,6.2,0,0,0,6.3-10.7Z" style="fill:#d2f7f5"/><path d="M470.2,192.8a6,6,0,0,0-8.5,2.6,6.1,6.1,0,0,0,2.3,8.4,6.2,6.2,0,0,0,8.6-2.6A6.1,6.1,0,0,0,470.2,192.8Z" style="fill:#d2f7f5"/><path d="M495.5,206.9a6.4,6.4,0,1,0,2.5,8.7A6.3,6.3,0,0,0,495.5,206.9Z" style="fill:#d2f7f5"/><path d="M521.3,221.5a6.3,6.3,0,0,0-6.9,10.6,6.1,6.1,0,0,0,8.7-2A6.1,6.1,0,0,0,521.3,221.5Z" style="fill:#d2f7f5"/><path d="M359.5,181.7a6,6,0,0,0-8.3,2.5,6.1,6.1,0,1,0,8.3-2.5Z" style="fill:#d2f7f5"/><path d="M588,310.2a6,6,0,0,0-8.6,2.4,6.2,6.2,0,0,0,2.4,8.4,6.2,6.2,0,0,0,6.2-10.8Z" style="fill:#d2f7f5"/><path d="M339.8,187.6a6.3,6.3,0,1,0,2.1,8.4A6,6,0,0,0,339.8,187.6Z" style="fill:#d2f7f5"/><path d="M593.3,330.1a6.3,6.3,0,1,0,2.4,8.4A6.1,6.1,0,0,0,593.3,330.1Z" style="fill:#d2f7f5"/><path d="M319.5,193.3a6,6,0,0,0-8.3,2.6,6.1,6.1,0,0,0,2.5,8.4,6,6,0,0,0,8.3-2.7A5.9,5.9,0,0,0,319.5,193.3Z" style="fill:#d2f7f5"/><path d="M598.8,350.3a6.2,6.2,0,1,0,2.2,8.5A6.2,6.2,0,0,0,598.8,350.3Z" style="fill:#d2f7f5"/><path d="M265.3,230.7a6.4,6.4,0,1,0,2.2,8.7A6.2,6.2,0,0,0,265.3,230.7Z" style="fill:#d2f7f5"/><path d="M595.2,416.3a6.3,6.3,0,0,0-6.5,10.8,6.3,6.3,0,0,0,6.5-10.8Z" style="fill:#d2f7f5"/><path d="M230.9,262.6a6.2,6.2,0,0,0-6.4,10.7,6.2,6.2,0,0,0,6.4-10.7Z" style="fill:#d2f7f5"/><path d="M586.3,462.4a6.2,6.2,0,1,0,1.6,8.6A6.1,6.1,0,0,0,586.3,462.4Z" style="fill:#d2f7f5"/><path d="M216.2,288.3a6,6,0,0,0-8.5,2.6,6.1,6.1,0,0,0,2.3,8.4,6.2,6.2,0,0,0,8.6-2.6A6,6,0,0,0,216.2,288.3Z" style="fill:#d2f7f5"/><path d="M571.6,488.1a6.2,6.2,0,0,0-8.5,2,6.3,6.3,0,0,0,1.9,8.8,6.3,6.3,0,0,0,6.6-10.8Z" style="fill:#d2f7f5"/><path d="M556.7,513.9a6.2,6.2,0,0,0-5.9,11,6.2,6.2,0,0,0,5.9-11Z" style="fill:#d2f7f5"/><path d="M192.8,360.2a6.3,6.3,0,1,0,2,8.5A6.1,6.1,0,0,0,192.8,360.2Z" style="fill:#d2f7f5"/><path d="M522.4,545.6a6.1,6.1,0,0,0-8.6,2.5,6.1,6.1,0,0,0,2.3,8.4,6.1,6.1,0,0,0,8.6-2.5A6.1,6.1,0,0,0,522.4,545.6Z" style="fill:#d2f7f5"/><path d="M317.6,583.7a6.1,6.1,0,0,0-8.5,2.2,6.2,6.2,0,0,0,2,8.4,6.1,6.1,0,0,0,8.4-2.2A6.2,6.2,0,0,0,317.6,583.7Z" style="fill:#d2f7f5"/><path d="M468,583.2a6.2,6.2,0,0,0-8.5,2.4,6.1,6.1,0,1,0,10.6,5.9A6.2,6.2,0,0,0,468,583.2Z" style="fill:#d2f7f5"/><path d="M427.9,594.8a6.1,6.1,0,0,0-8.2,2.3,6,6,0,1,0,10.5,5.9A6,6,0,0,0,427.9,594.8Z" style="fill:#d2f7f5"/><path d="M199.6,466.4a6.1,6.1,0,0,0-8.2,2.3,6.2,6.2,0,0,0,2,8.3,6.2,6.2,0,0,0,8.5-2.4A6.1,6.1,0,0,0,199.6,466.4Z" style="fill:#d2f7f5"/><path d="M194.4,446.4a6.2,6.2,0,1,0,2,8.3A6.1,6.1,0,0,0,194.4,446.4Z" style="fill:#d2f7f5"/><path d="M189,426.3a6.2,6.2,0,1,0,1.8,8.6A6.1,6.1,0,0,0,189,426.3Z" style="fill:#d2f7f5"/><path d="M201.6,314.3a6,6,0,0,0-8.2,2.2,6.1,6.1,0,1,0,10.4,6.2A6,6,0,0,0,201.6,314.3Z" style="fill:#d2f7f5"/><path d="M604.2,370.5a6.2,6.2,0,0,0-8.3,2.1,6.1,6.1,0,1,0,8.3-2.1Z" style="fill:#d2f7f5"/><path d="M266.6,555.1a6.2,6.2,0,1,0,2.3,8.2A6,6,0,0,0,266.6,555.1Z" style="fill:#d2f7f5"/><path d="M299.7,199.2a6.1,6.1,0,0,0-8.2,2.3,6,6,0,1,0,8.2-2.3Z" style="fill:#d2f7f5"/><path d="M379.6,176a6.2,6.2,0,0,0-6.2,10.7,6.2,6.2,0,0,0,8.4-2.4A6.2,6.2,0,0,0,379.6,176Z" style="fill:#d2f7f5"/><path d="M582.5,290.1a6.2,6.2,0,0,0-6.2,10.7,6.2,6.2,0,0,0,8.5-2.4A6.2,6.2,0,0,0,582.5,290.1Z" style="fill:#d2f7f5"/><path d="M447.9,588.9a6.2,6.2,0,1,0,2.3,8.3A6.2,6.2,0,0,0,447.9,588.9Z" style="fill:#d2f7f5"/><path d="M546.3,235.8a6.1,6.1,0,0,0-6,10.7,6.2,6.2,0,0,0,8.2-2.5A6.1,6.1,0,0,0,546.3,235.8Z" style="fill:#d2f7f5"/><path d="M444.8,178.7a6.1,6.1,0,1,0,2.2,8.2A6.2,6.2,0,0,0,444.8,178.7Z" style="fill:#d2f7f5"/><path d="M609.6,390.7a6.1,6.1,0,0,0-8.2,2.2,5.9,5.9,0,1,0,10.2,5.8A6,6,0,0,0,609.6,390.7Z" style="fill:#d2f7f5"/><path d="M577,270.2a6,6,0,1,0,2.3,8A6.2,6.2,0,0,0,577,270.2Z" style="fill:#d2f7f5"/><path d="M399.6,170.4a6.1,6.1,0,1,0,2,8.1A6.3,6.3,0,0,0,399.6,170.4Z" style="fill:#d2f7f5"/><path d="M205.1,486.6a6.2,6.2,0,0,0-8.3,2.3,6,6,0,1,0,8.3-2.3Z" style="fill:#d2f7f5"/><path d="M245.1,236.7a6.2,6.2,0,0,0-8.1,2.5,6.1,6.1,0,0,0,2.3,8.2,6.3,6.3,0,0,0,8.2-2.5A6.2,6.2,0,0,0,245.1,236.7Z" style="fill:#d2f7f5"/><path d="M542.1,539.9a6.2,6.2,0,0,0-8,2.3,6.3,6.3,0,0,0,2.1,8.3,6.1,6.1,0,0,0,5.9-10.6Z" style="fill:#d2f7f5"/><path d="M407.8,600.5a6.3,6.3,0,0,0-8.1,2.6,6.2,6.2,0,0,0,2.4,8.2,6.1,6.1,0,0,0,5.7-10.8Z" style="fill:#d2f7f5"/><path d="M600.4,436.5a6.1,6.1,0,0,0-6.1,10.5,6.1,6.1,0,0,0,6.1-10.5Z" style="fill:#d2f7f5"/><path d="M187.1,340.3a6.1,6.1,0,0,0-8.1,2.1,6.2,6.2,0,0,0,1.9,8.3,6,6,0,0,0,8.2-2.1A6.2,6.2,0,0,0,187.1,340.3Z" style="fill:#d2f7f5"/><path d="M183.3,406.2a6.3,6.3,0,0,0-8.2,2.4,6,6,0,1,0,10.5,5.8A6.2,6.2,0,0,0,183.3,406.2Z" style="fill:#d2f7f5"/><path d="M487.7,577.4a6.1,6.1,0,0,0-8.1,2.4,6,6,0,1,0,8.1-2.4Z" style="fill:#d2f7f5"/><path d="M279.8,205.3a6,6,0,1,0,2,8A5.9,5.9,0,0,0,279.8,205.3Z" style="fill:#d2f7f5"/><path d="M241.2,541.1a5.9,5.9,0,0,0-8,2.1,6,6,0,0,0,2.1,8.2,5.9,5.9,0,0,0,5.9-10.3Z" style="fill:#d2f7f5"/><path d="M507.7,571.9a5.9,5.9,0,1,0,2,7.9A5.7,5.7,0,0,0,507.7,571.9Z" style="fill:#d2f7f5"/><path d="M342.6,598.1a5.9,5.9,0,0,0-5.7,10.4,6,6,0,0,0,7.9-2.4A6.1,6.1,0,0,0,342.6,598.1Z" style="fill:#d2f7f5"/><path d="M177.9,386.4a5.8,5.8,0,0,0-7.9,2.2,5.6,5.6,0,0,0,2,7.9,5.7,5.7,0,0,0,7.9-2.2A5.8,5.8,0,0,0,177.9,386.4Z" style="fill:#d2f7f5"/><path d="M591.1,482.8a5.5,5.5,0,0,0-7.6,1.9,5.6,5.6,0,0,0,1.9,7.9,5.4,5.4,0,0,0,7.6-1.9A5.5,5.5,0,0,0,591.1,482.8Z" style="fill:#d2f7f5"/><path d="M489.8,187.4a5.8,5.8,0,0,0-5.6,10.1,5.8,5.8,0,0,0,5.6-10.1Z" style="fill:#d2f7f5"/><path d="M515.1,201.6a5.8,5.8,0,0,0-5.5,10.2,5.8,5.8,0,0,0,5.5-10.2Z" style="fill:#d2f7f5"/><path d="M210.6,507a5.8,5.8,0,0,0-6.2,9.8,5.7,5.7,0,0,0,7.9-2A5.7,5.7,0,0,0,210.6,507Z" style="fill:#d2f7f5"/><path d="M419.1,164.8a5.5,5.5,0,0,0-7.6,2.2,5.6,5.6,0,0,0,2,7.7,5.6,5.6,0,0,0,7.8-2.3A5.5,5.5,0,0,0,419.1,164.8Z" style="fill:#d2f7f5"/><path d="M540.6,216.1a5.5,5.5,0,0,0-7.6,2.2,5.4,5.4,0,0,0,2.1,7.6,5.3,5.3,0,0,0,7.5-2.2A5.4,5.4,0,0,0,540.6,216.1Z" style="fill:#d2f7f5"/><path d="M196,294.7a5.6,5.6,0,1,0,2,7.6A5.4,5.4,0,0,0,196,294.7Z" style="fill:#d2f7f5"/><path d="M210.6,268.8a5.7,5.7,0,0,0-5.9,9.7,5.7,5.7,0,1,0,5.9-9.7Z" style="fill:#d2f7f5"/><path d="M614.6,411a5.6,5.6,0,0,0-5.4,9.8,5.5,5.5,0,0,0,7.6-2.3A5.4,5.4,0,0,0,614.6,411Z" style="fill:#d2f7f5"/><path d="M576.5,508.7a5.5,5.5,0,0,0-7.6,2,5.7,5.7,0,0,0,2.1,7.9,5.5,5.5,0,0,0,7.6-2.3A5.5,5.5,0,0,0,576.5,508.7Z" style="fill:#d2f7f5"/><path d="M464.4,173.3a5.6,5.6,0,0,0-5.4,9.9,5.6,5.6,0,0,0,5.4-9.9Z" style="fill:#d2f7f5"/><path d="M571.5,250.5a5.7,5.7,0,0,0-5.9,9.7,5.5,5.5,0,0,0,7.8-2.1A5.4,5.4,0,0,0,571.5,250.5Z" style="fill:#d2f7f5"/><path d="M527.5,566.3a5.6,5.6,0,0,0-7.6,2.2,5.5,5.5,0,1,0,9.6,5.2A5.6,5.6,0,0,0,527.5,566.3Z" style="fill:#d2f7f5"/><path d="M297,589.9a5.6,5.6,0,1,0,2.2,7.5A5.5,5.5,0,0,0,297,589.9Z" style="fill:#d2f7f5"/><path d="M271.7,575.6a5.6,5.6,0,1,0,2.1,7.6A5.6,5.6,0,0,0,271.7,575.6Z" style="fill:#d2f7f5"/><path d="M259.6,211.4a5.5,5.5,0,0,0-7.6,2,5.5,5.5,0,1,0,9.6,5.4A5.5,5.5,0,0,0,259.6,211.4Z" style="fill:#d2f7f5"/><path d="M215.6,527.1a5.7,5.7,0,0,0-7.5,2.1,5.5,5.5,0,1,0,9.5,5.4A5.7,5.7,0,0,0,215.6,527.1Z" style="fill:#d2f7f5"/><path d="M246.2,561.4a5.6,5.6,0,0,0-7.4,2.3,5.7,5.7,0,0,0,2.2,7.4,5.6,5.6,0,0,0,7.4-2.3A5.5,5.5,0,0,0,246.2,561.4Z" style="fill:#d2f7f5"/><path d="M605.8,457.1a5.7,5.7,0,0,0-7.7,1.9,5.5,5.5,0,1,0,7.7-1.9Z" style="fill:#d2f7f5"/><path d="M172.3,366.6a5.6,5.6,0,0,0-5.6,9.6,5.6,5.6,0,0,0,7.5-1.9A5.5,5.5,0,0,0,172.3,366.6Z" style="fill:#d2f7f5"/><path d="M181.5,320.7a5.6,5.6,0,0,0-7.5,1.8,5.7,5.7,0,0,0,1.9,7.8,5.6,5.6,0,0,0,5.6-9.6Z" style="fill:#d2f7f5"/><path d="M225,243a5.5,5.5,0,0,0-7.5,2.2,5.5,5.5,0,0,0,2.2,7.6,5.6,5.6,0,0,0,7.4-2.4A5.5,5.5,0,0,0,225,243Z" style="fill:#d2f7f5"/><path d="M562,534.7a5.5,5.5,0,0,0-5.7,9.5,5.6,5.6,0,0,0,7.5-1.8A5.5,5.5,0,0,0,562,534.7Z" style="fill:#d2f7f5"/><path d="M333.9,168.1a5.5,5.5,0,1,0,1.9,7.5A5.6,5.6,0,0,0,333.9,168.1Z" style="fill:#d2f7f5"/><path d="M613,325.1a5.5,5.5,0,0,0-5.5,9.5,5.5,5.5,0,0,0,5.5-9.5Z" style="fill:#d2f7f5"/><path d="M353.8,162.4a5.5,5.5,0,0,0-7.4,2.1,5.4,5.4,0,1,0,7.4-2.1Z" style="fill:#d2f7f5"/><path d="M607.6,305.1a5.4,5.4,0,0,0-5.5,9.4,5.6,5.6,0,0,0,7.4-2.1A5.6,5.6,0,0,0,607.6,305.1Z" style="fill:#d2f7f5"/><path d="M618.4,345.2a5.5,5.5,0,1,0,1.8,7.5A5.6,5.6,0,0,0,618.4,345.2Z" style="fill:#d2f7f5"/><path d="M313.9,174a5.5,5.5,0,0,0-7.4,2.1,5.4,5.4,0,1,0,9.3,5.4A5.6,5.6,0,0,0,313.9,174Z" style="fill:#d2f7f5"/><path d="M174,452.9a5.3,5.3,0,1,0,1.8,7.2A5.5,5.5,0,0,0,174,452.9Z" style="fill:#d2f7f5"/><path d="M439,159.3a5.4,5.4,0,0,0-7.2,2,5.3,5.3,0,1,0,7.2-2Z" style="fill:#d2f7f5"/><path d="M373.8,156.7a5.4,5.4,0,0,0-7.2,1.8,5.5,5.5,0,0,0,1.6,7.3,5.3,5.3,0,0,0,7.4-1.9A5.4,5.4,0,0,0,373.8,156.7Z" style="fill:#d2f7f5"/><path d="M602.1,285.1a5.4,5.4,0,0,0-5.3,9.3,5.6,5.6,0,0,0,7.2-2.1A5.4,5.4,0,0,0,602.1,285.1Z" style="fill:#d2f7f5"/><path d="M566,230.7a5.4,5.4,0,1,0-5.4,9.3,5.4,5.4,0,0,0,5.4-9.3Z" style="fill:#d2f7f5"/><path d="M168.4,432.8a5.3,5.3,0,0,0-7.1,2,5.3,5.3,0,0,0,1.9,7.2,5.3,5.3,0,0,0,7.1-2A5.3,5.3,0,0,0,168.4,432.8Z" style="fill:#d2f7f5"/><path d="M179.3,473a5.1,5.1,0,0,0-7.1,1.9,5.2,5.2,0,0,0,1.8,7.2,5.3,5.3,0,0,0,7.1-2A5.2,5.2,0,0,0,179.3,473Z" style="fill:#d2f7f5"/><path d="M619.9,431.3a5.4,5.4,0,0,0-7.1,2.2,5.2,5.2,0,1,0,9.1,4.9A5.3,5.3,0,0,0,619.9,431.3Z" style="fill:#d2f7f5"/><path d="M623.7,365.4a5.3,5.3,0,0,0-7.1,2,5.1,5.1,0,0,0,1.8,7.1,5.2,5.2,0,0,0,7.1-1.9A5.3,5.3,0,0,0,623.7,365.4Z" style="fill:#d2f7f5"/><path d="M293.8,179.9a5.3,5.3,0,0,0-7.1,2.1,5.2,5.2,0,0,0,2,7.1,5.3,5.3,0,0,0,7.1-2.1A5.2,5.2,0,0,0,293.8,179.9Z" style="fill:#d2f7f5"/><path d="M239.4,217.4a5.3,5.3,0,1,0,1.9,7.2A5.3,5.3,0,0,0,239.4,217.4Z" style="fill:#d2f7f5"/><path d="M184.6,493.2a4.9,4.9,0,0,0-6.8,1.9,4.9,4.9,0,0,0,1.7,6.9,4.9,4.9,0,0,0,6.8-1.9A4.9,4.9,0,0,0,184.6,493.2Z" style="fill:#d2f7f5"/><path d="M534.8,196.5a5,5,0,0,0-6.8,2.1,5,5,0,0,0,2,6.8,4.8,4.8,0,0,0,6.8-2.1A5,5,0,0,0,534.8,196.5Z" style="fill:#d2f7f5"/><path d="M190.1,275a5.1,5.1,0,1,0,2,6.8A4.9,4.9,0,0,0,190.1,275Z" style="fill:#d2f7f5"/><path d="M166.7,346.9a5.1,5.1,0,1,0,1.7,6.9A4.9,4.9,0,0,0,166.7,346.9Z" style="fill:#d2f7f5"/><path d="M393.5,151.1a4.8,4.8,0,0,0-6.8,2,4.9,4.9,0,0,0,1.8,6.8,4.8,4.8,0,0,0,6.8-2A4.8,4.8,0,0,0,393.5,151.1Z" style="fill:#d2f7f5"/><path d="M492.9,598.4a5,5,0,0,0-6.9,1.7,5,5,0,0,0,1.6,7.1,5.1,5.1,0,0,0,5.3-8.8Z" style="fill:#d2f7f5"/><path d="M162.9,412.9a5.1,5.1,0,1,0,1.9,6.8A4.9,4.9,0,0,0,162.9,412.9Z" style="fill:#d2f7f5"/><path d="M596.2,503.4a4.9,4.9,0,0,0-6.8,1.9,4.9,4.9,0,0,0,1.7,6.9,5,5,0,0,0,6.9-1.9A4.9,4.9,0,0,0,596.2,503.4Z" style="fill:#d2f7f5"/><path d="M547.3,560.9a5.1,5.1,0,0,0-7,1.7,5.2,5.2,0,0,0,1.7,7.2,5.1,5.1,0,0,0,6.9-1.8A5,5,0,0,0,547.3,560.9Z" style="fill:#d2f7f5"/><path d="M596.3,265.2a4.8,4.8,0,0,0-6.7,2.1,4.8,4.8,0,0,0,2,6.8,5,5,0,0,0,6.8-2.2A4.9,4.9,0,0,0,596.3,265.2Z" style="fill:#d2f7f5"/><path d="M220.6,547.5a5.1,5.1,0,1,0,2,6.8A4.9,4.9,0,0,0,220.6,547.5Z" style="fill:#d2f7f5"/><path d="M484.2,168a4.9,4.9,0,0,0-6.8,2,4.8,4.8,0,0,0,1.8,6.8,4.9,4.9,0,0,0,6.8-1.9A5,5,0,0,0,484.2,168Z" style="fill:#d2f7f5"/><path d="M509.4,182.1a5.2,5.2,0,1,0,2.1,7A5,5,0,0,0,509.4,182.1Z" style="fill:#d2f7f5"/><path d="M175.7,301.1a4.8,4.8,0,0,0-6.6,1.7,4.9,4.9,0,0,0,1.6,6.9,5,5,0,0,0,6.7-1.7A4.9,4.9,0,0,0,175.7,301.1Z" style="fill:#d2f7f5"/><path d="M190,513.4a5,5,0,1,0,1.6,6.7A5,5,0,0,0,190,513.4Z" style="fill:#d2f7f5"/><path d="M157.5,393a5,5,0,0,0-6.7,1.7,4.9,4.9,0,1,0,6.7-1.7Z" style="fill:#d2f7f5"/><path d="M512.5,592.7a4.9,4.9,0,1,0,1.9,6.6A4.8,4.8,0,0,0,512.5,592.7Z" style="fill:#d2f7f5"/><path d="M581.5,529.3a4.8,4.8,0,0,0-6.7,2.1,4.9,4.9,0,0,0,1.9,6.6,4.8,4.8,0,0,0,6.6-1.9A4.8,4.8,0,0,0,581.5,529.3Z" style="fill:#d2f7f5"/><path d="M251.3,582a4.8,4.8,0,0,0-6.5,2.1,4.9,4.9,0,0,0,1.9,6.6,5.1,5.1,0,0,0,6.6-2.1A5,5,0,0,0,251.3,582Z" style="fill:#d2f7f5"/><path d="M276.8,596.2A5,5,0,0,0,272,605a5,5,0,0,0,4.8-8.8Z" style="fill:#d2f7f5"/><path d="M273.9,186a4.9,4.9,0,0,0-6.8,1.8,4.9,4.9,0,0,0,8.3,5.2A4.9,4.9,0,0,0,273.9,186Z" style="fill:#d2f7f5"/><path d="M204.9,249.4a5,5,0,1,0,1.5,6.9A4.9,4.9,0,0,0,204.9,249.4Z" style="fill:#d2f7f5"/><path d="M629,385.7a5,5,0,0,0-5.2,8.6,5,5,0,0,0,5.2-8.6Z" style="fill:#d2f7f5"/><path d="M610.7,477.6a4.8,4.8,0,0,0-6.6,1.6,4.9,4.9,0,0,0,1.5,7,5,5,0,0,0,5.1-8.6Z" style="fill:#d2f7f5"/><path d="M591,245.3a4.9,4.9,0,0,0-4.7,8.6,5,5,0,0,0,6.5-2.1A5.2,5.2,0,0,0,591,245.3Z" style="fill:#d2f7f5"/><path d="M458.9,154a4.9,4.9,0,0,0-5.1,8.3,4.8,4.8,0,0,0,6.6-1.8A4.9,4.9,0,0,0,458.9,154Z" style="fill:#d2f7f5"/><path d="M560,210.9a5.1,5.1,0,0,0-6.4,1.9,5,5,0,0,0,1.8,6.7,5.1,5.1,0,0,0,6.6-2A5,5,0,0,0,560,210.9Z" style="fill:#d2f7f5"/><path d="M253.7,192a4.8,4.8,0,0,0-6.5,2,4.7,4.7,0,0,0,8.2,4.4A4.9,4.9,0,0,0,253.7,192Z" style="fill:#d2f7f5"/><path d="M219.4,223.7a4.9,4.9,0,0,0-6.6,1.6,4.7,4.7,0,1,0,6.6-1.6Z" style="fill:#d2f7f5"/><path d="M625,451.8a4.8,4.8,0,0,0-6.3,1.9,4.7,4.7,0,1,0,6.3-1.9Z" style="fill:#d2f7f5"/><path d="M413.4,145.5a4.9,4.9,0,1,0,1.7,6.4A4.9,4.9,0,0,0,413.4,145.5Z" style="fill:#d2f7f5"/><path d="M634.3,405.9a4.8,4.8,0,1,0,1.6,6.7A4.9,4.9,0,0,0,634.3,405.9Z" style="fill:#d2f7f5"/><path d="M161,327.1a4.8,4.8,0,1,0,1.8,6.4A4.9,4.9,0,0,0,161,327.1Z" style="fill:#d2f7f5"/><path d="M567,555.4a4.9,4.9,0,0,0-6.4,1.7,4.7,4.7,0,1,0,6.4-1.7Z" style="fill:#d2f7f5"/><path d="M151.8,373.1a4.7,4.7,0,0,0-4.6,8.1,4.6,4.6,0,0,0,6.3-1.7A4.7,4.7,0,0,0,151.8,373.1Z" style="fill:#d2f7f5"/><path d="M532.5,587.2a4.7,4.7,0,1,0,1.6,6.1A4.5,4.5,0,0,0,532.5,587.2Z" style="fill:#d2f7f5"/><path d="M195.3,533.8a4.5,4.5,0,0,0-6.3,1.7,4.5,4.5,0,1,0,7.8,4.4A4.5,4.5,0,0,0,195.3,533.8Z" style="fill:#d2f7f5"/><path d="M226,568.2a4.3,4.3,0,0,0-6.2,1.7,4.4,4.4,0,0,0,1.5,6.1,4.6,4.6,0,0,0,4.7-7.8Z" style="fill:#d2f7f5"/><path d="M585.4,225.7a4.4,4.4,0,0,0-4.5,7.5,4.1,4.1,0,0,0,5.8-1.4A4.3,4.3,0,0,0,585.4,225.7Z" style="fill:#d2f7f5"/><path d="M347.8,143.2a4.4,4.4,0,0,0-4.2,7.7,4.4,4.4,0,0,0,4.2-7.7Z" style="fill:#d2f7f5"/><path d="M627,300.2a4.4,4.4,0,1,0,1.4,6.1A4.4,4.4,0,0,0,627,300.2Z" style="fill:#d2f7f5"/><path d="M503.8,162.8a4.4,4.4,0,0,0-6,1.8,4.2,4.2,0,0,0,1.7,5.8,4.1,4.1,0,0,0,5.9-1.8A4.3,4.3,0,0,0,503.8,162.8Z" style="fill:#d2f7f5"/><path d="M327.9,148.9a4.5,4.5,0,0,0-4.1,7.9,4.2,4.2,0,0,0,5.7-1.8A4.3,4.3,0,0,0,327.9,148.9Z" style="fill:#d2f7f5"/><path d="M632.2,320.1A4.4,4.4,0,1,0,634,326,4.2,4.2,0,0,0,632.2,320.1Z" style="fill:#d2f7f5"/><path d="M308,154.8a4.5,4.5,0,0,0-5.9,1.5,4.3,4.3,0,0,0,1.5,6.1,4.2,4.2,0,0,0,5.8-1.5A4.3,4.3,0,0,0,308,154.8Z" style="fill:#d2f7f5"/><path d="M529.2,177.1a4.2,4.2,0,0,0-6,1.8,4.3,4.3,0,1,0,6-1.8Z" style="fill:#d2f7f5"/><path d="M637.9,340.4a4.4,4.4,0,1,0,1.4,5.8A4.2,4.2,0,0,0,637.9,340.4Z" style="fill:#d2f7f5"/><path d="M433.3,140.2a4.3,4.3,0,0,0-6.1,1.5,4.4,4.4,0,0,0,1.3,5.9,4.3,4.3,0,0,0,6.1-1.5A4.2,4.2,0,0,0,433.3,140.2Z" style="fill:#d2f7f5"/><path d="M601.4,524.2a4.4,4.4,0,0,0-5.9,1.4,4.4,4.4,0,0,0,1.3,5.9,4.4,4.4,0,0,0,5.9-1.4A4.4,4.4,0,0,0,601.4,524.2Z" style="fill:#d2f7f5"/><path d="M639.3,426.4a4.2,4.2,0,0,0-5.7,1.8,4.3,4.3,0,0,0,1.6,5.8,4.5,4.5,0,0,0,5.8-1.8A4.3,4.3,0,0,0,639.3,426.4Z" style="fill:#d2f7f5"/><path d="M233.6,198.2a4.2,4.2,0,0,0-5.8,1.5,4.3,4.3,0,0,0,1.4,5.9,4.3,4.3,0,0,0,5.8-1.5A4.4,4.4,0,0,0,233.6,198.2Z" style="fill:#d2f7f5"/><path d="M169.9,281.6a4.3,4.3,0,0,0-5.8,1.6,4.5,4.5,0,0,0,1.6,5.9,4.4,4.4,0,0,0,5.8-1.7A4.3,4.3,0,0,0,169.9,281.6Z" style="fill:#d2f7f5"/><path d="M621.5,280.2A4.3,4.3,0,1,0,623,286,4.3,4.3,0,0,0,621.5,280.2Z" style="fill:#d2f7f5"/><path d="M367.7,137.4a4.5,4.5,0,0,0-5.8,1.8,4.3,4.3,0,1,0,7.5,4A4.4,4.4,0,0,0,367.7,137.4Z" style="fill:#d2f7f5"/><path d="M153.5,459.6a4.3,4.3,0,1,0,1.4,5.8A4.3,4.3,0,0,0,153.5,459.6Z" style="fill:#d2f7f5"/><path d="M615.7,498.2a4.3,4.3,0,0,0-5.8,1.6,4.4,4.4,0,0,0,1.5,5.9,4.3,4.3,0,1,0,4.3-7.5Z" style="fill:#d2f7f5"/><path d="M184.4,255.6a4.4,4.4,0,0,0-5.8,1.9,4.4,4.4,0,0,0,1.7,5.8,4.5,4.5,0,0,0,5.8-1.9A4.4,4.4,0,0,0,184.4,255.6Z" style="fill:#d2f7f5"/><path d="M643,360.4a4.3,4.3,0,0,0-5.7,1.8c-1,2.3-.5,4.3,1.5,5.6a4.2,4.2,0,0,0,5.8-1.6A4.3,4.3,0,0,0,643,360.4Z" style="fill:#d2f7f5"/><path d="M586.6,550.1a4.1,4.1,0,0,0-5.5,1.6,4,4,0,1,0,6.9,4.1A4.2,4.2,0,0,0,586.6,550.1Z" style="fill:#d2f7f5"/><path d="M554.4,191.4a4.3,4.3,0,1,0,1.6,5.8A4.3,4.3,0,0,0,554.4,191.4Z" style="fill:#d2f7f5"/><path d="M552,581.6a4,4,0,0,0-5.5,1.7,4.2,4.2,0,0,0,1.4,5.8,4.4,4.4,0,0,0,5.8-1.7C554.8,585.4,554.1,582.5,552,581.6Z" style="fill:#d2f7f5"/><path d="M146.1,353.4a4,4,0,0,0-5.5,1.6,4.2,4.2,0,0,0,1.4,5.8,4.4,4.4,0,0,0,5.8-1.7A4.2,4.2,0,0,0,146.1,353.4Z" style="fill:#d2f7f5"/><path d="M478.3,148.6a4.2,4.2,0,0,0-5.7,1.8A4.1,4.1,0,0,0,474,156a4.2,4.2,0,0,0,5.8-1.5A4.4,4.4,0,0,0,478.3,148.6Z" style="fill:#d2f7f5"/><path d="M148,439.5a4.1,4.1,0,0,0-5.6,1.4,4.2,4.2,0,0,0,1.2,5.9,4.3,4.3,0,0,0,4.4-7.3Z" style="fill:#d2f7f5"/><path d="M158.8,479.6a4.3,4.3,0,1,0,1.6,5.6A4.2,4.2,0,0,0,158.8,479.6Z" style="fill:#d2f7f5"/><path d="M630.4,472.5a4.2,4.2,0,1,0-4.3,7.3,4.3,4.3,0,0,0,5.6-1.6A4.4,4.4,0,0,0,630.4,472.5Z" style="fill:#d2f7f5"/><path d="M288.1,160.8c-1.8-1.3-4.6-.5-5.8,1.5a4.2,4.2,0,0,0,1.4,5.8,4.3,4.3,0,0,0,5.8-1.6A4.2,4.2,0,0,0,288.1,160.8Z" style="fill:#d2f7f5"/><path d="M198.9,229.9a4.3,4.3,0,0,0-5.6,1.6,4.4,4.4,0,0,0,1.4,5.7,4.3,4.3,0,0,0,5.8-1.7A4.2,4.2,0,0,0,198.9,229.9Z" style="fill:#d2f7f5"/><path d="M200.4,554.2a4.3,4.3,0,0,0-5.6,1.4,4.1,4.1,0,1,0,5.6-1.4Z" style="fill:#d2f7f5"/><path d="M142.5,419.6a4.1,4.1,0,0,0-4.2,7.1,4.1,4.1,0,0,0,4.2-7.1Z" style="fill:#d2f7f5"/><path d="M155.4,307.6a4.1,4.1,0,0,0-4.2,7.1,4.1,4.1,0,0,0,4.2-7.1Z" style="fill:#d2f7f5"/><path d="M648.5,380.8a3.9,3.9,0,0,0-5.5,1.5,3.8,3.8,0,0,0,1.3,5.3,3.9,3.9,0,0,0,5.6-1.5A3.8,3.8,0,0,0,648.5,380.8Z" style="fill:#d2f7f5"/><path d="M164.1,499.9a3.9,3.9,0,0,0-5.5,1.7,3.8,3.8,0,0,0,1.5,5.3,3.9,3.9,0,0,0,5.5-1.7A4,4,0,0,0,164.1,499.9Z" style="fill:#d2f7f5"/><path d="M387.9,132.1a3.9,3.9,0,0,0-5.6,1.2c-1.2,2.1-.9,4,1,5.4a4,4,0,0,0,4.6-6.6Z" style="fill:#d2f7f5"/><path d="M615.9,260.3a4,4,0,0,0-5.5,1.7,3.9,3.9,0,1,0,5.5-1.7Z" style="fill:#d2f7f5"/><path d="M231.1,588.7c-2.2-1-4-.6-5.3,1.4s-.8,4,1.2,5.3a3.6,3.6,0,0,0,5.4-1.4A3.8,3.8,0,0,0,231.1,588.7Z" style="fill:#d2f7f5"/><path d="M267.7,166.8c-2.1-1.1-3.9-.4-5.2,1.6s-.6,4,1.4,5.2,3.9.6,5.2-1.4A3.7,3.7,0,0,0,267.7,166.8Z" style="fill:#d2f7f5"/><path d="M213.6,204.7a3.7,3.7,0,0,0-4.3,6.1c2,1.1,3.8.9,5.1-1A3.5,3.5,0,0,0,213.6,204.7Z" style="fill:#d2f7f5"/><path d="M644.7,447.1a3.6,3.6,0,0,0-5.2,1.4,3.7,3.7,0,0,0,1.3,5c2,.9,3.8.6,5-1.4S646.5,448.4,644.7,447.1Z" style="fill:#d2f7f5"/><path d="M452.8,134.9a3.6,3.6,0,0,0-5.2,1.4,3.5,3.5,0,0,0,1.4,5c1.8,1.2,4.1.5,5.3-1.8A3.4,3.4,0,0,0,452.8,134.9Z" style="fill:#d2f7f5"/><path d="M169.2,520.1a3.5,3.5,0,0,0-4.9,1.6c-1.1,1.8-.5,4.1,1.8,5.3s3.4.3,4.6-1.7A3.6,3.6,0,0,0,169.2,520.1Z" style="fill:#d2f7f5"/><path d="M579.8,206.3a3.5,3.5,0,0,0-5.2,1.2,3.6,3.6,0,0,0,1.3,5.2c2,1.1,3.7.5,5-1.3S581.7,207.6,579.8,206.3Z" style="fill:#d2f7f5"/><path d="M137,399.9a3.8,3.8,0,0,0-4,6.4c1.8,1.2,4.1.5,5.4-1.8A3.3,3.3,0,0,0,137,399.9Z" style="fill:#d2f7f5"/><path d="M571.7,576.3c-2.1-.8-3.9-.4-4.9,1.7a3.6,3.6,0,1,0,6.4,3.3C574.3,579.2,573.5,577.5,571.7,576.3Z" style="fill:#d2f7f5"/><path d="M518.5,159.2a3.2,3.2,0,0,0,1.3,4.7c1.9,1.1,3.6.4,5.5-2.2-.5-1.1-.8-3-2-3.9S519.5,157.2,518.5,159.2Z" style="fill:#d2f7f5"/><path d="M206.2,574.6,205,574c-1.5.7-3.4,1.1-4.3,2.3s-.5,3.7,1.4,4.7,3.9.4,4.6-1.5S206.4,576.2,206.2,574.6Z" style="fill:#d2f7f5"/><path d="M140.6,333.9a3.4,3.4,0,0,0-5,1.4c-1.1,2-.4,3.8,1.5,5.2s3.8.3,4.8-1.8S142.4,334.9,140.6,333.9Z" style="fill:#d2f7f5"/><path d="M242.8,174.4a3.3,3.3,0,0,0,1.3,4.7c1.9,1.2,3.6.5,5.5-2.1-.5-1.1-.8-3.1-1.9-4S243.9,172.4,242.8,174.4Z" style="fill:#d2f7f5"/><path d="M648.7,402.6a3.4,3.4,0,0,0,1.3,4.8c1.9,1.1,3.7.4,5.6-2.1-.5-1.2-.9-3.1-2-4S649.8,400.6,648.7,402.6Z" style="fill:#d2f7f5"/><path d="M610.5,240.7a3.3,3.3,0,0,0-5,1.2c-1.3,2-.6,3.7,1.3,5.2a3.7,3.7,0,0,0,4.9-1.6A3.4,3.4,0,0,0,610.5,240.7Z" style="fill:#d2f7f5"/><path d="M407.4,126.5a3.3,3.3,0,0,0-4.8,1.1,3.4,3.4,0,0,0,1,5.1c1.9,1.2,3.6.6,5.1-1.2S409.4,127.6,407.4,126.5Z" style="fill:#d2f7f5"/><path d="M126.8,381.3c-.4,1.3.1,3.8,1.1,4.4s3.1,0,4.7-.1a7.5,7.5,0,0,1,.7-1.2c-.6-1.5-.9-3.3-1.9-4.2A2.8,2.8,0,0,0,126.8,381.3Z" style="fill:#d2f7f5"/><path d="M548.6,172.2a2.8,2.8,0,0,0-4.5,1.3c-.4,1.3.2,3.8,1.2,4.4s3.1-.2,4.7-.3a8.3,8.3,0,0,1,.7-1.3C550,174.9,549.7,173.1,548.6,172.2Z" style="fill:#d2f7f5"/><path d="M164,262.4c-1.2-.4-3.7.2-4.3,1.2s0,3.1.1,4.8l1.2.6c1.5-.7,3.3-1,4.2-2.1A2.7,2.7,0,0,0,164,262.4Z" style="fill:#d2f7f5"/><path d="M620.6,519c-1.9-.9-3.9-.4-4.5,1.7s.3,3,.8,5.6c2.3-1.2,4.2-1.5,5-2.7S622.5,520,620.6,519Z" style="fill:#d2f7f5"/><path d="M497.9,143.7a2.8,2.8,0,0,0-4.5,1.3c-.4,1.3.2,3.7,1.2,4.3s3.1-.1,4.7-.2l.6-1.3C499.3,146.4,499,144.5,497.9,143.7Z" style="fill:#d2f7f5"/><path d="M602,546.3a2.5,2.5,0,0,0,.9,4.2c1.2.5,2.9,0,4.4-.1l.7-1.3c-.6-1.3-1-3.3-2-3.8A4.3,4.3,0,0,0,602,546.3Z" style="fill:#d2f7f5"/><path d="M422.8,122.4c-.9,1.7-.5,3.5,1.2,4.1s2.8-.1,4.2-.2l.8-1.3c-.6-1.3-.9-3-1.9-3.8S423.8,120.6,422.8,122.4Z" style="fill:#d2f7f5"/><path d="M174.1,237.8c-1,1.8-.6,3.6,1.2,4.3s3-.1,4.5-.2.5-.8.7-1.3-.9-3.1-2-4S175.2,236,174.1,237.8Z" style="fill:#d2f7f5"/><path d="M149.7,288.6c-1.3-.6-3-.1-4.5-.2a5.7,5.7,0,0,1-.8,1.3c.6,1.4.8,3.3,1.8,4a4.7,4.7,0,0,0,4.1-.8A2.6,2.6,0,0,0,149.7,288.6Z" style="fill:#d2f7f5"/><path d="M635.1,493.4c-1.5-1.3-3.3-.6-4.3,1.2s-.7,3.7,1.2,4.4,3-.2,4.5-.4.5-.8.7-1.3S636.2,494.2,635.1,493.4Z" style="fill:#d2f7f5"/><path d="M600.5,222c-1.1,1.8-.8,3.6,1.1,4.3s2.8-.1,4.2-.2l.8-1.2c-.6-1.3-.9-2.9-1.9-3.8S601.6,220.4,600.5,222Z" style="fill:#d2f7f5"/><path d="M175.5,540.6l-1.3-.7c-1.4.7-3.1,1-4,2.1s-.7,3.4,1.1,4.4,3.6.6,4.3-1.3S175.5,542.1,175.5,540.6Z" style="fill:#d2f7f5"/><path d="M642.3,296.7c-.5.9.1,3.3,1,4s2.7-.1,4.1-.1.5-.9.7-1.3-.9-3.2-1.9-3.6S642.8,295.8,642.3,296.7Z" style="fill:#d2f7f5"/><path d="M341.3,123.5c-1.2.7-3.2,1.1-3.5,2.1s.3,3.4,1.2,3.9,3.2-.3,3.8-1.3-.1-2.7-.3-4.1Z" style="fill:#d2f7f5"/><path d="M658.6,421.8c-1.1-.4-2.7.7-4.1,1.2.5,1.4.5,3.3,1.4,4s2.7-.2,4.1-.4a5.4,5.4,0,0,0,.7-1.3C660,424.1,659.6,422.2,658.6,421.8Z" style="fill:#d2f7f5"/><path d="M227.3,179.3c-1.1-.4-2.7.7-4,1.2.4,1.3.4,3.3,1.4,3.9s2.7-.2,4.1-.3l.6-1.3C228.7,181.6,228.3,179.6,227.3,179.3Z" style="fill:#d2f7f5"/><path d="M573.4,185.9c-1.3.7-3.2,1.1-3.6,2.1s.6,2.7,1.1,4.1c1.3-.5,3.3-.5,3.9-1.4s-.1-2.7-.2-4.2Z" style="fill:#d2f7f5"/><path d="M472.3,129.5c-1.4.5-3.4.6-4,1.5s.1,2.7.3,4.2l1.2.6c1.3-.7,3.2-1.2,3.5-2.2S472.7,130.9,472.3,129.5Z" style="fill:#d2f7f5"/><path d="M653.1,336.9c-.5.9.1,3.2,1,3.9s2.7,0,4.1-.1l.7-1.2c-.6-1.3-.9-3.3-1.9-3.7S653.6,336,653.1,336.9Z" style="fill:#d2f7f5"/><path d="M651.6,315.8c-.9-.6-3.2.1-3.9,1s-.1,2.7,0,4.2l1.2.7c1.3-.7,3.2-1,3.7-2S652.5,316.3,651.6,315.8Z" style="fill:#d2f7f5"/><path d="M321.7,130.2a4.2,4.2,0,0,0-3.9,1.3c-.5.9.3,3.2,1.2,3.9s2.7-.2,4.1-.4.5-.8.7-1.3S322.7,130.6,321.7,130.2Z" style="fill:#d2f7f5"/><path d="M131,315.6c-.5.9.1,3.1.9,3.8s2.6-.1,5-.3c-1-2.2-1.2-4.1-2.2-4.5A4.1,4.1,0,0,0,131,315.6Z" style="fill:#d2f7f5"/><path d="M587.4,572.4c.4,1.3.4,3.2,1.3,3.8s2.6-.1,5-.5c-1.1-2.1-1.5-4-2.4-4.4S588.7,572,587.4,572.4Z" style="fill:#d2f7f5"/><path d="M361.6,118.5c-1.3.5-3.2.5-3.8,1.4s.2,2.6.4,5c2.2-1.1,4-1.5,4.4-2.4S362,119.9,361.6,118.5Z" style="fill:#d2f7f5"/><path d="M640.8,275.5c-1.3.4-3.2.3-3.8,1.2s0,2.6.1,5.1c2.2-1.1,4.1-1.4,4.5-2.3S641.1,276.9,640.8,275.5Z" style="fill:#d2f7f5"/><path d="M649.6,467.9c-1-.6-2.8,0-4.2.2l-.6,1.1c.6,1.3.9,3.2,1.8,3.5s2.8-.6,4.2-1C650.4,470.4,650.4,468.4,649.6,467.9Z" style="fill:#d2f7f5"/><path d="M189.1,212.2c-.4,1,.2,3.3,1.1,3.7s3.1-.2,3.7-1.1-.2-2.7-.4-5.1C191.3,210.9,189.5,211.3,189.1,212.2Z" style="fill:#d2f7f5"/><path d="M121.8,361.6c-.4,1.1.6,2.6,1,3.9,1.3-.4,3.2-.4,3.8-1.3s-.1-2.6-.4-5C124,360.3,122.2,360.7,121.8,361.6Z" style="fill:#d2f7f5"/><path d="M297.7,137.2c.5,1.4.5,3.2,1.5,4s2.6-.3,4.9-.7c-1-2.1-1.3-4.1-2.2-4.4S299.1,136.8,297.7,137.2Z" style="fill:#d2f7f5"/><path d="M129,467.8c-.5.6.1,3,.9,3.5s2.5,0,4.8-.1c-.9-2.2-1.1-4.1-1.9-4.4A4.7,4.7,0,0,0,129,467.8Z" style="fill:#d2f7f5"/><path d="M278.3,142.8c-.4,1.1.3,2.6.6,4,1.3-.3,3.1-.2,3.6-.9s.2-2.6.2-4.9C280.5,141.8,278.6,142,278.3,142.8Z" style="fill:#d2f7f5"/><path d="M176.1,562.2a4.7,4.7,0,0,0,1,3.8c.6.4,3-.2,3.5-1s-.1-2.6-.2-4.9C178.3,561.1,176.4,561.4,176.1,562.2Z" style="fill:#d2f7f5"/><path d="M658.6,357.2c-.4.5.2,2.9,1,3.4s2.5,0,4.8-.2c-.9-2.2-1.2-4-2-4.3A4.2,4.2,0,0,0,658.6,357.2Z" style="fill:#d2f7f5"/><path d="M134.2,487.9c.5,1.3.6,3,1.5,3.7s2.4-.3,4.4-.7c-.9-1.9-1.2-3.8-2-4.1S135.5,487.5,134.2,487.9Z" style="fill:#d2f7f5"/><path d="M123.7,447.6c-.4,1.1.5,2.6.9,3.9,1.3-.4,3-.5,3.7-1.5s-.3-2.4-.6-4.5C125.8,446.5,123.9,446.8,123.7,447.6Z" style="fill:#d2f7f5"/><path d="M118.3,427.7c.4,1.2.4,2.8,1.2,3.4s2.2-.2,4.2-.5c-.9-1.9-1.2-3.4-2.1-3.8S119.4,427.3,118.3,427.7Z" style="fill:#d2f7f5"/><path d="M207.1,596.6a3.6,3.6,0,0,0,.8,3.5c.7.6,2.4-.1,4.7-.3-1.1-2.1-1.5-3.7-2.4-4.1S207.3,596,207.1,596.6Z" style="fill:#d2f7f5"/><path d="M539.7,153.7a4,4,0,0,0,.7,3.3c.4.4,2.5,0,2.9-.7s.1-2.2.1-4.2C541.6,152.8,540,153,539.7,153.7Z" style="fill:#d2f7f5"/><path d="M664.5,377.2a3.2,3.2,0,0,0,.6,3.2c.7.6,2.2,0,4.3,0-.8-2-1-3.6-1.8-3.9S664.9,376.5,664.5,377.2Z" style="fill:#d2f7f5"/><path d="M381.5,113.2c-1.1.3-2.7.3-3.3,1s0,2.2.1,4.3c1.9-.9,3.5-1.1,3.8-1.9S381.7,114.4,381.5,113.2Z" style="fill:#d2f7f5"/><path d="M258.4,149.1c-.3.9.6,2.2.9,3.3s2.7-.5,3.2-1.2-.1-2.2-.4-4.3C260.3,147.9,258.7,148.3,258.4,149.1Z" style="fill:#d2f7f5"/><path d="M514.4,139.4a3.6,3.6,0,0,0,.6,3.3c.4.4,2.5,0,3-.6s.1-2.3.1-4.3C516.2,138.5,514.6,138.7,514.4,139.4Z" style="fill:#d2f7f5"/><path d="M595.7,202.6c-.4.4.1,2.5.8,2.9s2.2,0,4.2-.2c-.8-1.8-1.1-3.4-1.8-3.6A3.8,3.8,0,0,0,595.7,202.6Z" style="fill:#d2f7f5"/><path d="M443.7,116.7a3.6,3.6,0,0,0,.6,3.3c.4.4,2.5,0,3-.7s.1-2.2.1-4.2C445.5,115.8,443.9,116,443.7,116.7Z" style="fill:#d2f7f5"/><path d="M143.4,507.1c-1.1.3-2.7.2-3.2.9s-.1,2.2,0,4.3c1.9-.8,3.5-1.1,3.9-1.9S143.7,508.2,143.4,507.1Z" style="fill:#d2f7f5"/><path d="M631.9,256.9a3.3,3.3,0,0,0,.9,3.2,3.7,3.7,0,0,0,3.1-1c.5-.7-.1-2.2-.3-4.3C633.7,255.8,632.2,256.1,631.9,256.9Z" style="fill:#d2f7f5"/><path d="M155.2,244.3a2.7,2.7,0,0,0,.9,2.7,3.2,3.2,0,0,0,2.7-.9c.4-.7-.2-1.9-.4-3.7C156.8,243.3,155.5,243.6,155.2,244.3Z" style="fill:#d2f7f5"/><path d="M640,514.3c-.9.3-2.3.3-2.8,1s.1,1.9.3,3.7c1.6-.8,2.9-1.1,3.2-1.8S640.3,515.3,640,514.3Z" style="fill:#d2f7f5"/><path d="M664,442.7a3.1,3.1,0,0,0-3.1.6c-.5.6-.1,2,0,4.1,1.8-.9,3.2-1.1,3.6-1.9S664.5,442.9,664,442.7Z" style="fill:#d2f7f5"/><path d="M204.1,186.6c-.3.7.1,2.6.6,2.8a3.6,3.6,0,0,0,3.1-.6c.5-.6,0-2.1,0-4.1C206,185.6,204.6,185.8,204.1,186.6Z" style="fill:#d2f7f5"/><path d="M145.7,528.3c.3,1,.3,2.3,1,2.8s1.8-.2,3.6-.4c-.8-1.6-1.1-3-1.8-3.2S146.6,528,145.7,528.3Z" style="fill:#d2f7f5"/><path d="M117.1,341.8c-.3.7.3,1.9.5,2.9s2.4-.2,2.9-.8,0-1.9-.1-3.7C118.8,340.9,117.4,341.1,117.1,341.8Z" style="fill:#d2f7f5"/><path d="M573.6,598.5c.2,1,.2,2.4.8,2.9s1.9,0,3.6-.1c-.7-1.7-.8-3-1.5-3.4S574.6,598.3,573.6,598.5Z" style="fill:#d2f7f5"/><path d="M143.4,269.1c-.9.3-2.3.4-2.7,1.1s.1,1.9.3,3.7c1.6-.9,2.9-1.2,3.2-1.9S143.7,270.1,143.4,269.1Z" style="fill:#d2f7f5"/><path d="M113.1,408.1c-.4.5.3,2.4.9,2.7s2.1-.2,4.1-.5c-1-1.7-1.4-3.2-2.1-3.4A3.1,3.1,0,0,0,113.1,408.1Z" style="fill:#d2f7f5"/><path d="M622.7,541.2a3,3,0,0,0,.8,2.7c.6.4,1.9-.1,3.7-.4-.8-1.5-1.1-2.9-1.8-3.2A3,3,0,0,0,622.7,541.2Z" style="fill:#d2f7f5"/><path d="M652.2,489.3a2.7,2.7,0,0,0,.4,2.5c.5.5,1.7,0,3.2,0-.6-1.5-.8-2.6-1.4-3S652.3,488.9,652.2,489.3Z" style="fill:#d2f7f5"/><path d="M172.5,217.9a2.5,2.5,0,0,0-2.4.5c-.4.5,0,1.7.1,3.3,1.4-.7,2.5-1,2.8-1.6S172.9,218,172.5,217.9Z" style="fill:#d2f7f5"/><path d="M670.2,397.6c-.3.6.3,1.7.5,2.6s2.2-.3,2.7-.9-.1-1.7-.3-3.2C671.7,396.7,670.5,396.9,670.2,397.6Z" style="fill:#d2f7f5"/><path d="M238.9,154.8c.2,1,.1,2.2.7,2.8s1.7-.1,3.2-.2c-.5-1.4-.6-2.6-1.2-2.9S239.8,154.6,238.9,154.8Z" style="fill:#d2f7f5"/><path d="M608.5,567.1a2.6,2.6,0,0,0,.6,2.4c.5.4,1.7-.1,3.2-.3-.8-1.4-1-2.5-1.7-2.8S608.6,566.6,608.5,567.1Z" style="fill:#d2f7f5"/><path d="M491.8,124.8c-.9.3-2.1.3-2.7,1s.2,1.6.4,3.2c1.4-.7,2.6-1,2.9-1.6S492,125.7,491.8,124.8Z" style="fill:#d2f7f5"/><path d="M126.5,295.9a3.1,3.1,0,0,0,.4,2.5c.5.4,1.7,0,3.3-.1-.7-1.4-.8-2.5-1.4-2.9S126.7,295.4,126.5,295.9Z" style="fill:#d2f7f5"/><path d="M153.8,547.8c-.8.2-1.9.3-2.3.8s.1,1.6.3,3c1.3-.7,2.4-.9,2.6-1.5S154,548.5,153.8,547.8Z" style="fill:#d2f7f5"/><path d="M565.4,168.3c-.3.7.2,1.7.4,2.6s2.1-.2,2.7-.8-.1-1.7-.2-3.2C566.9,167.5,565.7,167.7,565.4,168.3Z" style="fill:#d2f7f5"/><path d="M108.2,387.9c.1.8.1,1.9.6,2.3s1.5,0,2.9-.1c-.5-1.3-.6-2.4-1.2-2.7S109,387.7,108.2,387.9Z" style="fill:#d2f7f5"/><path d="M401.2,108.1c-.6-.4-1.7.1-2.6.3s.1,2.1.6,2.8,1.7-.1,3.2-.1C401.9,109.6,401.8,108.4,401.2,108.1Z" style="fill:#d2f7f5"/><path d="M626.8,237c.3.9.3,2.1,1,2.7s1.6-.3,3.1-.6c-.7-1.3-.9-2.5-1.6-2.8S627.7,236.7,626.8,237Z" style="fill:#d2f7f5"/><path d="M182.3,582.6c-.4.7.1,1.8.3,2.7s2.1-.2,2.7-.8,0-1.6-.1-3.2C183.8,581.9,182.6,582,182.3,582.6Z" style="fill:#d2f7f5"/><path d="M749.3-94V81.2a19.6,19.6,0,0,1-19.6,19.6h0a19.6,19.6,0,0,1-19.6-19.6V-94a19.6,19.6,0,0,1,19.6-19.6h0A19.6,19.6,0,0,1,749.3-94Z" style="fill:#354877"/><path d="M675.9,70.3v80.5a24.8,24.8,0,0,1-24.8,24.8h0a24.8,24.8,0,0,1-24.8-24.8V70.3a24.8,24.8,0,0,1,24.8-24.7h0A24.8,24.8,0,0,1,675.9,70.3Z" style="fill:#354877"/><path d="M755.8,96V260.9A22.9,22.9,0,0,1,733,283.8h0a22.9,22.9,0,0,1-22.9-22.9V96A22.8,22.8,0,0,1,733,73.2h0A22.8,22.8,0,0,1,755.8,96Z" style="fill:#fff"/><path d="M547.6,37.5v63.6A11.6,11.6,0,0,1,536,112.6h0a11.6,11.6,0,0,1-11.5-11.5V37.5A11.6,11.6,0,0,1,536,25.9h0A11.6,11.6,0,0,1,547.6,37.5Z" style="fill:#fff"/><path d="M635.9-122V125.8a16,16,0,0,1-16,15.9h0A15.9,15.9,0,0,1,604,125.8V-122a15.9,15.9,0,0,1,15.9-15.9h0A16,16,0,0,1,635.9-122Z" style="fill:#f75e9c"/><path d="M721,206.1v46.6a10.9,10.9,0,0,1-10.9,10.9h0a10.9,10.9,0,0,1-11-10.9V206.1a10.9,10.9,0,0,1,11-10.9h0A10.9,10.9,0,0,1,721,206.1Z" style="fill:#f75e9c"/><path d="M677.1-20.7V99.1A14.9,14.9,0,0,0,692,114h0a15,15,0,0,0,15-14.9V-20.7a15,15,0,0,0-15-14.9h0A14.9,14.9,0,0,0,677.1-20.7Z" style="fill:#f75e9c"/><path d="M721-2.5V-137.6a22.6,22.6,0,0,0-22.5-22.6h0a22.6,22.6,0,0,0-22.6,22.6V-2.5a22.6,22.6,0,0,0,22.6,22.6h0A22.6,22.6,0,0,0,721-2.5Z" style="fill:#93d1ce"/><path d="M781.5,33.8V136.5a25.6,25.6,0,0,1-25.7,25.6h0a25.6,25.6,0,0,1-25.6-25.6V33.8A25.6,25.6,0,0,1,755.8,8.2h0A25.6,25.6,0,0,1,781.5,33.8Z" style="fill:#93d1ce"/><path d="M618.5-13.6V80.2a20.6,20.6,0,0,1-20.6,20.6h0a20.5,20.5,0,0,1-20.5-20.6V-13.6a20.5,20.5,0,0,1,20.5-20.5h0A20.5,20.5,0,0,1,618.5-13.6Z" style="fill:#93d1ce"/><path d="M690.8,141.3V248.7a14.9,14.9,0,0,1-14.9,14.9h0A14.9,14.9,0,0,1,661,248.7V141.3a14.9,14.9,0,0,1,14.9-15h0A15,15,0,0,1,690.8,141.3Z" style="fill:#93d1ce"/><path d="M776.1,260.4v85a18.5,18.5,0,0,1-18.5,18.5h0a18.5,18.5,0,0,1-18.5-18.5v-85a18.5,18.5,0,0,1,18.5-18.5h0A18.5,18.5,0,0,1,776.1,260.4Z" style="fill:#93d1ce"/><path d="M502.4-15.7V7.7A10.5,10.5,0,0,1,492,18.1h0A10.4,10.4,0,0,1,481.6,7.7V-15.7A10.3,10.3,0,0,1,492-26.1h0A10.4,10.4,0,0,1,502.4-15.7Z" style="fill:#f75e9c"/><path d="M618.5-161.6V75.9a24.9,24.9,0,0,0,24.8,24.9h0a24.9,24.9,0,0,0,24.8-24.9V-161.6a24.8,24.8,0,0,0-24.8-24.8h0A24.8,24.8,0,0,0,618.5-161.6Z" style="fill:#fbb400"/><path d="M689.5,272.4v-155a20.9,20.9,0,0,1,20.9-20.9h0a20.9,20.9,0,0,1,20.9,20.9v155a21,21,0,0,1-20.9,20.9h0A21,21,0,0,1,689.5,272.4Z" style="fill:#fbb400"/><path d="M563.1,11.2V48.9a11.8,11.8,0,0,1-11.9,11.8h0a11.9,11.9,0,0,1-11.9-11.8V11.2A12,12,0,0,1,551.2-.7h0A11.9,11.9,0,0,1,563.1,11.2Z" style="fill:#fbb400"/><path d="M-28.4-2V-141.8A29.3,29.3,0,0,1,.8-171.1h0a29.3,29.3,0,0,1,29.3,29.3V-2A29.3,29.3,0,0,1,.8,27.2h0A29.2,29.2,0,0,1-28.4-2Z" style="fill:#354877"/><path d="M106,206.2V97.1A14.4,14.4,0,0,0,91.6,82.6h0A14.5,14.5,0,0,0,77.1,97.1V206.2a14.5,14.5,0,0,0,14.5,14.5h0A14.4,14.4,0,0,0,106,206.2Z" style="fill:#354877"/><path d="M220,95.6V60.2a9.6,9.6,0,0,1,9.6-9.6h0a9.6,9.6,0,0,1,9.6,9.6V95.6a9.6,9.6,0,0,1-9.6,9.6h0A9.6,9.6,0,0,1,220,95.6Z" style="fill:#354877"/><path d="M83,16.3V-123.4A37.6,37.6,0,0,1,120.6-161h0a37.6,37.6,0,0,1,37.6,37.6V16.3A37.6,37.6,0,0,1,120.6,54h0A37.6,37.6,0,0,1,83,16.3Z" style="fill:#fff"/><path d="M176.2,129.3V55.6a8.2,8.2,0,0,1,8.2-8.2h0a8.2,8.2,0,0,1,8.3,8.2v73.7a8.3,8.3,0,0,1-8.3,8.3h0A8.3,8.3,0,0,1,176.2,129.3Z" style="fill:#fff"/><path d="M90.8,257.5V177.6a42.3,42.3,0,0,0-42.4-42.3h0A42.3,42.3,0,0,0,6.1,177.6v79.9a42.4,42.4,0,0,0,42.3,42.4h0A42.4,42.4,0,0,0,90.8,257.5Z" style="fill:#fff"/><path d="M18.3,112.8V-137.5A34.6,34.6,0,0,1,52.9-172h0a34.6,34.6,0,0,1,34.5,34.5V112.8a34.5,34.5,0,0,1-34.5,34.5h0A34.5,34.5,0,0,1,18.3,112.8Z" style="fill:#f75e9c"/><path d="M118.6,52.7V-21.6A12.4,12.4,0,0,1,131-34h0a12.4,12.4,0,0,1,12.4,12.4V52.7A12.5,12.5,0,0,1,131,65.1h0A12.5,12.5,0,0,1,118.6,52.7Z" style="fill:#f75e9c"/><path d="M-18.4,148.6v-176A33.5,33.5,0,0,1,15-60.8h0A33.4,33.4,0,0,1,48.4-27.4v176A33.4,33.4,0,0,1,15,182.1h0A33.5,33.5,0,0,1-18.4,148.6Z" style="fill:#93d1ce"/><path d="M88.3,95.5V-56.3a13.3,13.3,0,0,1,13.3-13.4h0A13.4,13.4,0,0,1,115-56.3V95.5a13.4,13.4,0,0,1-13.4,13.4h0A13.3,13.3,0,0,1,88.3,95.5Z" style="fill:#93d1ce"/><path d="M197.3,21.4v-66a9.8,9.8,0,0,1,9.8-9.8h0a9.8,9.8,0,0,1,9.8,9.8v66a9.8,9.8,0,0,1-9.8,9.8h0A9.8,9.8,0,0,1,197.3,21.4Z" style="fill:#93d1ce"/><path d="M105.4,136.9V64a19.8,19.8,0,0,1,19.8-19.8h0A19.8,19.8,0,0,1,145,64v72.9a19.8,19.8,0,0,1-19.8,19.8h0A19.8,19.8,0,0,1,105.4,136.9Z" style="fill:#fbb400"/><path d="M15,235.2V35.4A23.9,23.9,0,0,1,38.8,11.6h0A23.8,23.8,0,0,1,62.5,35.4V235.2a23.7,23.7,0,0,1-23.7,23.7h0A23.8,23.8,0,0,1,15,235.2Z" style="fill:#fbb400"/><path d="M290.1-43.7V67.8a27.4,27.4,0,0,0,27.4,27.4h0A27.5,27.5,0,0,0,345,67.8V-43.7a27.4,27.4,0,0,0-27.5-27.4h0A27.4,27.4,0,0,0,290.1-43.7Z" style="fill:#fff"/><path d="M254,19.1V61.5a9.6,9.6,0,0,0,9.5,9.6h0a9.6,9.6,0,0,0,9.6-9.6V19.1a9.5,9.5,0,0,0-9.6-9.5h0A9.5,9.5,0,0,0,254,19.1Z" style="fill:#f75e9c"/><path d="M459.9-39.7V60.5a13.9,13.9,0,0,0,13.9,13.9h0a13.9,13.9,0,0,0,13.9-13.9V-39.7a14,14,0,0,0-13.9-14h0A14,14,0,0,0,459.9-39.7Z" style="fill:#93d1ce"/><path d="M362.5-64.1V15.2a17.2,17.2,0,0,0,17.2,17.3h0A17.3,17.3,0,0,0,397,15.2V-64.1a17.4,17.4,0,0,0-17.3-17.3h0A17.3,17.3,0,0,0,362.5-64.1Z" style="fill:#93d1ce"/><path d="M525.9-10.2V11.7a9.8,9.8,0,0,0,9.7,9.7h0a9.7,9.7,0,0,0,9.7-9.7V-10.2a9.7,9.7,0,0,0-9.7-9.7h0A9.8,9.8,0,0,0,525.9-10.2Z" style="fill:#93d1ce"/><path d="M446,32.1V-112.6A19.5,19.5,0,0,0,426.5-132h0A19.4,19.4,0,0,0,407-112.6V32.1a19.5,19.5,0,0,0,19.5,19.5h0A19.5,19.5,0,0,0,446,32.1Z" style="fill:#fbb400"/><g style="opacity:0.6000000000000001"><path d="M-8.1,725.6c-70.5,0-127.8-57.4-127.8-127.9S-78.6,469.8-8.1,469.8s127.8,57.4,127.8,127.9S62.4,725.6-8.1,725.6Zm0-251.3c-68,0-123.4,55.4-123.4,123.4A123.5,123.5,0,0,0-8.1,721.1,123.5,123.5,0,0,0,115.3,597.7C115.3,529.7,59.9,474.3-8.1,474.3Z" style="fill:#fff"/><path d="M-8.1,702.4A104.8,104.8,0,0,1-112.7,597.7,104.7,104.7,0,0,1-8.1,493.1,104.7,104.7,0,0,1,96.5,597.7,104.8,104.8,0,0,1-8.1,702.4Zm0-204.9A100.4,100.4,0,0,0-108.3,597.7,100.3,100.3,0,0,0-8.1,697.9,100.3,100.3,0,0,0,92.1,597.7,100.4,100.4,0,0,0-8.1,497.5Z" style="fill:#fff"/><path d="M-8.1,681a83.4,83.4,0,0,1-83.3-83.3A83.4,83.4,0,0,1-8.1,514.4a83.4,83.4,0,0,1,83.3,83.3A83.3,83.3,0,0,1-8.1,681Zm0-162.2a78.9,78.9,0,0,0-78.8,78.9A78.9,78.9,0,0,0-8.1,676.6a79,79,0,0,0,78.9-78.9A79,79,0,0,0-8.1,518.8Z" style="fill:#fff"/><path d="M177.5,513a47.6,47.6,0,1,1,47.6-47.6A47.6,47.6,0,0,1,177.5,513Zm0-90.7a43.2,43.2,0,1,0,43.1,43.1A43.1,43.1,0,0,0,177.5,422.3Z" style="fill:#fff"/><ellipse cx="60.1" cy="545.3" rx="25.3" ry="25.3" style="fill:#fff"/><path d="M67.1,454.5a11.8,11.8,0,1,1-11.8-11.7A11.8,11.8,0,0,1,67.1,454.5Z" style="fill:#fff"/></g><g style="opacity:0.6000000000000001"><path d="M679.7,487A101.2,101.2,0,1,1,780.9,588.2,101.3,101.3,0,0,1,679.7,487Zm3.5,0a97.7,97.7,0,1,0,97.7-97.7A97.8,97.8,0,0,0,683.2,487Z" style="fill:#fff"/><path d="M698,487a82.9,82.9,0,1,1,82.9,82.8A83,83,0,0,1,698,487Zm3.6,0a79.3,79.3,0,1,0,79.3-79.3A79.4,79.4,0,0,0,701.6,487Z" style="fill:#fff"/><path d="M714.9,487a66,66,0,1,1,66,65.9A66.1,66.1,0,0,1,714.9,487Zm3.5,0a62.5,62.5,0,1,0,62.5-62.5A62.5,62.5,0,0,0,718.4,487Z" style="fill:#fff"/><path d="M596.3,382.3A37.7,37.7,0,1,1,634,419.9,37.7,37.7,0,0,1,596.3,382.3Zm3.5,0A34.2,34.2,0,1,0,634,348.1,34.2,34.2,0,0,0,599.8,382.3Z" style="fill:#fff"/><path d="M621.1,514.6a20.6,20.6,0,1,1,20.6,20.6A20.6,20.6,0,0,1,621.1,514.6Zm3.5,0a17.1,17.1,0,1,0,17.1-17.1A17.2,17.2,0,0,0,624.6,514.6Z" style="fill:#fff"/><ellipse cx="726.9" cy="445.5" rx="20" ry="20" style="fill:#fff"/><path d="M721.3,373.7a9.3,9.3,0,1,0,9.3-9.4A9.3,9.3,0,0,0,721.3,373.7Z" style="fill:#fff"/><circle cx="748.8" cy="508.3" r="6.3" style="fill:#fff"/></g><rect x="150" y="219.2" width="750" height="397.16" style="fill:none"/></g><path d="M287.7,187.8h9.6V160.4l-8.3,6.3-3.8-5,14.3-10.9H305v37h9.4v6.9H287.7Z" style="fill:#354877"/><path d="M321,172.7a37.5,37.5,0,0,1,1.2-10,19.6,19.6,0,0,1,3.4-7.1,12.8,12.8,0,0,1,5.1-4.2,15.3,15.3,0,0,1,6.8-1.4c5.3,0,9.3,1.8,12.2,5.5s4.3,9.4,4.3,17.2a38.3,38.3,0,0,1-1.2,10.1,22.3,22.3,0,0,1-3.4,7.1,15.2,15.2,0,0,1-5.2,4.3,16.9,16.9,0,0,1-6.8,1.4c-5.3,0-9.4-2-12.2-5.9S321,180.1,321,172.7Zm8.1,0c0,.6.1,1.2.1,1.8a10.3,10.3,0,0,0,.1,1.7l15.1-14c-1.2-3.6-3.6-5.4-7-5.4a6.7,6.7,0,0,0-6.1,3.9C329.9,163.3,329.1,167.3,329.1,172.7Zm16.7,0v-1.9c0-.6-.1-1.2-.1-1.8l-15.2,14c1.2,3.8,3.6,5.7,7,5.7a6.8,6.8,0,0,0,6.1-3.8C345.1,182.3,345.8,178.3,345.8,172.7Z" style="fill:#354877"/><path d="M359.6,164.6a15.9,15.9,0,0,1,1.1-5.9,11.4,11.4,0,0,1,3.1-4.6,13.5,13.5,0,0,1,4.7-3,16.1,16.1,0,0,1,6.3-1.1,18.1,18.1,0,0,1,6.3,1,13,13,0,0,1,5,3.2,14.3,14.3,0,0,1,3.2,5.2,22,22,0,0,1,1.1,7.1,36.1,36.1,0,0,1-1.9,12.5,25,25,0,0,1-5,8.8,23.1,23.1,0,0,1-7.4,5.4,33.1,33.1,0,0,1-8.7,2.4l-1.8-6.4a22.5,22.5,0,0,0,6.2-1.7,21.6,21.6,0,0,0,4.9-3.1,15.1,15.1,0,0,0,5.1-9.3,8.9,8.9,0,0,1-3.4,2.1,12.5,12.5,0,0,1-5,.8h-.1a13.4,13.4,0,0,1-4.8-.8,12.9,12.9,0,0,1-4.4-2.5,14,14,0,0,1-3.3-4.2A13.8,13.8,0,0,1,359.6,164.6Zm7.9-.5a7.5,7.5,0,0,0,.6,3.1,8.4,8.4,0,0,0,1.8,2.3,9.5,9.5,0,0,0,2.4,1.4,9.9,9.9,0,0,0,3,.4,11.9,11.9,0,0,0,4.4-.8,6.1,6.1,0,0,0,2.8-2,21.8,21.8,0,0,0,.1-2.5,9.7,9.7,0,0,0-.5-3.4,8.1,8.1,0,0,0-1.5-3.1,8.7,8.7,0,0,0-2.5-2.1,7.4,7.4,0,0,0-3.4-.7,6.9,6.9,0,0,0-5.1,1.9A7.4,7.4,0,0,0,367.5,164.1Z" style="fill:#354877"/><path d="M397.2,164.6a14.1,14.1,0,0,1,1.1-5.9,12.3,12.3,0,0,1,3-4.6,13.9,13.9,0,0,1,4.8-3,15.6,15.6,0,0,1,6.2-1.1,18.3,18.3,0,0,1,6.4,1,13,13,0,0,1,5,3.2,14.3,14.3,0,0,1,3.2,5.2,22,22,0,0,1,1.1,7.1,36.1,36.1,0,0,1-1.9,12.5,25,25,0,0,1-5,8.8,23.1,23.1,0,0,1-7.4,5.4,32.8,32.8,0,0,1-8.8,2.4l-1.7-6.4a22.5,22.5,0,0,0,6.2-1.7,21.6,21.6,0,0,0,4.9-3.1,15.3,15.3,0,0,0,3.4-4.2,18,18,0,0,0,1.7-5.1,8.9,8.9,0,0,1-3.4,2.1,12.8,12.8,0,0,1-5,.8h-.1a13.4,13.4,0,0,1-4.8-.8,12,12,0,0,1-4.4-2.5,12.6,12.6,0,0,1-3.3-4.2A13.8,13.8,0,0,1,397.2,164.6Zm7.9-.5a7.5,7.5,0,0,0,.6,3.1,6.8,6.8,0,0,0,1.8,2.3,9.5,9.5,0,0,0,2.4,1.4,9.7,9.7,0,0,0,2.9.4,12.1,12.1,0,0,0,4.5-.8,5.8,5.8,0,0,0,2.7-2,11,11,0,0,0,.2-2.5,9.7,9.7,0,0,0-.5-3.4,8.1,8.1,0,0,0-1.5-3.1,8.7,8.7,0,0,0-2.5-2.1,7.4,7.4,0,0,0-3.4-.7,7.3,7.3,0,0,0-5.2,1.9A7.7,7.7,0,0,0,405.1,164.1Z" style="fill:#354877"/><path d="M432.3,176.8H468v2.9h-6.2v16.7h6v2.8H452.9V179.7h-6.1l-4.9,19.7H433l4.9-19.7h-5.6Zm1.6-11.3h32.5v2.8H433.9Z" style="fill:#354877"/><path d="M172.4,278.2v27.4a15.4,15.4,0,0,1-15.3,15.3H111v-6.1h34.8a7.6,7.6,0,0,0,7.6-7.6V284.4H110.9v-6.2h31.9c6.9,0,10.6-6.1,10.6-10.6V250.7H110.9v-6.1h61.5V266a17.5,17.5,0,0,1-4.8,12.2Z" style="fill:#fff"/><path d="M242.2,279.5v20.6h24.1v6.3H242.2v15.1H222.3V306.4h-35v-6.3h5v-27h30V257.9H210.6l-3.1,11h-18l7.6-26.7H215l-2.7,9.3h52.2v6.4H242.2v15.2h20v6.4Zm-30.8,20.6h10.9V279.5H211.4Z" style="fill:#fff"/><path d="M356.6,285.8a7.9,7.9,0,0,1-7.9,8H338.4V315h19.7v6.4H317.8V297.9l-14.5,23.5H279.5l17.9-27.6H280.6V265.6h43.7l5.1-11.4H305.3l-4.4,9.4H279.8l10-21.3h21.1l-2.6,5.6h45.5l-8.1,17.7h10.9Zm-56.1,1.6h7.7V272h-7.7ZM337.2,272h-8.1v15.4h5.8a2.3,2.3,0,0,0,2.3-2.3Z" style="fill:#fff"/><path d="M375.3,286.3h71.1v21.6H430.5l15.1,8.3h4.7v5.3H422.9l-12.1-6.9-12.2,6.9H371.3v-5.3h4.6l15.2-8.3H375.3ZM407,242.4v4.9h5.7v-4.9h16.2v4.9h20.4V255a8,8,0,0,1-8,7.9H428.9v3.8h20.4v9.1a7.9,7.9,0,0,1-8,7.9H430.6v-5.6h2.2a1.5,1.5,0,0,0,1.6-1.5v-4.4h-5.5v11.7H412.7V272.2h-7.6l-10.8,11.7H374.9L386,272.2H371.8V257.3h18.7v-4.5h-19v-5.5h19v-4.9Zm-20.3,24.3h3.8v-3.8h-3.8Zm33.9,29.5v6.3l7,3.8V292.6H394v13.7l7-3.8v-6.3ZM407,257.3h5.7v-4.5H407Zm0,9.4h5.7v-3.8H407Zm21.9-13.9v4.5h3.9a1.6,1.6,0,0,0,1.6-1.6v-2.9Z" style="fill:#fff"/><path d="M484.2,242.1l-3.4,19.8H483v59.5H468.4v-42h-5.2l6.2-37.3Zm17.4,34.2h4.7l-4.4,28.6L513,315.1h29.4v6.4H506.5l-6.3-5.7-.8,5.7H486.1l2.6-16.3-2.4-2.2V290.4l4.1,3.9,1.7-10.2h-4.8l4.6-33.8H487v-6.4h19.1Zm6-28.8h7.5v-5h12.5v5H541v13.2h1.4v6.2H541v5.5a8.2,8.2,0,0,1-8.4,7.9h-5v6.6h12.5v6.4H527.6v5.3h14v6.2h-14v8H515.1v-8h-9.8v-6.2h9.8v-5.3h-8.3v-6.4h8.3v-6.6h-7.5V274h7.5v-7.1h-9v-6.2h9v-7h-7.5Zm20,6.2v7H531v-7Zm1,20.3a2.3,2.3,0,0,0,2.4-2.5v-4.6h-3.4V274Z" style="fill:#fff"/><path d="M555.3,287.8h6.5V248.4h15.1l1.5-6.2h19.5l-1.6,6.2h28.1v32l10-4.5v9.5l-10,4.5v21.7a9.4,9.4,0,0,1-9.5,9.5H589.2v-6.3h14.7a2.3,2.3,0,0,0,2.3-2.4V298.2l-50.9,23.1v-9.5l38.9-17.7H555.3ZM580,261.3h26.2v-6.6H580Zm0,13.4h26.2v-7H580Zm0,13.1h26.2V281H580Z" style="fill:#fff"/><path d="M167.6,268.2v27.3a15.3,15.3,0,0,1-15.3,15.3H106.2v-6.1H141a7.6,7.6,0,0,0,7.6-7.6V274.4H106.1v-6.2H138c7,0,10.6-6.1,10.6-10.6V240.7H106.1v-6.2h61.5V256a17.9,17.9,0,0,1-4.7,12.2Z" style="fill:#f75e9c"/><path d="M237.4,269.4V290h24.1v6.4H237.4v15H217.6v-15H182.5V290h5V263.1h30.1V247.8H205.8l-3.1,11h-18l7.6-26.7h17.9l-2.7,9.4h52.2v6.3H237.4v15.3h20.1v6.3ZM206.6,290h11V269.4h-11Z" style="fill:#f75e9c"/><path d="M351.8,275.8a7.9,7.9,0,0,1-7.9,7.9H333.7V305h19.6v6.3H313V287.8l-14.5,23.5H274.7l17.9-27.6H275.8V255.5h43.7l5.1-11.3H300.5l-4.4,9.3H275l10.1-21.2h21.1l-2.6,5.5H349l-8.1,17.7h10.9Zm-56.1,1.6h7.7V262h-7.7ZM332.4,262h-8.1v15.4h5.8a2.3,2.3,0,0,0,2.3-2.4Z" style="fill:#f75e9c"/><path d="M370.5,276.2h71.1v21.7H425.7l15.1,8.3h4.7v5.2H418.2L406,304.6l-12.2,6.8H366.5v-5.2h4.6l15.2-8.3H370.5Zm31.7-43.8v4.8H408v-4.8h16.1v4.8h20.4v7.7a8,8,0,0,1-7.9,8H424.1v3.7h20.4v9.2a8,8,0,0,1-7.9,7.9H425.9v-5.6H428a1.6,1.6,0,0,0,1.6-1.6v-4.3h-5.5v11.7H408V262.2h-7.7l-10.8,11.7H370.1l11.2-11.7H367V247.3h18.7v-4.6h-19v-5.5h19v-4.8Zm-20.3,24.2h3.8v-3.7h-3.8Zm33.9,29.6v6.2l7,3.9V282.6H389.2v13.7l7-3.9v-6.2Zm-13.6-38.9H408v-4.6h-5.8Zm0,9.3H408v-3.7h-5.8Zm21.9-13.9v4.6H428a1.6,1.6,0,0,0,1.6-1.6v-3Z" style="fill:#f75e9c"/><path d="M479.4,232,476,251.9h2.2v59.4H463.7v-42h-5.3l6.3-37.3Zm17.4,34.3h4.8l-4.5,28.6,11.1,10.2h29.4v6.3H501.7l-6.3-5.7-.8,5.7H481.3l2.6-16.2-2.4-2.3V280.3l4.2,3.9,1.6-10.2h-4.7l4.5-33.8h-4.9v-6.3h19.1Zm6-28.8h7.5v-5h12.5v5h13.5v13.1h1.3v6.3h-1.3v5.4c0,4.4-3.9,8-8.5,8h-5v6.6h12.5v6.3H522.8v5.3h14.1v6.3H522.8v7.9H510.3v-7.9h-9.7v-6.3h9.7v-5.3H502v-6.3h8.3v-6.6h-7.5v-6.4h7.5v-7h-9v-6.3h9v-6.9h-7.5Zm20,6.2v6.9h3.4v-6.9Zm1,20.2a2.3,2.3,0,0,0,2.4-2.4v-4.6h-3.4v7Z" style="fill:#f75e9c"/><path d="M550.5,277.7H557V238.3h15.2l1.5-6.2h19.5l-1.6,6.2h28.1v32.1l9.9-4.6v9.6l-9.9,4.5v21.7a9.6,9.6,0,0,1-9.6,9.5H584.5v-6.4h14.6a2.3,2.3,0,0,0,2.3-2.3V288.2l-50.9,23.1v-9.6l38.9-17.6H550.5Zm24.7-26.4h26.2v-6.6H575.2Zm0,13.4h26.2v-7.1H575.2Zm0,13h26.2v-6.8H575.2Z" style="fill:#f75e9c"/><rect x="213" y="345.2" width="324" height="64.11" style="fill:#fbb400"/><path d="M240.1,355.8a1.9,1.9,0,1,1,3.1,2.3l-1.6,2h22.6a1.7,1.7,0,0,1,1.6,1,1.7,1.7,0,0,1-.3,1.9l-6.1,7.2h5.2a3.9,3.9,0,0,1,3.9,3.9v6.3a4,4,0,0,1-3.9,3.9h-7.9v11.1a1.2,1.2,0,0,0,1.2,1.3h12a1,1,0,0,1,1,1.1h0a1,1,0,0,1-1,1H256.7a4,4,0,0,1-4-4V384.3h-8.3l-7.2,11.4c-1.4,2.2-2.5,2.8-4.6,2.8H228a1,1,0,0,1-1-1.1h0a1,1,0,0,1,1-1.1h2.2a2.7,2.7,0,0,0,2.4-1.3l7.2-10.7h-5.6a4,4,0,0,1-4-3.9v-6.3a4,4,0,0,1,4-3.9h20l6.4-7.5c.1,0,.1-.2,0-.3H239.7l-3.2,3.9c-1.2,1.3-1.8,1.6-3.1,1.6H231a1.1,1.1,0,0,1-1.1-1.1h0a1.1,1.1,0,0,1,1.1-1.2h.1a1.7,1.7,0,0,0,1.6-.7Zm-4.7,26.4h11.8v-9.9H235.4a1.3,1.3,0,0,0-1.3,1.3v7.3A1.3,1.3,0,0,0,235.4,382.2Zm15.7-9.9v9.9h12.2a1.3,1.3,0,0,0,1.3-1.3v-7.3a1.3,1.3,0,0,0-1.3-1.3Z" style="fill:#fff"/><path d="M277.9,364.4V357a1.9,1.9,0,1,1,3.7,0v7.4h4a1.1,1.1,0,0,1,1.1,1.2,1,1,0,0,1-1.1,1.1h-4v9.1l1.9-2a1.8,1.8,0,0,1,2.5-.3,1.7,1.7,0,0,1,0,2.7l-4.4,4.7v14a3.9,3.9,0,0,1-3.8,3.9h-3.4a1.1,1.1,0,0,1-1.1-1h0a1,1,0,0,1,1.1-1.1h2.2a1.3,1.3,0,0,0,1.3-1.3V384.9c-1.1,1-2.1.8-3.2.8h-2.1a.9.9,0,0,1-1-1h0a.9.9,0,0,1,1-1h.3a2.1,2.1,0,0,0,1.8-.5l3.2-3.4V366.7h-4.5a1.1,1.1,0,0,1-1-1.1,1.1,1.1,0,0,1,1-1.2Zm33.5-8.7a3.9,3.9,0,0,1,3.8,4v20.8a3.9,3.9,0,0,1-3.8,4H304v12.4a2.1,2.1,0,0,1-2,2,2,2,0,0,1-1.9-2V384.5h-7.5a4,4,0,0,1-3.8-4V359.7a4,4,0,0,1,3.8-4ZM292.6,369h7.5V357.9h-6.2a1.3,1.3,0,0,0-1.3,1.3Zm1.3,13.4h6.2V371.2h-7.5V381A1.4,1.4,0,0,0,293.9,382.4ZM304,357.9V369h7.5v-9.8a1.3,1.3,0,0,0-1.3-1.3Zm7.5,23.1v-9.8H304v11.2h6.2A1.4,1.4,0,0,0,311.5,381Z" style="fill:#fff"/><path d="M337.8,359.6l-11.7,9.3c-2.8,2.2-4.3,1.8-6.9,1.8h-2.5a1.1,1.1,0,1,1,0-2.2h1.5a4.4,4.4,0,0,0,3.7-1.2l15-11.6a1.8,1.8,0,0,1,.9-.4,1.2,1.2,0,0,1,.8.4l15.1,11.6a4.5,4.5,0,0,0,3.6,1.2h1.5a1.1,1.1,0,0,1,0,2.2h-2.5c-2.5,0-4,.4-6.9-1.8ZM352,371.8a1,1,0,0,1,1.1,1.1,1.1,1.1,0,0,1-1.1,1H339.7v6.5h16.4a1.1,1.1,0,0,1,0,2.2H339.7v13.6h19a1,1,0,0,1,1,1.1,1,1,0,0,1-1,1.1H316.9a1,1,0,0,1-1-1.1,1,1,0,0,1,1-1.1h19V382.6H319.5a1.1,1.1,0,0,1,0-2.2h16.4v-6.5H323.6a1,1,0,0,1-1-1,1,1,0,0,1,1-1.1ZM323,388a1.7,1.7,0,0,1,1.6-2.1h.1a1.8,1.8,0,0,1,1.4.4,2.1,2.1,0,0,1,.7,1.3l.4,3.2a1.3,1.3,0,0,0,1.3,1.3h.4a1.1,1.1,0,0,1,1,1.1h0a1.1,1.1,0,0,1-1,1.1h-1.7c-2.1,0-3.5-1.8-3.8-4Zm29.4,2.3c-.3,2.2-1.7,4-3.8,4h-1.7a1.1,1.1,0,0,1-1-1.1h0a1.1,1.1,0,0,1,1-1.1h.4a1.3,1.3,0,0,0,1.3-1.3l.4-3.2a2.1,2.1,0,0,1,.7-1.3,1.8,1.8,0,0,1,1.4-.4h0a1.7,1.7,0,0,1,1.7,2.1Z" style="fill:#fff"/><path d="M432,394.6c2.5,0,2.7,3.2,0,3.2H404.2c-1.7,0-2.9-.3-3.9-1.7l-2.2-3a5.3,5.3,0,0,1-.6,1l-2.9,3.9a2.1,2.1,0,0,1-2.7.7,2,2,0,0,1-.5-2.8l3-4.1c.9-1.3,1.4-2.5,1.4-5.6V368.8a1.4,1.4,0,0,0-1.3-1.3h-2.8a1,1,0,0,1-1-1.1,1.1,1.1,0,0,1,1-1h4a3.9,3.9,0,0,1,3.8,3.9v19.6l2.7,3.9c1.2,1.7,2.1,1.8,5,1.8Zm-34-35.3a1.3,1.3,0,0,0,1.3.8h.1a1.1,1.1,0,0,1,1.1,1h0a1.1,1.1,0,0,1-1.1,1.1h-2.5c-1.1,0-1.6-.3-2.5-1.6l-1.6-2.6a1.8,1.8,0,1,1,3-2Zm33.5,5.2a1.1,1.1,0,0,1,0,2.2H420.7v8.4H433a1.2,1.2,0,0,1,1.1,1.2,1,1,0,0,1-1.1,1H421.5l11.8,12.2a1.8,1.8,0,0,1-.1,2.6,1.9,1.9,0,0,1-2.6,0l-11.8-12.2L407,392.1a2,2,0,0,1-2.7,0,2,2,0,0,1,0-2.6L416,377.3H404.6a.9.9,0,0,1-1-1,1.1,1.1,0,0,1,1-1.2h12.3v-8.4H406.1a1.1,1.1,0,0,1,0-2.2Zm-24-7a1.8,1.8,0,0,1,1.5-2.4h.1a1.6,1.6,0,0,1,1.3.4,2.9,2.9,0,0,1,.8,1.3l.6,2.5c.2.7.6,1.3,1.3,1.3h.1a1,1,0,0,1,1,1.1h0a1,1,0,0,1-1,1.1h-1.3c-2.1,0-3-1.3-3.9-3.8Zm22.1,1.5c-.9,2.5-1.8,3.8-3.8,3.8h-1.4a1,1,0,0,1-1-1.1h0a1,1,0,0,1,1-1.1h.1c.7,0,1.1-.6,1.3-1.3l.7-2.5a2.1,2.1,0,0,1,.7-1.3,1.8,1.8,0,0,1,1.4-.4h0a1.7,1.7,0,0,1,1.5,2.4Z" style="fill:#fff"/><path d="M437.1,373c-2.6,1-3.3-2-1.7-2.7l3.8-1.7a9.3,9.3,0,0,1,3.8-1.1h4.2a1,1,0,0,1,1,1h0a1.1,1.1,0,0,1-1,1h-.6a3.4,3.4,0,0,0-1.9.3Zm11.6-1.6a2,2,0,1,0,3.9,0V357a2,2,0,1,0-3.9,0v3.3H435.9a1.1,1.1,0,1,0,0,2.2h12.8Zm22.5,4.8a3.9,3.9,0,0,1,3.9,4v14.7a3.8,3.8,0,0,1-3.9,3.9h-6.4a1,1,0,0,1-1-1h0a1,1,0,0,1,1-1.1h5.3a1.2,1.2,0,0,0,1.2-1.3v-3H441.4v4.5a2,2,0,0,1-1.9,1.9h0a1.9,1.9,0,0,1-1.9-1.9V380.2a3.9,3.9,0,0,1,3.8-4Zm.1,3.5a1.3,1.3,0,0,0-1.2-1.4H442.7a1.3,1.3,0,0,0-1.3,1.4v3.5h29.9Zm-29.9,10.5h29.9v-4.9H441.4ZM465.2,371a1.3,1.3,0,0,1-1.3-1.3V357.1a1.8,1.8,0,0,0-1.8-1.9,1.8,1.8,0,0,0-1.9,1.9v12a3.8,3.8,0,0,0,3.8,4h13.2a1,1,0,0,0,1.1-1.1,1,1,0,0,0-1.1-1Zm9.8-13.7c.8-.6,1.7-1,2.5-.3s1.1,1.9.3,2.5l-5.8,4.1c-1.3,1-1.9,1.5-3.1,1.5h-3.2a1.1,1.1,0,0,1-1-1.1h0a1.1,1.1,0,0,1,1-1h.8a2.5,2.5,0,0,0,1.6-.7Z" style="fill:#fff"/><path d="M487.9,359.8H516a4,4,0,0,1,3.9,4v23a4,4,0,0,1-3.9,4h-6.4a1.1,1.1,0,1,1,0-2.2h5.2a1.2,1.2,0,0,0,1.2-1.3v-24a1.2,1.2,0,0,0-1.2-1.3H487l-1.6,4.3c-1,2.4-1.7,3.8-3.8,3.8H480a1.1,1.1,0,0,1-1-1.1h0a1.1,1.1,0,0,1,1-1.1h.1c.7,0,1-.6,1.3-1.3l3.7-9.7a2.7,2.7,0,0,1,.7-1.3,1.5,1.5,0,0,1,1.4-.4h.1a1.8,1.8,0,0,1,1.5,2.4Zm33.5,36.8a.9.9,0,0,1,1,1,1,1,0,0,1-1,1.1H489.2a3.9,3.9,0,0,1-3.8-4V371.4a3.9,3.9,0,0,1,3.8-3.9h17.6a4,4,0,0,1,3.8,3.9v9.1a4,4,0,0,1-3.8,4H489.1v10.7a1.4,1.4,0,0,0,1.3,1.4Zm-14.6-25.7a1.3,1.3,0,0,0-1.3-1.3H490.4a1.3,1.3,0,0,0-1.3,1.3v11.4h16.4a1.3,1.3,0,0,0,1.3-1.3Z" style="fill:#fff"/><g style="clip-path:url(#clip-path-3)"><g style="opacity:0.30000000000000004"><polygon points="-0.7 988.4 2.4 990.1 749.3 585 746.2 583.3 -0.7 988.4" style="fill:#93d1ce"/><polygon points="-0.7 959.2 2.4 960.9 749.3 555.8 746.2 554.1 -0.7 959.2" style="fill:#93d1ce"/><polygon points="-0.7 930 2.4 931.7 749.3 526.6 746.2 524.9 -0.7 930" style="fill:#93d1ce"/><polygon points="-0.7 900.8 2.4 902.5 749.3 497.4 746.2 495.7 -0.7 900.8" style="fill:#93d1ce"/><polygon points="-0.7 871.6 2.4 873.3 749.3 468.2 746.2 466.6 -0.7 871.6" style="fill:#93d1ce"/><polygon points="-0.7 842.5 2.4 844.2 749.3 439.1 746.2 437.4 -0.7 842.5" style="fill:#93d1ce"/><polygon points="-0.7 813.3 2.4 815 749.3 409.9 746.2 408.2 -0.7 813.3" style="fill:#93d1ce"/><polygon points="-0.7 784.1 2.4 785.8 749.3 380.7 746.2 379 -0.7 784.1" style="fill:#93d1ce"/><polygon points="-0.7 754.9 2.4 756.6 749.3 351.5 746.2 349.8 -0.7 754.9" style="fill:#93d1ce"/></g><path d="M633.4,560.1v55.5a18.3,18.3,0,0,1-18.2,18.2h0a18.3,18.3,0,0,1-18.3-18.2V560.1a18.2,18.2,0,0,1,18.3-18.2h0A18.2,18.2,0,0,1,633.4,560.1Z" style="fill:#354877"/><path d="M667.1,278.1V395a15.6,15.6,0,0,0,15.5,15.6h0A15.5,15.5,0,0,0,698.1,395V278.1a15.5,15.5,0,0,0-15.5-15.6h0A15.6,15.6,0,0,0,667.1,278.1Z" style="fill:#354877"/><path d="M596.9,280v37.9a10.3,10.3,0,0,1-10.2,10.3h0a10.3,10.3,0,0,1-10.3-10.3V280a10.3,10.3,0,0,1,10.3-10.3h0A10.3,10.3,0,0,1,596.9,280Z" style="fill:#354877"/><path d="M698.1,487.9V637.6A40.3,40.3,0,0,1,657.8,678h0a40.3,40.3,0,0,1-40.3-40.4V487.9a40.2,40.2,0,0,1,40.3-40.3h0A40.2,40.2,0,0,1,698.1,487.9Z" style="fill:#fff"/><path d="M576.2,357.3v79a8.9,8.9,0,0,1-8.9,8.9h0a8.9,8.9,0,0,1-8.8-8.9v-79a8.8,8.8,0,0,1,8.8-8.8h0A8.8,8.8,0,0,1,576.2,357.3Z" style="fill:#fff"/><path d="M509.2,518.9v82.9a12.9,12.9,0,0,1-12.9,12.9h0a12.8,12.8,0,0,1-12.8-12.9V518.9a12.8,12.8,0,0,1,12.8-12.8h0A12.8,12.8,0,0,1,509.2,518.9Z" style="fill:#fff"/><path d="M689.8,229.4v85.7a45.3,45.3,0,0,0,45.3,45.3h0a45.3,45.3,0,0,0,45.4-45.3V229.4A45.4,45.4,0,0,0,735.1,184h0A45.3,45.3,0,0,0,689.8,229.4Z" style="fill:#fff"/><path d="M772.1,447.6V715.8a37,37,0,0,1-37,37h0a37,37,0,0,1-37-37V447.6a37,37,0,0,1,37-37h0A36.9,36.9,0,0,1,772.1,447.6Z" style="fill:#f75e9c"/><path d="M660,448.9v79.7a13.4,13.4,0,0,1-13.3,13.3h0a13.3,13.3,0,0,1-13.3-13.3V448.9a13.3,13.3,0,0,1,13.3-13.3h0A13.4,13.4,0,0,1,660,448.9Z" style="fill:#f75e9c"/><path d="M806.7,346.1V534.7a35.8,35.8,0,0,1-35.8,35.8h0a35.8,35.8,0,0,1-35.8-35.8V346.1a35.8,35.8,0,0,1,35.8-35.8h0A35.8,35.8,0,0,1,806.7,346.1Z" style="fill:#93d1ce"/><path d="M681.4,404.6V567.3a14.4,14.4,0,0,1-14.3,14.4h0a14.4,14.4,0,0,1-14.3-14.4V404.6a14.3,14.3,0,0,1,14.3-14.3h0A14.3,14.3,0,0,1,681.4,404.6Z" style="fill:#93d1ce"/><path d="M586.7,455.7v70.7a10.5,10.5,0,0,1-10.5,10.5h0a10.5,10.5,0,0,1-10.5-10.5V455.7a10.5,10.5,0,0,1,10.5-10.5h0A10.5,10.5,0,0,1,586.7,455.7Z" style="fill:#93d1ce"/><path d="M617.5,620.4V857.9a24.9,24.9,0,0,0,24.8,24.9h0a24.9,24.9,0,0,0,24.8-24.9V620.4a24.8,24.8,0,0,0-24.8-24.8h0A24.8,24.8,0,0,0,617.5,620.4Z" style="fill:#fbb400"/><path d="M660,369.7v78.1a21.4,21.4,0,0,1-21.3,21.3h0a21.3,21.3,0,0,1-21.2-21.3V369.7a21.2,21.2,0,0,1,21.2-21.2h0A21.3,21.3,0,0,1,660,369.7Z" style="fill:#fbb400"/><path d="M770.9,253.4V467.5a25.4,25.4,0,0,1-25.4,25.4h0A25.5,25.5,0,0,1,720,467.5V253.4a25.5,25.5,0,0,1,25.5-25.5h0A25.5,25.5,0,0,1,770.9,253.4Z" style="fill:#fbb400"/><path d="M35.2,611.6V448.1a18.2,18.2,0,0,1,18.3-18.2h0a18.2,18.2,0,0,1,18.3,18.2V611.6a18.3,18.3,0,0,1-18.3,18.3h0A18.3,18.3,0,0,1,35.2,611.6Z" style="fill:#354877"/><path d="M103.7,458.2v-75a23,23,0,0,1,23.1-23.1h0a23,23,0,0,1,23.1,23.1v75a23.1,23.1,0,0,1-23.1,23.2h0A23.1,23.1,0,0,1,103.7,458.2Z" style="fill:#354877"/><path d="M-3.2,351.1V272.7a13.6,13.6,0,0,1,13.6-13.6h0a13.6,13.6,0,0,1,13.7,13.6v78.4a13.7,13.7,0,0,1-13.7,13.7h0A13.6,13.6,0,0,1-3.2,351.1Z" style="fill:#354877"/><path d="M29.1,434.3V280.4a21.3,21.3,0,0,1,21.3-21.3h0a21.3,21.3,0,0,1,21.4,21.3V434.3a21.3,21.3,0,0,1-21.4,21.3h0A21.3,21.3,0,0,1,29.1,434.3Z" style="fill:#fff"/><path d="M223.4,488.9V429.6a10.8,10.8,0,0,1,10.8-10.8h0a10.7,10.7,0,0,1,10.7,10.8v59.3a10.8,10.8,0,0,1-10.7,10.8h0A10.8,10.8,0,0,1,223.4,488.9Z" style="fill:#fff"/><path d="M-27.6,677V560.1A20.8,20.8,0,0,1-6.8,539.3h0A20.8,20.8,0,0,1,14,560.1V677A20.8,20.8,0,0,1-6.8,697.8h0A20.8,20.8,0,0,1-27.6,677Z" style="fill:#fff"/><path d="M142.4,606.1V374.9a14.8,14.8,0,0,1,14.8-14.8h0a14.9,14.9,0,0,1,14.9,14.8V606.1A14.9,14.9,0,0,1,157.2,621h0A14.9,14.9,0,0,1,142.4,606.1Z" style="fill:#f75e9c"/><path d="M61.5,331.5V288.1a10.3,10.3,0,0,1,10.3-10.2h0A10.2,10.2,0,0,1,82,288.1v43.4a10.2,10.2,0,0,1-10.2,10.2h0A10.2,10.2,0,0,1,61.5,331.5Z" style="fill:#f75e9c"/><path d="M117.6,555.5V443.8a13.9,13.9,0,0,0-13.9-13.9h0a13.9,13.9,0,0,0-13.9,13.9V555.5a14,14,0,0,0,13.9,14h0A14,14,0,0,0,117.6,555.5Z" style="fill:#f75e9c"/><path d="M-19.4,456.7V380.9A16.2,16.2,0,0,1-3.2,364.8h0a16.1,16.1,0,0,1,16.1,16.1v75.8A16.1,16.1,0,0,1-3.2,472.8h0A16.2,16.2,0,0,1-19.4,456.7Z" style="fill:#f75e9c"/><path d="M61.5,526.2v126a21.1,21.1,0,0,0,21.1,21.1h0a21.1,21.1,0,0,0,21.1-21.1v-126a21.2,21.2,0,0,0-21.1-21.1h0A21.2,21.2,0,0,0,61.5,526.2Z" style="fill:#93d1ce"/><path d="M5.1,492.3V396.5a23.9,23.9,0,0,1,24-23.9h0A23.9,23.9,0,0,1,53,396.5v95.8a24,24,0,0,1-23.9,24h0A24,24,0,0,1,5.1,492.3Z" style="fill:#93d1ce"/><path d="M157.2,536.6V449a19.1,19.1,0,0,1,19.2-19.1h0A19.1,19.1,0,0,1,195.6,449v87.6a19.1,19.1,0,0,1-19.2,19.1h0A19.1,19.1,0,0,1,157.2,536.6Z" style="fill:#93d1ce"/><path d="M89.8,392.1V291.8a13.9,13.9,0,0,1,13.9-13.9h0a13.9,13.9,0,0,1,13.9,13.9V392.1A13.9,13.9,0,0,1,103.7,406h0A13.9,13.9,0,0,1,89.8,392.1Z" style="fill:#93d1ce"/><path d="M12.9,298.7V219.4a17.3,17.3,0,0,1,17.3-17.3h0a17.3,17.3,0,0,1,17.2,17.3v79.3A17.2,17.2,0,0,1,30.2,316h0A17.3,17.3,0,0,1,12.9,298.7Z" style="fill:#93d1ce"/><path d="M176.4,244.8V223a9.6,9.6,0,0,1,9.7-9.7h0a9.7,9.7,0,0,1,9.7,9.7v21.8a9.7,9.7,0,0,1-9.7,9.7h0A9.6,9.6,0,0,1,176.4,244.8Z" style="fill:#93d1ce"/><path d="M157.2,674.7V453a23,23,0,0,0-23.1-23.1h0A23.1,23.1,0,0,0,110.9,453V674.7a23.1,23.1,0,0,0,23.2,23.1h0A23,23,0,0,0,157.2,674.7Z" style="fill:#fbb400"/><path d="M24.1,416.8v-99A27.7,27.7,0,0,0-3.5,290.2h0a27.7,27.7,0,0,0-27.6,27.6v99A27.6,27.6,0,0,0-3.5,444.4h0A27.6,27.6,0,0,0,24.1,416.8Z" style="fill:#fbb400"/><path d="M96.4,221.6V366.3A19.4,19.4,0,0,1,77,385.8h0a19.5,19.5,0,0,1-19.5-19.5V221.6A19.5,19.5,0,0,1,77,202.1h0A19.5,19.5,0,0,1,96.4,221.6Z" style="fill:#fbb400"/><path d="M149.9,292.4V257.3A11.1,11.1,0,0,1,161,246.2h0a11.1,11.1,0,0,1,11.1,11.1v35.1A11.1,11.1,0,0,1,161,303.5h0A11.1,11.1,0,0,1,149.9,292.4Z" style="fill:#fbb400"/><path d="M319.1,236.7V376.5a29.3,29.3,0,0,0,29.3,29.2h0a29.2,29.2,0,0,0,29.2-29.2V236.7a29.3,29.3,0,0,0-29.2-29.3h0A29.3,29.3,0,0,0,319.1,236.7Z" style="fill:#354877"/><path d="M383.7,405V568.5A18.3,18.3,0,0,0,402,586.8h0a18.3,18.3,0,0,0,18.3-18.3V405A18.2,18.2,0,0,0,402,386.8h0A18.2,18.2,0,0,0,383.7,405Z" style="fill:#354877"/><path d="M490.9,285.7v51.7a17.1,17.1,0,0,0,17,17.1h0a17.1,17.1,0,0,0,17-17.1V285.7a17,17,0,0,0-17-17h0A17,17,0,0,0,490.9,285.7Z" style="fill:#354877"/><path d="M452.2,558.4v75.1a23.2,23.2,0,0,0,23.1,23.1h0a23.1,23.1,0,0,0,23.1-23.1V558.4a23,23,0,0,0-23.1-23.1h0A23.1,23.1,0,0,0,452.2,558.4Z" style="fill:#354877"/><path d="M305.8,450.8v72.8a11.7,11.7,0,0,0,11.7,11.7h0a11.8,11.8,0,0,0,11.7-11.7V450.8a11.7,11.7,0,0,0-11.7-11.7h0A11.7,11.7,0,0,0,305.8,450.8Z" style="fill:#354877"/><path d="M459.5,22.5V131.7A14.5,14.5,0,0,1,445,146.2h0a14.5,14.5,0,0,1-14.5-14.5V22.5A14.5,14.5,0,0,1,445,8h0A14.5,14.5,0,0,1,459.5,22.5Z" style="fill:#354877"/><path d="M524.9,24.3V59.7a9.6,9.6,0,0,0,9.6,9.6h0a9.6,9.6,0,0,0,9.6-9.6V24.3a9.6,9.6,0,0,0-9.6-9.6h0A9.6,9.6,0,0,0,524.9,24.3Z" style="fill:#354877"/><path d="M377.6,582.4V736.2a21.4,21.4,0,0,0,21.3,21.4h0a21.4,21.4,0,0,0,21.4-21.4V582.4A21.4,21.4,0,0,0,398.9,561h0A21.4,21.4,0,0,0,377.6,582.4Z" style="fill:#fff"/><path d="M430.5,218.3V358a37.6,37.6,0,0,0,37.6,37.7h0A37.7,37.7,0,0,0,505.8,358V218.3a37.6,37.6,0,0,0-37.7-37.6h0A37.6,37.6,0,0,0,430.5,218.3Z" style="fill:#fff"/><path d="M544.3,96.5v73.7a8.3,8.3,0,0,0,8.2,8.3h0a8.3,8.3,0,0,0,8.3-8.3V96.5a8.3,8.3,0,0,0-8.3-8.3h0A8.3,8.3,0,0,0,544.3,96.5Z" style="fill:#fff"/><path d="M606.8,247.3v77.3a12,12,0,0,0,12,12h0a12,12,0,0,0,12-12V247.3a12,12,0,0,0-12-12h0A12,12,0,0,0,606.8,247.3Z" style="fill:#fff"/><path d="M571.9,527.7v59.4a10.7,10.7,0,0,0,10.8,10.7h0a10.8,10.8,0,0,0,10.8-10.7V527.7A10.8,10.8,0,0,0,582.7,517h0A10.7,10.7,0,0,0,571.9,527.7Z" style="fill:#fff"/><path d="M240.1,279.6v72.3a15.5,15.5,0,0,0,15.6,15.5h0a15.4,15.4,0,0,0,15.5-15.5V279.6A15.5,15.5,0,0,0,255.7,264h0A15.6,15.6,0,0,0,240.1,279.6Z" style="fill:#fff"/><path d="M261.5,21.5v71a6.9,6.9,0,0,0,6.8,6.9h0a6.8,6.8,0,0,0,6.8-6.9v-71a6.8,6.8,0,0,0-6.8-6.8h0A6.9,6.9,0,0,0,261.5,21.5Z" style="fill:#fff"/><path d="M214.8,586.5v36.1a8.1,8.1,0,0,0,8.2,8.2h0a8.2,8.2,0,0,0,8.2-8.2V586.5a8.2,8.2,0,0,0-8.2-8.2h0A8.2,8.2,0,0,0,214.8,586.5Z" style="fill:#fff"/><path d="M320.9,339.6V456.5a21,21,0,0,0,20.9,20.9h0a20.9,20.9,0,0,0,20.8-20.9V339.6a20.8,20.8,0,0,0-20.8-20.8h0A20.9,20.9,0,0,0,320.9,339.6Z" style="fill:#fff"/><path d="M438.3-22.9V57A42.4,42.4,0,0,1,396,99.4h0A42.3,42.3,0,0,1,353.7,57V-22.9A42.3,42.3,0,0,1,396-65.2h0A42.3,42.3,0,0,1,438.3-22.9Z" style="fill:#fff"/><path d="M490.9,410.5V641.7a14.9,14.9,0,0,0,14.9,14.9h0a14.9,14.9,0,0,0,14.8-14.9V410.5a14.8,14.8,0,0,0-14.8-14.8h0A14.9,14.9,0,0,0,490.9,410.5Z" style="fill:#f75e9c"/><path d="M361.5,180.7V430.9A34.5,34.5,0,0,0,396,465.5h0a34.6,34.6,0,0,0,34.5-34.6V180.7A34.5,34.5,0,0,0,396,146.2h0A34.4,34.4,0,0,0,361.5,180.7Z" style="fill:#f75e9c"/><path d="M466.1,461.1V572.9a13.9,13.9,0,0,1-13.9,13.9h0a13.9,13.9,0,0,1-13.9-13.9V461.1a13.9,13.9,0,0,1,13.9-13.9h0A13.9,13.9,0,0,1,466.1,461.1Z" style="fill:#f75e9c"/><path d="M288,433.7v54.4a12.2,12.2,0,0,0,12.2,12.3h0a12.3,12.3,0,0,0,12.3-12.3V433.7a12.3,12.3,0,0,0-12.3-12.3h0A12.2,12.2,0,0,0,288,433.7Z" style="fill:#f75e9c"/><path d="M329.2,560v75.7a16.2,16.2,0,0,0,16.1,16.2h0a16.3,16.3,0,0,0,16.2-16.2V560a16.2,16.2,0,0,0-16.2-16.2h0A16.1,16.1,0,0,0,329.2,560Z" style="fill:#f75e9c"/><path d="M466.1,181.9v74.4a12.5,12.5,0,0,0,12.4,12.4h0a12.4,12.4,0,0,0,12.4-12.4V181.9a12.4,12.4,0,0,0-12.4-12.4h0A12.5,12.5,0,0,0,466.1,181.9Z" style="fill:#f75e9c"/><path d="M329.2,86V262a33.3,33.3,0,0,0,33.4,33.4h0A33.4,33.4,0,0,0,396,262V86a33.4,33.4,0,0,0-33.4-33.4h0A33.3,33.3,0,0,0,329.2,86Z" style="fill:#93d1ce"/><path d="M410.1,490.4v-126a21.1,21.1,0,0,1,21-21.1h0a21.1,21.1,0,0,1,21.1,21.1v126a21,21,0,0,1-21.1,21.1h0A21,21,0,0,1,410.1,490.4Z" style="fill:#93d1ce"/><path d="M353.7,524.3v95.8a24,24,0,0,0,23.9,24h0a24,24,0,0,0,23.9-24V524.3a23.9,23.9,0,0,0-23.9-23.9h0A23.9,23.9,0,0,0,353.7,524.3Z" style="fill:#93d1ce"/><path d="M271.2,467v82.9A11.2,11.2,0,0,0,282.4,561h0a11.1,11.1,0,0,0,11.1-11.1V467a11.2,11.2,0,0,0-11.1-11.2h0A11.2,11.2,0,0,0,271.2,467Z" style="fill:#93d1ce"/><path d="M446.1,140.6V292.4a13.4,13.4,0,0,0,13.4,13.4h0a13.4,13.4,0,0,0,13.3-13.4V140.6a13.4,13.4,0,0,0-13.3-13.4h0A13.4,13.4,0,0,0,446.1,140.6Z" style="fill:#93d1ce"/><path d="M505.8,480.1v87.5a19.1,19.1,0,0,0,19.1,19.2h0a19.2,19.2,0,0,0,19.2-19.2V480.1a19.2,19.2,0,0,0-19.2-19.2h0A19.1,19.1,0,0,0,505.8,480.1Z" style="fill:#93d1ce"/><path d="M534.5,188.3v65.9a9.8,9.8,0,0,0,9.8,9.8h0a9.8,9.8,0,0,0,9.8-9.8V188.3a9.8,9.8,0,0,0-9.8-9.8h0A9.8,9.8,0,0,0,534.5,188.3Z" style="fill:#93d1ce"/><path d="M505.8,342V563.6a23.2,23.2,0,0,1-23.2,23.2h0a23.1,23.1,0,0,1-23.1-23.2V342a23.1,23.1,0,0,1,23.1-23.2h0A23.2,23.2,0,0,1,505.8,342Z" style="fill:#fbb400"/><path d="M466.1,108.1v72.8A19.8,19.8,0,0,0,486,200.7h0a19.8,19.8,0,0,0,19.8-19.8V108.1A19.9,19.9,0,0,0,486,88.2h0A19.9,19.9,0,0,0,466.1,108.1Z" style="fill:#fbb400"/><path d="M362.6-.5V199.3A23.7,23.7,0,0,0,386.3,223h0a23.8,23.8,0,0,0,23.8-23.7V-.5a23.9,23.9,0,0,0-23.8-23.8h0A23.8,23.8,0,0,0,362.6-.5Z" style="fill:#fbb400"/><path d="M305.8,536.3V308.5a19.8,19.8,0,0,1,19.7-19.8h0a19.8,19.8,0,0,1,19.8,19.8V536.3a19.8,19.8,0,0,1-19.8,19.8h0A19.8,19.8,0,0,1,305.8,536.3Z" style="fill:#fbb400"/><path d="M372.6,599.8v99A27.7,27.7,0,0,1,345,726.4h0a27.6,27.6,0,0,1-27.5-27.6v-99A27.6,27.6,0,0,1,345,572.2h0A27.7,27.7,0,0,1,372.6,599.8Z" style="fill:#fbb400"/><path d="M560.8,347.8v52.3a11.2,11.2,0,0,0,11.1,11.2h0a11.2,11.2,0,0,0,11.2-11.2V347.8a11.2,11.2,0,0,0-11.2-11.2h0A11.2,11.2,0,0,0,560.8,347.8Z" style="fill:#fbb400"/><path d="M262.3,229.3v69.5a12.9,12.9,0,0,0,12.8,12.8h0A12.9,12.9,0,0,0,288,298.8V229.3a12.9,12.9,0,0,0-12.9-12.8h0A12.9,12.9,0,0,0,262.3,229.3Z" style="fill:#fbb400"/></g></svg>