<svg id="图层_1" data-name="图层 1" xmlns="http://www.w3.org/2000/svg" viewBox="0 0 40 40"><title>bottle</title><path d="M28,36.5s0-12,0-16-2.7-2.5-.8-5.5-1.8-7.3-2.8-8.3-.1-1.3,0-1.7h.4a.5.5,0,0,0,0-1h-.3V2a2,2,0,0,0-2-2H17.5a2,2,0,0,0-2,2V4h-.3a.5.5,0,1,0,0,1h.4c.1.5.2,1.5,0,1.7s-5,5-2.8,8.3-.8,1.6-.8,5.5,0,16,0,16A3.3,3.3,0,0,0,15.7,40h8.7A3.3,3.3,0,0,0,28,36.5Z" style="fill:#ff7c00"/><path d="M14.8,14h0a.5.5,0,0,1-.5-.5,6.7,6.7,0,0,1,2-4.1.5.5,0,0,1,.7.7,5.8,5.8,0,0,0-1.6,3.4A.5.5,0,0,1,14.8,14Z" style="fill:#fff"/><path d="M17.8,9l-.4-.2a.5.5,0,0,1,0-.7h.1a.5.5,0,1,1,.7.7h-.5Z" style="fill:#fff"/><path d="M17.5,3.3a.5.5,0,0,1-.5-.5V2a.5.5,0,0,1,1,0v.8A.5.5,0,0,1,17.5,3.3Z" style="fill:#fff"/><path d="M19.2,3.3a.5.5,0,0,1-.5-.5V2a.5.5,0,0,1,1,0v.8A.5.5,0,0,1,19.2,3.3Z" style="fill:#fff"/><path d="M20.8,3.3a.5.5,0,0,1-.5-.5V2a.5.5,0,0,1,1,0v.8A.5.5,0,0,1,20.8,3.3Z" style="fill:#fff"/><path d="M22.5,3.3a.5.5,0,0,1-.5-.5V2a.5.5,0,0,1,1,0v.8A.5.5,0,0,1,22.5,3.3Z" style="fill:#fff"/><path d="M19.8,26.3l.4-1.6-1.7,2,1.2.4.3.3a.5.5,0,0,1,0,.4l-.6,1.7,1.8-2.2-1.2-.4A.5.5,0,0,1,19.8,26.3Z" style="fill:#fff"/><path d="M13.2,20.2V34.3H26.8V20.2Zm9.4,7.1-4.1,4.9-.4.2h-.2a.5.5,0,0,1-.2-.6L19,27.9l-1.4-.4a.5.5,0,0,1-.2-.8L21,22.2a.5.5,0,0,1,.9.4l-1,3.4,1.5.4a.5.5,0,0,1,.2.8Z" style="fill:#fff"/></svg>