<svg xmlns="http://www.w3.org/2000/svg" viewBox="0 0 32 32"><title>data_height</title><g id="图层_2" data-name="图层 2"><g id="图层_1-2" data-name="图层 1"><rect width="32" height="32" style="fill:#fff;opacity:0"/><path d="M12.3,10h0A3.3,3.3,0,1,0,9,6.7,3.3,3.3,0,0,0,12.3,10Z" style="fill:#ff7c00"/><path d="M17.1,12.5a4.7,4.7,0,0,0-3.5-1.6H11a4.7,4.7,0,0,0-3.5,1.6L3.3,17.2a.6.6,0,0,0,0,.8l1.4,1.4.4.2.4-.2,3-3.5V31.4a.6.6,0,0,0,.6.6h2.1a.6.6,0,0,0,.6-.6v-9h.9v9a.6.6,0,0,0,.6.6h2a.6.6,0,0,0,.6-.6V15.9l3,3.5.4.2.4-.2L21.3,18a.6.6,0,0,0,0-.8Z" style="fill:#ff7c00"/><path d="M27.9,0h-3a1,1,0,1,0,0,1.9h2V7h-2a1,1,0,1,0,0,1.9h2V15h-2a1,1,0,0,0,0,1.9h2V23h-2a1,1,0,1,0,0,1.9h2V30h-2a1,1,0,1,0,0,1.9h3a1,1,0,0,0,1-1V1A1,1,0,0,0,27.9,0Z" style="fill:#ff7c00"/></g></g></svg>