<svg xmlns="http://www.w3.org/2000/svg" viewBox="0 0 150 150"><title>data_figure_pear01</title><g id="图层_2" data-name="图层 2"><g id="图层_1-2" data-name="图层 1"><rect width="150" height="150" rx="6" ry="6" style="fill:#8d99ae;opacity:0.5"/><path d="M97.4,57.3C96,30.5,81.8,28.5,75,29.1S54,30.5,52.6,57.3c-1.7,35.2-15.8,24.4-16.2,48.3C36.1,120,55.2,129.2,75,129s38.9-9,38.6-23.4C113.2,81.7,99.1,92.5,97.4,57.3Z" style="fill:#fff"/><path d="M38.5,115.9c.8,7.1,3,21.2,8.7,34.1H68.8s0-5.3,3.1-18.9C57.3,130.5,43.7,124.9,38.5,115.9Z" style="fill:#fff"/><path d="M78.1,131c3.1,13.7,3.1,19,3.1,19h21.6c5.7-13,7.9-27.1,8.7-34.1C106.4,124.7,92.7,130.1,78.1,131Z" style="fill:#fff"/></g></g></svg>