<svg xmlns="http://www.w3.org/2000/svg" viewBox="0 0 750 500"><title>data_bg</title><g id="图层_2" data-name="图层 2"><g id="图层_1-2" data-name="图层 1"><polygon points="750 300 0 500 0 0 750 0 750 300" style="fill:#2b2d42"/><g style="opacity:0.1"><path d="M185.4,422.5c-7.6,0-11.4-4.9-14.9-9.2s-6.4-8.1-12.5-8.1-9.2,3.9-12.5,8.1-7.3,9.2-14.9,9.2-11.4-4.9-14.9-9.2-6.4-8.1-12.5-8.1-9.2,3.9-12.5,8.1-7.3,9.2-14.9,9.2-11.4-4.9-14.9-9.2-6.4-8.1-12.5-8.1a1.5,1.5,0,0,1-1.5-1.5,1.5,1.5,0,0,1,1.5-1.5c7.6,0,11.5,4.9,14.9,9.2s6.4,8.1,12.5,8.1,9.2-3.9,12.5-8.1,7.3-9.2,14.9-9.2,11.5,4.9,14.9,9.2,6.4,8.1,12.5,8.1,9.2-3.9,12.5-8.1,7.3-9.2,14.9-9.2,11.5,4.9,14.9,9.2,6.4,8.1,12.5,8.1a1.5,1.5,0,0,1,0,3Z" style="fill:#fff"/><path d="M732.5,161.6a1.1,1.1,0,0,1-.8-.3l-11-6.9-11,6.9a1.5,1.5,0,0,1-1.6,0l-11-6.9-11,6.9a1.5,1.5,0,0,1-1.6,0l-11.8-7.4a1.5,1.5,0,0,1-.4-2.1,1.5,1.5,0,0,1,2-.5l11,7,11-7a1.5,1.5,0,0,1,1.6,0l11,7,11-7a1.5,1.5,0,0,1,1.6,0l11.8,7.5a1.5,1.5,0,0,1,.4,2.1A1.4,1.4,0,0,1,732.5,161.6Z" style="fill:#ffff03"/><path d="M146.8,22.3a1.1,1.1,0,0,1-.8-.3l-14.4-9.1L117.1,22a1.5,1.5,0,0,1-1.6,0l-14.4-9.1L86.7,22a1.5,1.5,0,0,1-1.6,0L69.9,12.4a1.6,1.6,0,0,1-.5-2.1,1.5,1.5,0,0,1,2.1-.4L85.9,19l14.4-9.1a1.5,1.5,0,0,1,1.6,0L116.3,19l14.5-9.1a1.5,1.5,0,0,1,1.6,0l15.2,9.6a1.6,1.6,0,0,1,.5,2.1A1.7,1.7,0,0,1,146.8,22.3Z" style="fill:#ffff03"/><path d="M116.6,12.6a1.1,1.1,0,0,1-.8-.2L101.3,3.3,86.9,12.4a1.5,1.5,0,0,1-1.6,0L70.9,3.3,56.4,12.4a1.5,1.5,0,0,1-1.6,0L39.6,2.8A1.5,1.5,0,0,1,39.2.7a1.5,1.5,0,0,1,2-.5L55.6,9.4,70.1.2a1.5,1.5,0,0,1,1.6,0L86.1,9.4,100.5.2a1.5,1.5,0,0,1,1.6,0l15.3,9.7a1.4,1.4,0,0,1,.4,2A1.4,1.4,0,0,1,116.6,12.6Z" style="fill:#fff"/><path d="M445.6,74.3a1.6,1.6,0,0,1-1.3-.8L425.1,38.1a1.6,1.6,0,0,1,.6-2.1,1.5,1.5,0,0,1,2,.7l19.2,35.4a1.5,1.5,0,0,1-.6,2A1,1,0,0,1,445.6,74.3Z" style="fill:#fff"/><path d="M418.3,66.2a1.4,1.4,0,0,1-1.3-.8,1.4,1.4,0,0,1,.6-2L453,44.2a1.6,1.6,0,0,1,2.1.6,1.5,1.5,0,0,1-.7,2L419,66Z" style="fill:#fff"/><path d="M37.9,466H17.5a1.5,1.5,0,0,1-1.5-1.5V444.2a1.5,1.5,0,0,1,1.5-1.5H37.9a1.5,1.5,0,0,1,1.5,1.5v20.3A1.5,1.5,0,0,1,37.9,466ZM19,463H36.4V445.7H19Z" style="fill:#ffff03"/><path d="M572,129.3a1.2,1.2,0,0,1-1-.5,1.5,1.5,0,0,1-.4-1.4l7.8-33.1a1.3,1.3,0,0,1,1.1-1.1l33.2-6.7a1.4,1.4,0,0,1,1.3.5,1.4,1.4,0,0,1,.4,1.4l-7.8,33.1a1.4,1.4,0,0,1-1.2,1.1l-33.1,6.6Zm9.1-33.4L574,125.8l29.9-5.9,7.1-30Z" style="fill:#fff"/><path d="M579.8,96.1a1.5,1.5,0,0,1-1.1-.4L559.8,75.8a1.7,1.7,0,0,1-.4-1.5,1.5,1.5,0,0,1,1.2-1l33.1-6.6a1.5,1.5,0,0,1,1.4.4L614,87a1.6,1.6,0,0,1,.4,1.5,1.5,1.5,0,0,1-1.2,1l-33.1,6.6Zm-16-20.4L580.3,93,610,87.1,593.5,69.8Z" style="fill:#fff"/><path d="M572,129.3a1.6,1.6,0,0,1-1.1-.5L552,108.9a1.4,1.4,0,0,1-.4-1.4l7.8-33.1a1.5,1.5,0,0,1,1.1-1.1,1.7,1.7,0,0,1,1.5.4l18.9,19.9a1.5,1.5,0,0,1,.4,1.4l-7.8,33.1a1.4,1.4,0,0,1-1.1,1.1Zm-17.3-21.9,16.5,17.3,7-29.6L561.7,77.8Z" style="fill:#fff"/><g id="_编组_" data-name="&lt;编组&gt;"><g id="_编组_2" data-name="&lt;编组&gt;"><g id="_编组_3" data-name="&lt;编组&gt;"><path d="M109,277.1a1.6,1.6,0,0,1-1.1-.5l-26.2-26a2,2,0,0,1-.4-1.5l9.5-35.7a1.6,1.6,0,0,1,1.1-1l35.6-9.7a1.6,1.6,0,0,1,1.5.4l26.2,26.1a1.5,1.5,0,0,1-2.1,2.1l-25.6-25.5-34,9.2-9,34.1L110,274.5a1.4,1.4,0,0,1,0,2.1A1.4,1.4,0,0,1,109,277.1Z" style="fill:#fff"/></g><g id="_编组_4" data-name="&lt;编组&gt;"><path d="M118.5,241.4a1.6,1.6,0,0,1-1.1-.5L91.3,214.8a1.5,1.5,0,1,1,2.1-2.1l25.5,25.5,34.8-9.4a1.5,1.5,0,1,1,.8,2.9l-35.7,9.6Z" style="fill:#fff"/></g><g id="_编组_5" data-name="&lt;编组&gt;"><path d="M109,277.1h-.4a1.5,1.5,0,0,1-1.1-1.8l9.5-35.7a1.5,1.5,0,1,1,2.9.7L110.4,276A1.6,1.6,0,0,1,109,277.1Z" style="fill:#fff"/></g></g><g id="_编组_6" data-name="&lt;编组&gt;"><g id="_编组_7" data-name="&lt;编组&gt;"><path d="M56.6,224.8a1.6,1.6,0,0,1-1.1-.5L29.4,198.2a1.6,1.6,0,0,1-.3-1.5l9.6-35.6a1.3,1.3,0,0,1,1.1-1.1l35.7-9.5a1.5,1.5,0,0,1,1.4.4L103,177.1a1.5,1.5,0,0,1,.4,1.4l-9.7,35.7a1.6,1.6,0,0,1-1,1.1L57,224.7ZM32.2,196.7,57,221.6l34.1-9,9.1-34-24.8-25-34,9.1Z" style="fill:#fff"/></g><g id="_编组_8" data-name="&lt;编组&gt;"><path d="M154.3,231.8a1.6,1.6,0,0,1-1.1-.5l-26.2-26a2,2,0,0,1-.4-1.5l9.5-35.7a1.6,1.6,0,0,1,1.1-1,1.4,1.4,0,0,1,1.4.3l26.2,26.1a1.7,1.7,0,0,1,.4,1.5l-9.5,35.7a1.3,1.3,0,0,1-1,1Zm-24.5-28,23.7,23.6,8.6-32.4-23.7-23.6Z" style="fill:#fff"/></g><g id="_编组_9" data-name="&lt;编组&gt;"><path d="M101.9,179.5a1.6,1.6,0,0,1-1.1-.5L74.7,152.9a1.7,1.7,0,0,1,.1-2.2,1.7,1.7,0,0,1,2.1,0l25.4,25.6,34.9-9.2a1.4,1.4,0,0,1,1.8,1,1.6,1.6,0,0,1-1,1.9l-35.7,9.4Z" style="fill:#fff"/></g><g id="_编组_10" data-name="&lt;编组&gt;"><path d="M47.2,260.4h-.4a1.4,1.4,0,0,1-1-1.8L55,223.6,29.5,198.2a1.7,1.7,0,0,1-.1-2.2,1.8,1.8,0,0,1,2.2,0l26.1,26.1a1.3,1.3,0,0,1,.4,1.4l-9.4,35.8A1.6,1.6,0,0,1,47.2,260.4Z" style="fill:#fff"/></g><g id="_编组_11" data-name="&lt;编组&gt;"><path d="M73.3,286.5a1.5,1.5,0,0,1-1.1-.4l-26-26.2a1.3,1.3,0,0,1-.4-1.4,1.6,1.6,0,0,1,1-1.1l35.7-9.5a2,2,0,0,1,1.5.4l26,26.2a1.4,1.4,0,0,1,.4,1.5,1.3,1.3,0,0,1-1,1l-35.7,9.5ZM50.1,259.7l23.7,23.6,32.3-8.5L82.5,251.1Z" style="fill:#fff"/></g><g id="_编组_12" data-name="&lt;编组&gt;"><path d="M92.3,215.2a1.4,1.4,0,0,1-1-.4L65.2,188.7a1.4,1.4,0,0,1-.4-1.5l9.6-35.6a1.5,1.5,0,0,1,1.8-1.1,1.6,1.6,0,0,1,1.1,1.9l-9.4,34.8,25.5,25.5a1.5,1.5,0,0,1,0,2.1A1.5,1.5,0,0,1,92.3,215.2Z" style="fill:#fff"/></g><g id="_编组_13" data-name="&lt;编组&gt;"><path d="M30.5,198.6a1.3,1.3,0,0,1-1.4-1.1,1.4,1.4,0,0,1,1-1.8l35.7-9.5a1.5,1.5,0,0,1,1.9,1,1.6,1.6,0,0,1-1.1,1.9l-35.7,9.5Z" style="fill:#fff"/></g></g></g><g id="_编组_14" data-name="&lt;编组&gt;"><g id="_编组_15" data-name="&lt;编组&gt;"><path d="M703,355.3a1.4,1.4,0,0,1-1-.4l-77.1-77.1a1.4,1.4,0,0,1-.4-1.5,1.3,1.3,0,0,1,1-1L731.1,247a1.4,1.4,0,0,1,1.4.4,1.3,1.3,0,0,1,.4,1.4L704.5,354.2a1.7,1.7,0,0,1-1.1,1.1Zm-74.2-77.8,73.5,73.4,27.1-100.3Z" style="fill:#fff"/></g><g id="_编组_16" data-name="&lt;编组&gt;"><path d="M695.1,325.7a1.3,1.3,0,0,1-1-.4l-39.6-39.6a1.5,1.5,0,0,1-.4-1.4,1.7,1.7,0,0,1,1.1-1.1l54.2-14.5a1.5,1.5,0,0,1,1.4.4,1.7,1.7,0,0,1,.4,1.5l-14.6,54a2,2,0,0,1-1.1,1.1Zm-36.6-40.3,35.9,35.9,13.2-49Z" style="fill:#fff"/></g></g><g id="_编组_17" data-name="&lt;编组&gt;"><g id="_编组_18" data-name="&lt;编组&gt;"><path d="M700.5,364.7a1.3,1.3,0,0,1-1-.4l-77.2-77.1a1.6,1.6,0,0,1-.3-1.5l2.5-9.4a1.4,1.4,0,0,1,1.8-1,1.5,1.5,0,0,1,1.1,1.8l-2.3,8.6,74.7,74.6,1.8-6.9a1.4,1.4,0,0,1,1.8-1,1.5,1.5,0,0,1,1.1,1.8l-2.5,9.4a2,2,0,0,1-1.1,1.1Z" style="fill:#fff"/></g><g id="_编组_19" data-name="&lt;编组&gt;"><path d="M662.5,293.1a1.6,1.6,0,0,1-1.5-1.2,1.5,1.5,0,0,1,1.1-1.8l44.7-12a1.6,1.6,0,0,1,1.9,1.1,1.5,1.5,0,0,1-1.1,1.8l-44.7,12Z" style="fill:#fff"/></g></g><path d="M221.3,102.9a28.2,28.2,0,0,1-24.6-14.7,27.7,27.7,0,0,1-2.3-21.3,28.6,28.6,0,0,1,13.5-16.6,28.1,28.1,0,0,1,38,11.3h0a28.1,28.1,0,0,1-11.3,37.9A27.4,27.4,0,0,1,221.3,102.9Zm-.1-53a24.6,24.6,0,0,0-11.8,3,25,25,0,0,0-10.1,33.9,25.1,25.1,0,0,0,33.8,10.1A25,25,0,0,0,243.2,63h0a24.9,24.9,0,0,0-14.8-12A25.7,25.7,0,0,0,221.2,49.9Z" style="fill:#ffff03"/><path d="M521.4,287.3a1.5,1.5,0,0,1-1.1-.4l-23.2-23.3a1.2,1.2,0,0,1-.5-1,1.6,1.6,0,0,1,.5-1.1l23.2-23.2a1.6,1.6,0,0,1,1.1-.5h0a1.4,1.4,0,0,1,1,.5l23.3,23.2a1.4,1.4,0,0,1,0,2.1l-23.3,23.3A1.3,1.3,0,0,1,521.4,287.3Zm-21.2-24.7,21.2,21.1,21.1-21.1-21.1-21.1Z" style="fill:#ffff03"/><path d="M320.4,331l-.8-.2c-5.9-3.6-6.5-9.1-7.2-14s-1.1-9.1-5.7-11.9-8.5-1.3-13.1.4-9.9,3.7-15.7.2-6.5-9.1-7.1-14-1.2-9.1-5.8-11.8-8.5-1.4-13.1.4-9.9,3.6-15.7.1-6.5-9.1-7.1-14-1.2-9-5.7-11.8a1.4,1.4,0,0,1-.5-2.1,1.5,1.5,0,0,1,2-.5c5.8,3.6,6.5,9.1,7.1,14s1.2,9.1,5.8,11.8,8.5,1.4,13.1-.4,9.9-3.6,15.7-.1,6.5,9.1,7.1,14,1.2,9,5.7,11.8,8.6,1.3,13.2-.4,9.9-3.7,15.7-.1,6.5,9.1,7.1,14,1.1,9,5.7,11.8a1.5,1.5,0,0,1,.5,2.1A1.4,1.4,0,0,1,320.4,331Z" style="fill:#fff"/><path d="M313.7,341.9a1.2,1.2,0,0,1-.8-.2,12.7,12.7,0,0,1-5-5.3,1.4,1.4,0,0,1,.7-2,1.5,1.5,0,0,1,2,.6,9.8,9.8,0,0,0,3.9,4.2,1.5,1.5,0,0,1-.8,2.7Zm-6.9-16.4a1.5,1.5,0,0,1-1.5-1.2c-.6-3.1-1.6-6.2-5.2-8.4l-.4-.2a1.5,1.5,0,1,1,1.5-2.6l.4.2c4.7,2.9,6,6.9,6.7,10.4a1.6,1.6,0,0,1-1.3,1.8Zm-28.7-7.1h-.9a1.6,1.6,0,0,1-1.4-1.6,1.5,1.5,0,0,1,1.6-1.4c2.9.2,5.6-.8,8.5-1.9l2.5-.9a1.5,1.5,0,1,1,.9,2.8l-2.3.9C284.2,317.3,281.2,318.4,278.1,318.4Zm-10.4-6.3a1.6,1.6,0,0,1-1.4-.8,27.7,27.7,0,0,1-2.2-8.9c-.1-1-.3-2.1-.4-3.2a1.4,1.4,0,0,1,1.2-1.7,1.5,1.5,0,0,1,1.7,1.2c.2,1.1.3,2.3.5,3.4a21.8,21.8,0,0,0,1.9,7.8,1.6,1.6,0,0,1-.6,2.1Zm-31.8-19h-.1a12.8,12.8,0,0,1-6.2-1.9,13.2,13.2,0,0,1-4.8-4.9,1.4,1.4,0,0,1,.6-2,1.5,1.5,0,0,1,2,.5,10.4,10.4,0,0,0,3.7,3.8,9,9,0,0,0,4.8,1.5,1.6,1.6,0,0,1,1.5,1.6A1.5,1.5,0,0,1,235.9,293.1Zm23.1-2.4a1.1,1.1,0,0,1-.8-.2,9.4,9.4,0,0,0-5.1-1.4,16.2,16.2,0,0,0-5.2,1,1.5,1.5,0,0,1-1.9-1,1.5,1.5,0,0,1,.9-1.9,21.5,21.5,0,0,1,6.2-1.1,13.1,13.1,0,0,1,6.6,1.8,1.6,1.6,0,0,1,.6,2.1A1.5,1.5,0,0,1,259,290.7Zm-35.5-15.3a1.5,1.5,0,0,1-1.5-1.2c-.6-3.8-1.8-6.7-5.3-8.9a1.5,1.5,0,0,1-.5-2,1.6,1.6,0,0,1,2.1-.5c4.7,2.9,6,7.1,6.7,10.9a1.5,1.5,0,0,1-1.3,1.7Z" style="fill:#fff"/></g></g></g></svg>