<svg xmlns="http://www.w3.org/2000/svg" viewBox="0 0 410 410"><title>data_body</title><g id="图层_2" data-name="图层 2"><g id="图层_1-2" data-name="图层 1"><rect width="410" height="410" style="fill:#fff;opacity:0"/><path d="M203,25.5V200.6s1.5,16.8,5.9,27.4,6.8,32.8,11.1,38.4,3.5,10.5,3.8,18,7.2,26.5,7.4,36.9-1,18-.8,21.7.8,5.2,6.6,4.2,13.1-.5,12-3.3-7-2.4-7.4-9-.1-9.4,1.5-28.4-.5-33.3-6.2-40.3c0,0,.7-8.3-1.9-14.6s-.9-8.8-.5-18.2,2.7-27.3-.2-46.6-9.6-36.5-6.6-45.3l5.9-18.1s3.8,10.7,3.6,15.9,5.5,28.7,9.2,36.4,2.2,14,1.1,16.6-1.9,6-1.2,8.5a10.9,10.9,0,0,1,.5,4s-.9-.8-1.8.5-.1,4.6,2.6,6.6,5.5.5,8.3-2.6,4.3-4.1,3.8-7.4-1.6-7.9-1.9-10.9-.5-13.2-1.2-21.9-2-21.4-5.2-30.9-6-22.3-5.2-29.5,1.3-25.4-12.4-28.6-20.4-7.8-20.4-16.6a16,16,0,0,1,1.3-5.2,1.3,1.3,0,0,0,1.5-.4c.8-.8.7-3,2.2-4.8s2.6-6.3-.8-7.4c0,0,1.5-10.1-2.1-14.7S203,25.5,203,25.5Z" style="fill:#ffae03"/><path d="M188.4,44.8c-3.1,1.6-.7,6.2-.5,8.6s1.7,2.6,1.7,2.6c.8,3.7,4.3,9.4,4.3,9.4,1.4,16.2-16.1,15.7-24.6,20.8s-6.3,19.6-6.3,31.6-3.9,22.9-7.3,37.9c-2.9,12.3-4.1,21.2-4.5,24-1.2.2-3.7,1.1-6.6,5.3-1.7,2.4-2.2,4.8-3.4,6s1.4,4.1,4.5-1.1l-5.6,13.3s-1.1,1.9.6,2.1,4.7-9.4,5.8-9.4-4.6,10.9-1.9,11.7,4.8-11.4,5.3-11.2-3.1,10.1-1,10.8,2.8-11.1,4.5-10.9-2.2,8.3-.4,8.3,1.9-5.5,3.7-8.3,3.8-10.1,2.7-13.9c3.1-10.3,10.8-31.1,12.6-40.1s5.5-30,5.5-30c3.3,6.5,5.1,35.8,2.3,43.6s-9.2,26.8-6.4,44.3,5.1,41.4,4.1,61.9,2.6,42.9,5.3,58.4-.4,19.4-2.5,22.2,2.1,4.8,2.1,4.8H193c3.9,0,2.7-2.8,1.4-10.8s-2.8-14.6-1.2-25.2a194.2,194.2,0,0,0,2.1-40.4c-.9-16.2-.7-19.4,2.3-31.4s5.3-46.8,5.3-46.8V25.5C184.5,25.5,188.4,44.8,188.4,44.8Z" style="fill:#ffc447"/><polygon points="169.8 107.9 129.9 88 20 88 20 87 130.1 87 170.2 107.1 169.8 107.9" style="fill:#333"/><polygon points="140.1 329 20 329 20 328 139.9 328 189.7 298.1 190.3 298.9 140.1 329" style="fill:#333"/><polygon points="390 329 289.9 329 239.7 298.9 240.3 298.1 290.1 328 390 328 390 329" style="fill:#333"/><polygon points="240.2 107.9 239.8 107.1 279.9 87 390 87 390 88 280.1 88 240.2 107.9" style="fill:#333"/><polygon points="20.5 178 0 178 0 177 19.5 177 19.5 18 0 18 0 17 20.5 17 20.5 178" style="fill:#333"/><polygon points="410 178 389.5 178 389.5 17 410 17 410 18 390.5 18 390.5 177 410 177 410 178" style="fill:#333"/><polygon points="20.5 393 0 393 0 392 19.5 392 19.5 233 0 233 0 232 20.5 232 20.5 393" style="fill:#333"/><polygon points="410 393 389.5 393 389.5 232 410 232 410 233 390.5 233 390.5 392 410 392 410 393" style="fill:#333"/></g></g></svg>