<svg xmlns="http://www.w3.org/2000/svg" viewBox="0 0 32 32"><title>data_weight</title><g id="图层_2" data-name="图层 2"><g id="图层_1-2" data-name="图层 1"><rect width="32" height="32" style="fill:#fff;opacity:0"/><path d="M27,3a2,2,0,0,1,2,2V27a2,2,0,0,1-2,2H5a2,2,0,0,1-2-2V5A2,2,0,0,1,5,3H27m0-2H5A4,4,0,0,0,1,5V27a4,4,0,0,0,4,4H27a4,4,0,0,0,4-4V5a4,4,0,0,0-4-4Z" style="fill:#ff7c00"/><path d="M27.7,13.8A12.5,12.5,0,0,0,16,6.8,12.5,12.5,0,0,0,4.4,13.7,1.1,1.1,0,0,0,5,15.2l6.3,2.7a.9.9,0,0,0,1.1-.3v-.2a2.9,2.9,0,0,1,.4-1.1l-.2-.2-2.5-3.3a1,1,0,0,1,1.6-1.2l2.5,3.3v.2a3.9,3.9,0,0,1,1.6-.3,3.4,3.4,0,0,1,3.5,2.6.8.8,0,0,0,1,.6h.2l6.4-2.7A1,1,0,0,0,27.7,13.8Z" style="fill:#ff7c00"/></g></g></svg>