<svg xmlns="http://www.w3.org/2000/svg" viewBox="0 0 32 32"><title>data_gender</title><g id="图层_2" data-name="图层 2"><g id="图层_1-2" data-name="图层 1"><rect width="32" height="32" style="fill:#fff;opacity:0"/><path d="M24.1,13.6h0V5.1l2.3,2.3a.9.9,0,1,0,1.3-1.3L23.9,2.2a.9.9,0,0,0-1.3,0L18.6,6.1A.9.9,0,0,0,20,7.4l2.3-2.3v8.5h0a7.8,7.8,0,1,0,1.9,0Z" style="fill:#ff7c00"/><path d="M13.4,22.4H9.7V18.4h0a7.8,7.8,0,1,0-1.9,0h0v3.9H4.2a.9.9,0,1,0,0,1.9H7.9v4.9a.9.9,0,0,0,1.9,0V24.3h3.7a.9.9,0,0,0,0-1.9Z" style="fill:#ff7c00"/></g></g></svg>