<svg xmlns="http://www.w3.org/2000/svg" viewBox="0 0 550 250"><title>data_water</title><g id="图层_2" data-name="图层 2"><g id="图层_1-2" data-name="图层 1"><rect width="550" height="250" style="fill:#fff;opacity:0"/><path d="M230.8,57.9A124.9,124.9,0,1,0,250.4,125,124.7,124.7,0,0,0,230.8,57.9Z" style="fill:#4392f1"/><g style="opacity:0.30000000000000004"><path d="M222.6,46.5c-4.6,3.4-6.5,10.3-13.5,10.8h-.6c-9.9-.1-10-12.7-20-12.7s-10,12.7-20,12.7-10.1-12.7-20.1-12.7-10,12.7-20,12.7h-.6c-10.1,0-10.1-12.7-20.1-12.7s-10,12.7-20.1,12.7-10-12.7-20-12.7-10,12.1-19.3,12.7h-.7c-9.2-.1-9.9-11.1-18.1-12.5a112.9,112.9,0,0,0-9.6,13.1A125,125,0,1,0,250.4,125a124.1,124.1,0,0,0-19.6-67.1A117.8,117.8,0,0,0,222.6,46.5Z" style="fill:#fff"/></g><g style="opacity:0.30000000000000004"><path d="M248.5,123.1c-10.1,0-10.1-12.7-20.1-12.7s-10,12.1-19.3,12.7h-.6c-9.9-.1-10-12.7-20-12.7s-10,12.7-20,12.7-10.1-12.7-20.1-12.7-10,12.7-20,12.7h-.6c-10.1,0-10.1-12.7-20.1-12.7s-10,12.7-20.1,12.7-10-12.7-20-12.7-10,12.1-19.3,12.7h-.7c-9.9-.1-9.9-12.7-19.9-12.7s-10,12.7-20.1,12.7a9.7,9.7,0,0,1-7.1-3c-.1,1.6-.1,3.3-.1,4.9a125,125,0,0,0,250,0c0-.7-.1-1.4-.1-2Z" style="fill:#fff"/></g><g style="opacity:0.30000000000000004"><path d="M130.4,249.9l3-.2h1l3.9-.4h.4l3.4-.4,1.1-.2,3-.4.9-.2,3.7-.7h.6l3.1-.7,1.1-.3,3-.8.7-.2,3.6-1,.7-.3,3-1,.8-.3,3.3-1.2h.3a36.8,36.8,0,0,0,3.5-1.5l.7-.2,2.9-1.3.7-.4c2.3-1.1,4.6-2.2,6.8-3.5l.5-.3,3-1.6.4-.3c2.2-1.3,4.4-2.7,6.5-4.2l.4-.3,3-2.1h.2c2.1-1.6,4.2-3.2,6.2-4.9l.3-.3a109.9,109.9,0,0,0,8.7-8.1h.1c2.8-2.9,5.5-5.9,8-9h0a113.7,113.7,0,0,0,11.4-16.9h0c1.4-2.3,2.7-4.8,3.9-7.3-2.5-3-5-6-9.8-6-9.8,0-10,12.1-19.3,12.7h-.6c-9.9-.1-10-12.7-20-12.7s-10,12.7-20,12.7-10.1-12.7-20.1-12.7-10,12.7-20,12.7h-.6c-10.1,0-10.1-12.7-20.1-12.7s-10,12.7-20.1,12.7-10-12.7-20-12.7-10,12.1-19.3,12.7h-.7c-9.9-.1-9.9-12.7-19.9-12.7-7,0-9.1,6.2-13.2,10,.6,1.1,1.2,2.2,1.9,3.3h0a113.7,113.7,0,0,0,11.4,16.9h0c2.5,3.1,5.2,6.1,8,9h.1a109.9,109.9,0,0,0,8.7,8.1l.3.3c2,1.7,4.1,3.3,6.2,4.9h.2l3,2.1.4.3c2.1,1.5,4.3,2.9,6.5,4.2l.5.3,2.9,1.6.5.3c2.2,1.3,4.5,2.4,6.8,3.5l.7.4,2.9,1.3.7.2a36.8,36.8,0,0,0,3.5,1.5H80l3.3,1.2.8.3,3,1,.7.3,3.6,1,.7.2,3,.8,1.1.3,3.1.7h.6l3.7.7.9.2,3,.4,1.1.2,3.4.4h.4l3.9.4h1l3,.2h10.1Z" style="fill:#fff"/></g><polygon points="210.5 75.4 210.1 74.6 250.2 54.5 360.2 54.5 360.2 55.5 250.4 55.5 210.5 75.4" style="fill:#333"/><polygon points="360.2 215.5 250.2 215.5 210.1 195.4 210.5 194.6 250.4 214.5 360.2 214.5 360.2 215.5" style="fill:#333"/><rect x="218.3" y="134.5" width="141.9" height="1" style="fill:#333"/><path d="M385.4,54.9l-4.7-2.8.9-1.2a30.4,30.4,0,0,1,4.8,2.6Zm-4.1,11a91.1,91.1,0,0,0,4.6-8.5l1.3,1c-1.3,2.8-3,6.1-4.4,8.5Zm1.6-22a48.7,48.7,0,0,1,4.7,2.8l-1,1.4a52.9,52.9,0,0,0-4.6-3Zm20.8,16.4h-7.1v5.1c0,.9-.2,1.4-.9,1.6a11.3,11.3,0,0,1-3.6.3,10.4,10.4,0,0,0-.6-1.6h2.9c.4,0,.5-.1.5-.4V60.3h-7.2V58.7h7.2V57.2a21.8,21.8,0,0,0,3.8-3h-9.5V52.6h11.4l1.1.8a21.6,21.6,0,0,1-5.1,4.4v1h7.1ZM403.3,45a85,85,0,0,1-14.6,1.9,13.1,13.1,0,0,0-.5-1.5c4.9-.3,10.8-.9,14-1.8Zm-12.2,7.2a37,37,0,0,0-1.9-4.2l1.3-.6a19.2,19.2,0,0,1,2,4.1Zm4.2-.3a44.3,44.3,0,0,0-1.4-4.4l1.4-.5a31.8,31.8,0,0,1,1.5,4.3Zm3-.3a31,31,0,0,0,2.7-5.1l1.6.7a55.4,55.4,0,0,1-2.9,5Z" style="fill:#333"/><path d="M414.9,65c0,1-.2,1.5-.8,1.8a8.7,8.7,0,0,1-3.3.3,14.2,14.2,0,0,0-.5-1.6h2.6c.3,0,.4-.1.4-.5V58.5h-3.7a27,27,0,0,1-1.8,8.8,3.9,3.9,0,0,0-1.4-.8c1.7-3.7,1.8-8.8,1.8-12.6V44.6h6.7Zm-1.6-8.1V52.3h-3.6v4.6Zm-3.6-10.7v4.5h3.6V46.2Zm19.6,2.9V60.3h-1.7V58.9h-3.8v8.4H422V58.9h-3.8v1.5h-1.6V49.1H422V43.7h1.8v5.4ZM422,57.2V50.8h-3.8v6.4Zm5.6,0V50.8h-3.8v6.4Z" style="fill:#333"/><path d="M444.4,55.7c0-6.6,2.3-9.7,5.9-9.7s5.8,3.2,5.8,9.7-2.3,10-5.8,10S444.4,62.4,444.4,55.7Zm9.6,0c0-5.5-1.5-8-3.7-8s-3.8,2.5-3.8,8S448,64,450.3,64,454,61.4,454,55.7Z" style="fill:#333"/><path d="M459.3,64a1.6,1.6,0,0,1,1.6-1.7,1.7,1.7,0,0,1,0,3.4A1.6,1.6,0,0,1,459.3,64Z" style="fill:#333"/><path d="M465.2,63.1l1.1-1.4a6.4,6.4,0,0,0,4.8,2.2c2.3,0,4-1.4,4-3.7s-1.7-3.9-6.1-3.9V54.6c4,0,5.4-1.6,5.4-3.8s-1.3-3.1-3.4-3.1a5.8,5.8,0,0,0-4,1.9l-1.1-1.4a7.8,7.8,0,0,1,5.2-2.3c3.1.1,5.4,1.8,5.4,4.8a4.6,4.6,0,0,1-3.4,4.6h0a4.9,4.9,0,0,1,4.1,4.9c0,3.3-2.7,5.4-6,5.4A7.7,7.7,0,0,1,465.2,63.1Z" style="fill:#333"/><path d="M479.4,63.1l1.1-1.4a5.7,5.7,0,0,0,4.7,2.2c2.3,0,4.2-1.8,4.2-4.7s-1.6-4.5-4.1-4.5a4.9,4.9,0,0,0-3.2,1.2l-1.2-.8.6-8.8h9.1v1.8h-7.2l-.5,5.8a5.5,5.5,0,0,1,2.9-.8c3.2,0,5.7,1.9,5.7,6.1a6.2,6.2,0,0,1-6.1,6.5A7.9,7.9,0,0,1,479.4,63.1Z" style="fill:#333"/><path d="M505.3,58.4a7.5,7.5,0,0,0,.4,1.6c-7.5,3.6-8.4,4.1-9,4.6a7.1,7.1,0,0,0-1-1.4,2.7,2.7,0,0,0,1.5-2.3V45.7h1.9V61.3Zm9.3-13.7c-.4,6.2-1.1,11-2.9,14.7a52.2,52.2,0,0,1,6.2,6.7l-1.5,1.2a45.9,45.9,0,0,0-5.4-6.4,17.7,17.7,0,0,1-7.8,6.6,6.1,6.1,0,0,0-1.3-1.5c8.4-3.3,10.3-9.8,10.9-21.4Zm-8,8.3a30.5,30.5,0,0,0-3.8-6.2l1.4-.8a29.7,29.7,0,0,1,4,6Z" style="fill:#333"/><path d="M543.4,64.3v1.8h-23V64.3h9.7V44H532v8.1h9.8v1.7H532V64.3Z" style="fill:#333"/><path d="M403.8,143.1v1.7H380.7v-1.7h3.6V130.8H386v12.3h5.9V125.9H381.7v-1.7h21.2v1.7h-9.2v7.2H402v1.6h-8.3v8.4Z" style="fill:#333"/><path d="M429,126.4v5.4h-1.7v-3.9H409.2v3.9h-1.6v-5.4h9.9v-4.1h1.8v4.1Zm-1.6,16.5c0,1-.2,1.4-.9,1.7a14,14,0,0,1-4.1.3l-.6-1.6h3.4c.3-.1.5-.2.5-.5v-3.8h-6.3V146h-1.8v-6.9H411v5.7h-1.7v-7.3h8.3v-2.3h-6.1v-5.3h13.6v5.3h-5.7v2.3h8Zm-16.1-20.4a37.2,37.2,0,0,1,2.2,3.1l-1.6.8a18.4,18.4,0,0,0-2.2-3.2Zm1.9,11.4h10.2v-2.7H413.2Zm13.7-10.8a22.6,22.6,0,0,1-2.7,3.2l-1.3-.6a30.5,30.5,0,0,0,2.2-3.2Z" style="fill:#333"/><path d="M444.1,134.4c0-6.6,2.2-9.8,5.8-9.8s5.8,3.2,5.8,9.8-2.2,9.9-5.8,9.9S444.1,141.1,444.1,134.4Zm9.6,0c0-5.6-1.5-8.1-3.8-8.1s-3.8,2.5-3.8,8.1,1.6,8.2,3.8,8.2S453.7,140.1,453.7,134.4Z" style="fill:#333"/><path d="M458.9,142.7a1.6,1.6,0,0,1,1.6-1.7,1.6,1.6,0,0,1,1.6,1.7,1.5,1.5,0,0,1-1.6,1.6A1.6,1.6,0,0,1,458.9,142.7Z" style="fill:#333"/><path d="M464.8,141.7l1.1-1.3a6.6,6.6,0,0,0,4.8,2.2,3.7,3.7,0,0,0,4-3.7c0-2.4-1.6-4-6-4v-1.6c4,0,5.3-1.7,5.3-3.8a3,3,0,0,0-3.3-3.2,6.3,6.3,0,0,0-4,1.9l-1.2-1.3a7.6,7.6,0,0,1,5.3-2.3c3.1,0,5.4,1.7,5.4,4.7a4.9,4.9,0,0,1-3.4,4.7h0a4.9,4.9,0,0,1,4,4.8c0,3.4-2.6,5.4-5.9,5.4A7.8,7.8,0,0,1,464.8,141.7Z" style="fill:#333"/><path d="M493.5,135.9h6.6v1.7h-6.6Z" style="fill:#333"/><path d="M502.5,134.4c0-6.6,2.3-9.8,5.9-9.8s5.8,3.2,5.8,9.8-2.3,9.9-5.8,9.9S502.5,141.1,502.5,134.4Zm9.6,0c0-5.6-1.5-8.1-3.7-8.1s-3.8,2.5-3.8,8.1,1.5,8.2,3.8,8.2S512.1,140.1,512.1,134.4Z" style="fill:#333"/><path d="M517.4,142.7a1.6,1.6,0,1,1,3.2,0,1.6,1.6,0,1,1-3.2,0Z" style="fill:#333"/><path d="M523.3,141.7l1.1-1.3a6.4,6.4,0,0,0,4.8,2.2,3.7,3.7,0,0,0,4-3.7c0-2.4-1.6-4-6.1-4v-1.6c4,0,5.4-1.7,5.4-3.8a3.1,3.1,0,0,0-3.3-3.2,5.8,5.8,0,0,0-4,1.9l-1.2-1.3a7.6,7.6,0,0,1,5.2-2.3c3.2,0,5.5,1.7,5.5,4.7a4.9,4.9,0,0,1-3.4,4.7h0a4.9,4.9,0,0,1,4,4.8c0,3.4-2.6,5.4-6,5.4A7.6,7.6,0,0,1,523.3,141.7Z" style="fill:#333"/><path d="M537.5,141.8l1.1-1.4a6.4,6.4,0,0,0,4.7,2.2c2.3,0,4.2-1.8,4.2-4.7s-1.6-4.5-4.1-4.5a5.4,5.4,0,0,0-3.2,1.1l-1.2-.7.6-8.8h9.1v1.8h-7.2l-.5,5.8a5.8,5.8,0,0,1,3-.8c3.1,0,5.6,1.8,5.6,6s-2.9,6.5-6.1,6.5A8,8,0,0,1,537.5,141.8Z" style="fill:#333"/><path d="M403.7,212.9H393v11.4h-1.9V212.9H380.7v-1.8h10.4v-6.8H382v-1.8h20.5v1.8H393v6.8h10.7Z" style="fill:#333"/><path d="M408.7,206.1a20,20,0,0,1-1.3,6.7l-1.2-.6a16.7,16.7,0,0,0,1.3-6.2Zm4.2,15-2.3-3.6a15.7,15.7,0,0,1-3.2,6.8,4.1,4.1,0,0,0-1.1-1.2c3.1-3.8,3.4-8.6,3.4-13.4v-8.8h1.6v8.8a38.1,38.1,0,0,1-.4,5.9c.9,1,2.6,3.6,3.1,4.3Zm1.7-15.5-1.8,5.6-1-.4a50.9,50.9,0,0,0,1.4-5.6Zm9.1,11.7a18.4,18.4,0,0,0,6.7,5.1,5,5,0,0,0-1.2,1.3,23.8,23.8,0,0,1-6.5-5.5v6.1h-1.6v-6.1a24,24,0,0,1-6.9,5.6,4.5,4.5,0,0,0-1.1-1.3,19.4,19.4,0,0,0,6.9-5.2h-5.9v-1.5h7v-2.4h-6.3V208h6.3v5.4h1.6v2.4h7.1v1.5Zm-4.1-8h-3.3v2.9h3.3Zm7.3-2.7h-9.8v-5.2h9.8Zm-1.7-3.9h-6.5v2.6h6.5Zm-2.4,5.3h6.4v5.4h-6.4Zm1.4,4.2h3.5v-2.9h-3.5Z" style="fill:#333"/><path d="M444,212.7c0-6.6,2.3-9.7,5.9-9.7s5.8,3.2,5.8,9.7-2.3,10-5.8,10S444,219.4,444,212.7Zm9.6,0c0-5.5-1.5-8-3.7-8s-3.8,2.5-3.8,8,1.5,8.3,3.8,8.3S453.6,218.4,453.6,212.7Z" style="fill:#333"/><path d="M458.9,221a1.6,1.6,0,1,1,1.6,1.7A1.6,1.6,0,0,1,458.9,221Z" style="fill:#333"/><path d="M464.8,220.1l1.1-1.4a6.4,6.4,0,0,0,4.8,2.2c2.3,0,4-1.4,4-3.7s-1.7-3.9-6.1-3.9v-1.7c4,0,5.4-1.6,5.4-3.8a3,3,0,0,0-3.3-3.1,5.5,5.5,0,0,0-4,1.9l-1.2-1.4a8.1,8.1,0,0,1,5.2-2.3c3.2.1,5.4,1.8,5.4,4.8a4.6,4.6,0,0,1-3.4,4.6h0a4.9,4.9,0,0,1,4.1,4.9c0,3.3-2.7,5.4-6,5.4A7.9,7.9,0,0,1,464.8,220.1Z" style="fill:#333"/><path d="M504.6,215.4a7.5,7.5,0,0,0,.5,1.6c-7.5,3.6-8.4,4.1-9.1,4.6a4.2,4.2,0,0,0-.9-1.4,2.9,2.9,0,0,0,1.5-2.3V202.7h1.8v15.6Zm9.3-13.7c-.4,6.2-1.1,11-2.8,14.7a44.6,44.6,0,0,1,6.1,6.7l-1.5,1.2a45.9,45.9,0,0,0-5.4-6.4,17.2,17.2,0,0,1-7.8,6.6,5.7,5.7,0,0,0-1.2-1.5c8.4-3.3,10.2-9.8,10.8-21.4ZM506,210a31.3,31.3,0,0,0-3.9-6.2l1.5-.8a41.6,41.6,0,0,1,4,6Z" style="fill:#333"/><path d="M531.6,204.3v4.6l.3-.3a69.6,69.6,0,0,1,9.3,5.4l-1.2,1.6a53.7,53.7,0,0,0-8.4-5.3v13.9h-1.8V204.3h-10v-1.8h22.9v1.8Z" style="fill:#333"/><path d="M479.1,134.4c0-6.6,2.2-9.8,5.8-9.8s5.8,3.2,5.8,9.8-2.2,9.9-5.8,9.9S479.1,141.1,479.1,134.4Zm9.6,0c0-5.6-1.5-8.1-3.8-8.1s-3.8,2.5-3.8,8.1,1.6,8.2,3.8,8.2S488.7,140.1,488.7,134.4Z" style="fill:#333"/><path d="M479,212.7c0-6.6,2.3-9.7,5.9-9.7s5.8,3.2,5.8,9.7-2.3,10-5.8,10S479,219.4,479,212.7Zm9.6,0c0-5.5-1.5-8-3.7-8s-3.8,2.5-3.8,8,1.5,8.3,3.8,8.3S488.6,218.4,488.6,212.7Z" style="fill:#333"/></g></g></svg>