<svg xmlns="http://www.w3.org/2000/svg" viewBox="0 0 32 32"><title>data_question</title><g id="图层_2" data-name="图层 2"><g id="图层_1-2" data-name="图层 1"><circle cx="16" cy="16" r="16" style="fill:#8d99ae"/><path d="M16.1,8a4.3,4.3,0,0,1,3.1,1.1,4.2,4.2,0,0,1,1.1,3.1,3.6,3.6,0,0,1-.5,1.8,8.5,8.5,0,0,1-1.4,1.8l-.9.9-.5.7a1.9,1.9,0,0,0-.2.6,4.1,4.1,0,0,0-.1.7q0,1.3-1.1,1.3h-.7l-.4-.2a.8.8,0,0,1-.2-.4,3.9,3.9,0,0,1,0-.6,5.8,5.8,0,0,1,2.1-4.1l.8-.8.5-.6.2-.5a3.6,3.6,0,0,0,.1-.6,1.7,1.7,0,0,0-.5-1.4,2.2,2.2,0,0,0-1.5-.5,2.1,2.1,0,0,0-1.5.6,1.9,1.9,0,0,0-.6,1.3q-.1,1.2-1.2,1.2a1,1,0,0,1-1.2-1.1,4,4,0,0,1,1.3-2.9A4.4,4.4,0,0,1,16.1,8Zm-.5,12.5h.7l.6.4.4.6a1.7,1.7,0,0,1,0,1.3l-.4.6-.6.4H14.9l-.6-.4-.4-.6a1.7,1.7,0,0,1,0-1.3l.4-.6.6-.4Z" style="fill:#f8fbff"/></g></g></svg>