<svg xmlns="http://www.w3.org/2000/svg" viewBox="0 0 150 150"><title>data_figure_apple01</title><g id="图层_2" data-name="图层 2"><g id="图层_1-2" data-name="图层 1"><rect width="150" height="150" rx="6" ry="6" style="fill:#8d99ae;opacity:0.5"/><path d="M110.5,52.8c-10.6-8.7-24,0-35.5,2-11.5-2-24.9-10.7-35.5-2S29,100.6,48.1,120.1c11.1,11.2,18.3,9.6,26.9,9.6s15.8,1.6,26.9-9.6C121,100.6,121,61.6,110.5,52.8Z" style="fill:#fff"/><path d="M48.1,122.2a49.3,49.3,0,0,1-9.8-15c.2,6.6,1.6,28.2,8,42.8H67s1.5-5.1,5-18.2C64.6,132,57.9,132.1,48.1,122.2Z" style="fill:#fff"/><path d="M101.9,122.2c-9.8,9.9-16.5,9.8-23.9,9.6,3.5,13.1,5,18.2,5,18.2h20.7c6.4-14.6,7.8-36.2,8-42.8A49.3,49.3,0,0,1,101.9,122.2Z" style="fill:#fff"/></g></g></svg>