<svg xmlns="http://www.w3.org/2000/svg" viewBox="0 0 150 150"><title>data_figure_normal01</title><g id="图层_2" data-name="图层 2"><g id="图层_1-2" data-name="图层 1"><rect width="150" height="150" rx="6" ry="6" style="fill:#8d99ae;opacity:0.5"/><path d="M111.1,108c-2.3-10.4-6-23.9-4-38.1,1.4-9.7,4-16.5,3-26.2S97.8,29,74.6,29,40.8,34.9,39.9,43.7s1.6,16.5,3,26.2c2,14.2-1.7,27.7-4,38.1s14.5,21.2,36,21h.2C96.6,129.2,113.7,119.8,111.1,108Z" style="fill:#fff"/><path d="M38.7,111.4h0s-1.2,20.4,6.8,38.6H67.1s1.5-5.3,5.1-18.9C52.7,130.6,37.6,122.1,38.7,111.4Z" style="fill:#fff"/><path d="M111.3,111.4h0c1.1,10.7-14,19.2-33.5,19.7,3.6,13.6,5.1,18.9,5.1,18.9h21.6C112.5,131.8,111.3,111.4,111.3,111.4Z" style="fill:#fff"/></g></g></svg>