<svg xmlns="http://www.w3.org/2000/svg" xmlns:xlink="http://www.w3.org/1999/xlink" viewBox="0 0 1024 1024"><defs><linearGradient id="未命名的渐变_15" x1="123.4" y1="602.47" x2="817.49" y2="602.47" gradientUnits="userSpaceOnUse"><stop offset="0" stop-color="#ff7c00"/><stop offset="1" stop-color="#ffff03"/></linearGradient></defs><title>me_about_logo</title><g id="图层_2" data-name="图层 2"><g id="图层_1-2" data-name="图层 1"><rect width="1024" height="1024" rx="195.5" ry="195.5" style="fill:#2b2d42"/><path d="M868.6,448.4a148.6,148.6,0,0,0-43.5-37.4c.4-4.7.6-9.4.6-14.2,0-101.7-82.5-184.2-184.2-184.2a184,184,0,0,0-158,89.6A136,136,0,0,0,331.3,503.9,144.8,144.8,0,0,1,548.3,341.7,135.3,135.3,0,0,0,495.6,306a149.2,149.2,0,0,1,271.5,85.5c0,.3,0,.6,0,.8a149.2,149.2,0,0,0-140.8,66.9,140.1,140.1,0,1,1,195.2,201q2.4,4.8,4.4,9.8a149.3,149.3,0,0,0,42.7-221.6Z" style="fill:#ffff03;fill-rule:evenodd"/><path d="M752.8,344.9a159.1,159.1,0,0,1-201.4-79.7,142,142,0,0,1,18.4-8.1,159.1,159.1,0,0,0,176.5,72.2A141.6,141.6,0,0,1,752.8,344.9Z" style="fill:#ffff03;fill-rule:evenodd"/><path d="M278.8,537.9A47.9,47.9,0,1,1,231,585.7a47.9,47.9,0,0,1,47.9-47.9Zm0,18.2a29.7,29.7,0,1,0,29.7,29.7A29.7,29.7,0,0,0,278.8,556.1Z" style="fill:#ffff03;fill-rule:evenodd"/><path d="M276.9,393.4v98.7a76.6,76.6,0,0,1-3.9,24.1,68,68,0,0,0-62.2,51.9,76.8,76.8,0,0,1-87.4-76V393.4h32.9v98.7a43.9,43.9,0,1,0,87.8,0V393.4Zm-45.7,241a43.9,43.9,0,0,1-75-31H123.4a76.8,76.8,0,0,0,137.7,46.7A67.9,67.9,0,0,1,231.3,634.4ZM435.5,515.1v77.6a34.5,34.5,0,1,1-69,0V515.1H340.6v77.6a60.4,60.4,0,1,0,120.8,0V515.1ZM598.7,653V575.4a60.4,60.4,0,1,0-120.8,0V653h25.9V575.4a34.5,34.5,0,1,1,69,0V653ZM718.3,467.4a99.2,99.2,0,1,0,99.2,99.2,99.2,99.2,0,0,0-99.2-99.2Zm-74.8,99.2a74.8,74.8,0,1,0,74.8-74.8A74.8,74.8,0,0,0,643.6,566.6Zm-12.7,98.9a99.4,99.4,0,0,0-8.5,72.2,74.3,74.3,0,0,0,29.6,9.3,74.8,74.8,0,0,1-1.2-66.9,132.7,132.7,0,0,1-20-14.6Zm87.4,146a99.2,99.2,0,0,0,87.4-146,132.6,132.6,0,0,1-20,14.6A74.8,74.8,0,0,1,671.9,771a100,100,0,0,1-34.7-1.6A99,99,0,0,0,718.3,811.5Z" style="fill-rule:evenodd;fill:url(#未命名的渐变_15)"/></g></g></svg>